%FSLAX34Y34*%
G04 Gerber Fmt 3.4, Leading zero omitted, Abs format*
G04 (created by PCBNEW (2013-11-28 BZR 4510)-product) date Mon 24 Mar 2014 08:07:25 PM EDT*
%MOIN*%
G01*
G70*
G90*
G04 APERTURE LIST*
%ADD10C,0.005906*%
%ADD11R,0.074700X0.074700*%
%ADD12R,0.074800X0.074700*%
%ADD13R,0.070700X0.074700*%
%ADD14R,0.082500X0.062900*%
%ADD15R,0.015700X0.053000*%
%ADD16C,0.060000*%
%ADD17C,0.120000*%
%ADD18C,0.059100*%
%ADD19C,0.130000*%
%ADD20C,0.059055*%
%ADD21R,0.045000X0.025000*%
G04 APERTURE END LIST*
G54D10*
G54D11*
X61138Y-48600D03*
G54D12*
X62082Y-48600D03*
G54D13*
X63106Y-48600D03*
G54D14*
X60390Y-47596D03*
G54D15*
X61099Y-47546D03*
X61355Y-47546D03*
X61610Y-47546D03*
X61865Y-47546D03*
X62121Y-47546D03*
G54D14*
X62830Y-47596D03*
G54D13*
X60114Y-48600D03*
G54D16*
X56990Y-46650D03*
X55990Y-46650D03*
X55990Y-47437D03*
X56990Y-47437D03*
G54D17*
X58852Y-48500D03*
X54128Y-48500D03*
G54D18*
X57160Y-28830D03*
X58160Y-28830D03*
X58960Y-28830D03*
X59960Y-28830D03*
G54D19*
X55960Y-27780D03*
X61360Y-27780D03*
G54D20*
X56875Y-42530D03*
X55894Y-42530D03*
X56875Y-43514D03*
X55894Y-43514D03*
X56875Y-44498D03*
X55894Y-44498D03*
X56875Y-40561D03*
X55894Y-40561D03*
X56875Y-39577D03*
X55894Y-39577D03*
G54D21*
X58030Y-39250D03*
X58030Y-39850D03*
X58020Y-40390D03*
X58020Y-40990D03*
X54680Y-40620D03*
X54680Y-41220D03*
X54680Y-41740D03*
X54680Y-42340D03*
X54680Y-40070D03*
X54680Y-39470D03*
X54680Y-38910D03*
X54680Y-38310D03*
X58070Y-43370D03*
X58070Y-43970D03*
X58060Y-44490D03*
X58060Y-45090D03*
X54660Y-43350D03*
X54660Y-43950D03*
X54660Y-44500D03*
X54660Y-45100D03*
X58075Y-36805D03*
X58075Y-36205D03*
X58085Y-35615D03*
X58085Y-35015D03*
X54610Y-36800D03*
X54610Y-36200D03*
X54590Y-35610D03*
X54590Y-35010D03*
G54D20*
X56840Y-34240D03*
X55859Y-34240D03*
X56840Y-35224D03*
X55859Y-35224D03*
X56840Y-36208D03*
X55859Y-36208D03*
X56840Y-32271D03*
X55859Y-32271D03*
X56840Y-31287D03*
X55859Y-31287D03*
M02*
