%FSLAX34Y34*%
G04 Gerber Fmt 3.4, Leading zero omitted, Abs format*
G04 (created by PCBNEW (2014-03-19 BZR 4756)-product) date Fri 12 Sep 2014 09:38:09 AM EDT*
%MOIN*%
G01*
G70*
G90*
G04 APERTURE LIST*
%ADD10C,0.005906*%
%ADD11C,0.060000*%
%ADD12C,0.120000*%
%ADD13C,0.059100*%
%ADD14C,0.130000*%
%ADD15C,0.059055*%
%ADD16C,0.010000*%
%ADD17C,0.025000*%
G04 APERTURE END LIST*
G54D10*
G54D11*
X56990Y-46650D03*
X55990Y-46650D03*
X55990Y-47437D03*
X56990Y-47437D03*
G54D12*
X58852Y-48500D03*
X54128Y-48500D03*
G54D13*
X57160Y-28830D03*
X58160Y-28830D03*
X58960Y-28830D03*
X59960Y-28830D03*
G54D14*
X55960Y-27780D03*
X61360Y-27780D03*
G54D15*
X56875Y-42530D03*
X55894Y-42530D03*
X56875Y-43514D03*
X55894Y-43514D03*
X56875Y-44498D03*
X55894Y-44498D03*
X56875Y-40561D03*
X55894Y-40561D03*
X56875Y-39577D03*
X55894Y-39577D03*
X56840Y-34240D03*
X55859Y-34240D03*
X56840Y-35224D03*
X55859Y-35224D03*
X56840Y-36208D03*
X55859Y-36208D03*
X56840Y-32271D03*
X55859Y-32271D03*
X56840Y-31287D03*
X55859Y-31287D03*
G54D16*
X56875Y-41425D02*
X56360Y-40910D01*
X56360Y-40910D02*
X56360Y-32751D01*
X56360Y-32751D02*
X56840Y-32271D01*
X56875Y-42530D02*
X56875Y-41425D01*
G54D17*
X55859Y-33319D02*
X55050Y-32510D01*
X55050Y-32510D02*
X55050Y-29560D01*
X55859Y-34240D02*
X55859Y-33319D01*
X55490Y-29560D02*
X57160Y-27890D01*
X57160Y-27890D02*
X58750Y-27890D01*
X58750Y-27890D02*
X58960Y-28100D01*
X58960Y-28100D02*
X58960Y-28830D01*
X55050Y-29560D02*
X55490Y-29560D01*
X56840Y-33419D02*
X58080Y-32180D01*
X56840Y-34240D02*
X56840Y-33419D01*
X58080Y-28910D02*
X58160Y-28830D01*
X58080Y-32180D02*
X58080Y-28910D01*
G54D16*
X55894Y-40725D02*
X55330Y-41290D01*
X55330Y-41290D02*
X55330Y-42820D01*
X55330Y-42820D02*
X55540Y-43030D01*
X55540Y-43030D02*
X56390Y-43030D01*
X56390Y-43030D02*
X56875Y-43514D01*
X55894Y-40561D02*
X55894Y-40725D01*
M02*
