M48
;DRILL file {Pcbnew (2013-11-28 BZR 4510)-product} date Sat 18 Jan 2014 11:27:53 AM EST
;FORMAT={-:-/ absolute / inch / decimal}
FMAT,2
INCH,TZ
T1C0.035
T2C0.038
T3C0.039
T4C0.091
%
G90
G05
M72
T1
X5.586Y-3.1287
X5.586Y-3.2271
X5.586Y-3.424
X5.586Y-3.5224
X5.586Y-3.6209
X5.5895Y-3.9577
X5.5895Y-4.0561
X5.5895Y-4.253
X5.5895Y-4.3514
X5.5895Y-4.4499
X5.684Y-3.1287
X5.684Y-3.2271
X5.684Y-3.424
X5.684Y-3.5224
X5.684Y-3.6209
X5.6875Y-3.9577
X5.6875Y-4.0561
X5.6875Y-4.253
X5.6875Y-4.3514
X5.6875Y-4.4499
T2
X5.634Y-4.804
X5.634Y-4.8827
X5.734Y-4.804
X5.734Y-4.8827
T3
X5.755Y-2.725
X5.855Y-2.725
X5.935Y-2.725
X6.035Y-2.725
T4
X5.4478Y-4.989
X5.635Y-2.62
X5.9202Y-4.989
X6.175Y-2.62
T0
M30
