%FSLAX34Y34*%
G04 Gerber Fmt 3.4, Leading zero omitted, Abs format*
G04 (created by PCBNEW (2013-11-28 BZR 4510)-product) date Mon 24 Mar 2014 06:58:31 PM EDT*
%MOIN*%
G01*
G70*
G90*
G04 APERTURE LIST*
%ADD10C,0.005906*%
%ADD11C,0.006000*%
%ADD12C,0.011811*%
%ADD13C,0.003900*%
%ADD14C,0.005000*%
%ADD15C,0.004500*%
G04 APERTURE END LIST*
G54D10*
G54D11*
X59127Y-43136D02*
X59317Y-43136D01*
X59089Y-43250D02*
X59222Y-42850D01*
X59355Y-43250D01*
X59489Y-42984D02*
X59489Y-43384D01*
X59489Y-43003D02*
X59527Y-42984D01*
X59603Y-42984D01*
X59641Y-43003D01*
X59660Y-43022D01*
X59679Y-43060D01*
X59679Y-43174D01*
X59660Y-43212D01*
X59641Y-43231D01*
X59603Y-43250D01*
X59527Y-43250D01*
X59489Y-43231D01*
X59850Y-42984D02*
X59850Y-43384D01*
X59850Y-43003D02*
X59889Y-42984D01*
X59965Y-42984D01*
X60003Y-43003D01*
X60022Y-43022D01*
X60041Y-43060D01*
X60041Y-43174D01*
X60022Y-43212D01*
X60003Y-43231D01*
X59965Y-43250D01*
X59889Y-43250D01*
X59850Y-43231D01*
X60270Y-43250D02*
X60231Y-43231D01*
X60212Y-43193D01*
X60212Y-42850D01*
X60574Y-43231D02*
X60536Y-43250D01*
X60460Y-43250D01*
X60422Y-43231D01*
X60403Y-43193D01*
X60403Y-43041D01*
X60422Y-43003D01*
X60460Y-42984D01*
X60536Y-42984D01*
X60574Y-43003D01*
X60593Y-43041D01*
X60593Y-43079D01*
X60403Y-43117D01*
X61050Y-42889D02*
X61070Y-42870D01*
X61108Y-42850D01*
X61203Y-42850D01*
X61241Y-42870D01*
X61260Y-42889D01*
X61279Y-42927D01*
X61279Y-42965D01*
X61260Y-43022D01*
X61031Y-43250D01*
X61279Y-43250D01*
X61450Y-43212D02*
X61470Y-43231D01*
X61450Y-43250D01*
X61431Y-43231D01*
X61450Y-43212D01*
X61450Y-43250D01*
X61831Y-42850D02*
X61641Y-42850D01*
X61622Y-43041D01*
X61641Y-43022D01*
X61679Y-43003D01*
X61774Y-43003D01*
X61812Y-43022D01*
X61831Y-43041D01*
X61850Y-43079D01*
X61850Y-43174D01*
X61831Y-43212D01*
X61812Y-43231D01*
X61774Y-43250D01*
X61679Y-43250D01*
X61641Y-43231D01*
X61622Y-43212D01*
X62003Y-43136D02*
X62193Y-43136D01*
X61965Y-43250D02*
X62098Y-42850D01*
X62231Y-43250D01*
X59097Y-42126D02*
X59287Y-42126D01*
X59059Y-42240D02*
X59192Y-41840D01*
X59325Y-42240D01*
X59459Y-41974D02*
X59459Y-42374D01*
X59459Y-41993D02*
X59497Y-41974D01*
X59573Y-41974D01*
X59611Y-41993D01*
X59630Y-42012D01*
X59649Y-42050D01*
X59649Y-42164D01*
X59630Y-42202D01*
X59611Y-42221D01*
X59573Y-42240D01*
X59497Y-42240D01*
X59459Y-42221D01*
X59820Y-41974D02*
X59820Y-42374D01*
X59820Y-41993D02*
X59859Y-41974D01*
X59935Y-41974D01*
X59973Y-41993D01*
X59992Y-42012D01*
X60011Y-42050D01*
X60011Y-42164D01*
X59992Y-42202D01*
X59973Y-42221D01*
X59935Y-42240D01*
X59859Y-42240D01*
X59820Y-42221D01*
X60240Y-42240D02*
X60201Y-42221D01*
X60182Y-42183D01*
X60182Y-41840D01*
X60544Y-42221D02*
X60506Y-42240D01*
X60430Y-42240D01*
X60392Y-42221D01*
X60373Y-42183D01*
X60373Y-42031D01*
X60392Y-41993D01*
X60430Y-41974D01*
X60506Y-41974D01*
X60544Y-41993D01*
X60563Y-42031D01*
X60563Y-42069D01*
X60373Y-42107D01*
X61020Y-41879D02*
X61040Y-41860D01*
X61078Y-41840D01*
X61173Y-41840D01*
X61211Y-41860D01*
X61230Y-41879D01*
X61249Y-41917D01*
X61249Y-41955D01*
X61230Y-42012D01*
X61001Y-42240D01*
X61249Y-42240D01*
X61420Y-42202D02*
X61440Y-42221D01*
X61420Y-42240D01*
X61401Y-42221D01*
X61420Y-42202D01*
X61420Y-42240D01*
X61820Y-42240D02*
X61592Y-42240D01*
X61706Y-42240D02*
X61706Y-41840D01*
X61668Y-41898D01*
X61630Y-41936D01*
X61592Y-41955D01*
X61973Y-42126D02*
X62163Y-42126D01*
X61935Y-42240D02*
X62068Y-41840D01*
X62201Y-42240D01*
X59098Y-41106D02*
X59289Y-41106D01*
X59060Y-41220D02*
X59193Y-40820D01*
X59327Y-41220D01*
X59460Y-40954D02*
X59460Y-41354D01*
X59460Y-40973D02*
X59498Y-40954D01*
X59574Y-40954D01*
X59612Y-40973D01*
X59631Y-40992D01*
X59650Y-41030D01*
X59650Y-41144D01*
X59631Y-41182D01*
X59612Y-41201D01*
X59574Y-41220D01*
X59498Y-41220D01*
X59460Y-41201D01*
X59822Y-40954D02*
X59822Y-41354D01*
X59822Y-40973D02*
X59860Y-40954D01*
X59936Y-40954D01*
X59974Y-40973D01*
X59993Y-40992D01*
X60012Y-41030D01*
X60012Y-41144D01*
X59993Y-41182D01*
X59974Y-41201D01*
X59936Y-41220D01*
X59860Y-41220D01*
X59822Y-41201D01*
X60241Y-41220D02*
X60203Y-41201D01*
X60184Y-41163D01*
X60184Y-40820D01*
X60546Y-41201D02*
X60508Y-41220D01*
X60431Y-41220D01*
X60393Y-41201D01*
X60374Y-41163D01*
X60374Y-41011D01*
X60393Y-40973D01*
X60431Y-40954D01*
X60508Y-40954D01*
X60546Y-40973D01*
X60565Y-41011D01*
X60565Y-41049D01*
X60374Y-41087D01*
X61250Y-41220D02*
X61022Y-41220D01*
X61136Y-41220D02*
X61136Y-40820D01*
X61098Y-40878D01*
X61060Y-40916D01*
X61022Y-40935D01*
X61403Y-41106D02*
X61593Y-41106D01*
X61365Y-41220D02*
X61498Y-40820D01*
X61631Y-41220D01*
X58989Y-34720D02*
X59065Y-34720D01*
X59103Y-34740D01*
X59141Y-34778D01*
X59160Y-34854D01*
X59160Y-34987D01*
X59141Y-35063D01*
X59103Y-35101D01*
X59065Y-35120D01*
X58989Y-35120D01*
X58950Y-35101D01*
X58912Y-35063D01*
X58893Y-34987D01*
X58893Y-34854D01*
X58912Y-34778D01*
X58950Y-34740D01*
X58989Y-34720D01*
X59331Y-34854D02*
X59331Y-35254D01*
X59331Y-34873D02*
X59370Y-34854D01*
X59446Y-34854D01*
X59484Y-34873D01*
X59503Y-34892D01*
X59522Y-34930D01*
X59522Y-35044D01*
X59503Y-35082D01*
X59484Y-35101D01*
X59446Y-35120D01*
X59370Y-35120D01*
X59331Y-35101D01*
X59846Y-35101D02*
X59808Y-35120D01*
X59731Y-35120D01*
X59693Y-35101D01*
X59674Y-35063D01*
X59674Y-34911D01*
X59693Y-34873D01*
X59731Y-34854D01*
X59808Y-34854D01*
X59846Y-34873D01*
X59865Y-34911D01*
X59865Y-34949D01*
X59674Y-34987D01*
X60036Y-34854D02*
X60036Y-35120D01*
X60036Y-34892D02*
X60055Y-34873D01*
X60093Y-34854D01*
X60150Y-34854D01*
X60189Y-34873D01*
X60208Y-34911D01*
X60208Y-35120D01*
X60931Y-35082D02*
X60912Y-35101D01*
X60855Y-35120D01*
X60817Y-35120D01*
X60760Y-35101D01*
X60722Y-35063D01*
X60703Y-35025D01*
X60684Y-34949D01*
X60684Y-34892D01*
X60703Y-34816D01*
X60722Y-34778D01*
X60760Y-34740D01*
X60817Y-34720D01*
X60855Y-34720D01*
X60912Y-34740D01*
X60931Y-34759D01*
X61103Y-35120D02*
X61103Y-34854D01*
X61103Y-34720D02*
X61084Y-34740D01*
X61103Y-34759D01*
X61122Y-34740D01*
X61103Y-34720D01*
X61103Y-34759D01*
X61293Y-35120D02*
X61293Y-34854D01*
X61293Y-34930D02*
X61312Y-34892D01*
X61331Y-34873D01*
X61370Y-34854D01*
X61408Y-34854D01*
X61712Y-35101D02*
X61674Y-35120D01*
X61598Y-35120D01*
X61560Y-35101D01*
X61541Y-35082D01*
X61522Y-35044D01*
X61522Y-34930D01*
X61541Y-34892D01*
X61560Y-34873D01*
X61598Y-34854D01*
X61674Y-34854D01*
X61712Y-34873D01*
X62055Y-34854D02*
X62055Y-35120D01*
X61884Y-34854D02*
X61884Y-35063D01*
X61903Y-35101D01*
X61941Y-35120D01*
X61998Y-35120D01*
X62036Y-35101D01*
X62055Y-35082D01*
X62246Y-35120D02*
X62246Y-34854D01*
X62246Y-34720D02*
X62227Y-34740D01*
X62246Y-34759D01*
X62265Y-34740D01*
X62246Y-34720D01*
X62246Y-34759D01*
X62379Y-34854D02*
X62531Y-34854D01*
X62436Y-34720D02*
X62436Y-35063D01*
X62455Y-35101D01*
X62493Y-35120D01*
X62531Y-35120D01*
G54D12*
X62422Y-27210D02*
X63013Y-27210D01*
X63013Y-27351D01*
X62985Y-27435D01*
X62929Y-27491D01*
X62872Y-27519D01*
X62760Y-27547D01*
X62675Y-27547D01*
X62563Y-27519D01*
X62507Y-27491D01*
X62450Y-27435D01*
X62422Y-27351D01*
X62422Y-27210D01*
X62450Y-28025D02*
X62422Y-27969D01*
X62422Y-27857D01*
X62450Y-27801D01*
X62507Y-27772D01*
X62732Y-27772D01*
X62788Y-27801D01*
X62816Y-27857D01*
X62816Y-27969D01*
X62788Y-28025D01*
X62732Y-28054D01*
X62675Y-28054D01*
X62619Y-27772D01*
X62816Y-28250D02*
X62422Y-28391D01*
X62816Y-28532D01*
X62422Y-28757D02*
X62816Y-28757D01*
X63013Y-28757D02*
X62985Y-28729D01*
X62957Y-28757D01*
X62985Y-28785D01*
X63013Y-28757D01*
X62957Y-28757D01*
X62450Y-29291D02*
X62422Y-29235D01*
X62422Y-29122D01*
X62450Y-29066D01*
X62479Y-29038D01*
X62535Y-29010D01*
X62704Y-29010D01*
X62760Y-29038D01*
X62788Y-29066D01*
X62816Y-29122D01*
X62816Y-29235D01*
X62788Y-29291D01*
X62450Y-29769D02*
X62422Y-29713D01*
X62422Y-29600D01*
X62450Y-29544D01*
X62507Y-29516D01*
X62732Y-29516D01*
X62788Y-29544D01*
X62816Y-29600D01*
X62816Y-29713D01*
X62788Y-29769D01*
X62732Y-29797D01*
X62675Y-29797D01*
X62619Y-29516D01*
X59632Y-46507D02*
X59632Y-45916D01*
X59857Y-45916D01*
X59914Y-45944D01*
X59942Y-45972D01*
X59970Y-46029D01*
X59970Y-46113D01*
X59942Y-46169D01*
X59914Y-46197D01*
X59857Y-46225D01*
X59632Y-46225D01*
X60307Y-46507D02*
X60251Y-46479D01*
X60223Y-46450D01*
X60195Y-46394D01*
X60195Y-46225D01*
X60223Y-46169D01*
X60251Y-46141D01*
X60307Y-46113D01*
X60392Y-46113D01*
X60448Y-46141D01*
X60476Y-46169D01*
X60504Y-46225D01*
X60504Y-46394D01*
X60476Y-46450D01*
X60448Y-46479D01*
X60392Y-46507D01*
X60307Y-46507D01*
X60701Y-46113D02*
X60814Y-46507D01*
X60926Y-46225D01*
X61039Y-46507D01*
X61151Y-46113D01*
X61601Y-46479D02*
X61545Y-46507D01*
X61432Y-46507D01*
X61376Y-46479D01*
X61348Y-46422D01*
X61348Y-46197D01*
X61376Y-46141D01*
X61432Y-46113D01*
X61545Y-46113D01*
X61601Y-46141D01*
X61629Y-46197D01*
X61629Y-46254D01*
X61348Y-46310D01*
X61882Y-46507D02*
X61882Y-46113D01*
X61882Y-46225D02*
X61910Y-46169D01*
X61938Y-46141D01*
X61995Y-46113D01*
X62051Y-46113D01*
G54D11*
X58906Y-33991D02*
X58963Y-34010D01*
X59059Y-34010D01*
X59097Y-33991D01*
X59116Y-33972D01*
X59135Y-33934D01*
X59135Y-33896D01*
X59116Y-33858D01*
X59097Y-33839D01*
X59059Y-33820D01*
X58982Y-33801D01*
X58944Y-33782D01*
X58925Y-33763D01*
X58906Y-33725D01*
X58906Y-33687D01*
X58925Y-33649D01*
X58944Y-33630D01*
X58982Y-33610D01*
X59078Y-33610D01*
X59135Y-33630D01*
X59363Y-34010D02*
X59325Y-33991D01*
X59306Y-33972D01*
X59287Y-33934D01*
X59287Y-33820D01*
X59306Y-33782D01*
X59325Y-33763D01*
X59363Y-33744D01*
X59420Y-33744D01*
X59459Y-33763D01*
X59478Y-33782D01*
X59497Y-33820D01*
X59497Y-33934D01*
X59478Y-33972D01*
X59459Y-33991D01*
X59420Y-34010D01*
X59363Y-34010D01*
X59668Y-33744D02*
X59668Y-34010D01*
X59668Y-33782D02*
X59687Y-33763D01*
X59725Y-33744D01*
X59782Y-33744D01*
X59820Y-33763D01*
X59840Y-33801D01*
X59840Y-34010D01*
X59992Y-33744D02*
X60087Y-34010D01*
X60182Y-33744D02*
X60087Y-34010D01*
X60049Y-34106D01*
X60030Y-34125D01*
X59992Y-34144D01*
X59073Y-40136D02*
X59263Y-40136D01*
X59035Y-40250D02*
X59168Y-39850D01*
X59301Y-40250D01*
X59435Y-39984D02*
X59435Y-40384D01*
X59435Y-40003D02*
X59473Y-39984D01*
X59549Y-39984D01*
X59587Y-40003D01*
X59606Y-40022D01*
X59625Y-40060D01*
X59625Y-40174D01*
X59606Y-40212D01*
X59587Y-40231D01*
X59549Y-40250D01*
X59473Y-40250D01*
X59435Y-40231D01*
X59797Y-39984D02*
X59797Y-40384D01*
X59797Y-40003D02*
X59835Y-39984D01*
X59911Y-39984D01*
X59949Y-40003D01*
X59968Y-40022D01*
X59987Y-40060D01*
X59987Y-40174D01*
X59968Y-40212D01*
X59949Y-40231D01*
X59911Y-40250D01*
X59835Y-40250D01*
X59797Y-40231D01*
X60216Y-40250D02*
X60178Y-40231D01*
X60159Y-40193D01*
X60159Y-39850D01*
X60520Y-40231D02*
X60482Y-40250D01*
X60406Y-40250D01*
X60368Y-40231D01*
X60349Y-40193D01*
X60349Y-40041D01*
X60368Y-40003D01*
X60406Y-39984D01*
X60482Y-39984D01*
X60520Y-40003D01*
X60540Y-40041D01*
X60540Y-40079D01*
X60349Y-40117D01*
X61206Y-39850D02*
X61016Y-39850D01*
X60997Y-40041D01*
X61016Y-40022D01*
X61054Y-40003D01*
X61149Y-40003D01*
X61187Y-40022D01*
X61206Y-40041D01*
X61225Y-40079D01*
X61225Y-40174D01*
X61206Y-40212D01*
X61187Y-40231D01*
X61149Y-40250D01*
X61054Y-40250D01*
X61016Y-40231D01*
X60997Y-40212D01*
X61473Y-39850D02*
X61511Y-39850D01*
X61549Y-39870D01*
X61568Y-39889D01*
X61587Y-39927D01*
X61606Y-40003D01*
X61606Y-40098D01*
X61587Y-40174D01*
X61568Y-40212D01*
X61549Y-40231D01*
X61511Y-40250D01*
X61473Y-40250D01*
X61435Y-40231D01*
X61416Y-40212D01*
X61397Y-40174D01*
X61378Y-40098D01*
X61378Y-40003D01*
X61397Y-39927D01*
X61416Y-39889D01*
X61435Y-39870D01*
X61473Y-39850D01*
X61854Y-39850D02*
X61892Y-39850D01*
X61930Y-39870D01*
X61949Y-39889D01*
X61968Y-39927D01*
X61987Y-40003D01*
X61987Y-40098D01*
X61968Y-40174D01*
X61949Y-40212D01*
X61930Y-40231D01*
X61892Y-40250D01*
X61854Y-40250D01*
X61816Y-40231D01*
X61797Y-40212D01*
X61778Y-40174D01*
X61759Y-40098D01*
X61759Y-40003D01*
X61778Y-39927D01*
X61797Y-39889D01*
X61816Y-39870D01*
X61854Y-39850D01*
X62159Y-40250D02*
X62159Y-39984D01*
X62159Y-40022D02*
X62178Y-40003D01*
X62216Y-39984D01*
X62273Y-39984D01*
X62311Y-40003D01*
X62330Y-40041D01*
X62330Y-40250D01*
X62330Y-40041D02*
X62349Y-40003D01*
X62387Y-39984D01*
X62444Y-39984D01*
X62482Y-40003D01*
X62501Y-40041D01*
X62501Y-40250D01*
X62673Y-40136D02*
X62863Y-40136D01*
X62635Y-40250D02*
X62768Y-39850D01*
X62901Y-40250D01*
X58897Y-32906D02*
X59087Y-32906D01*
X58859Y-33020D02*
X58992Y-32620D01*
X59125Y-33020D01*
X59259Y-32754D02*
X59259Y-33154D01*
X59259Y-32773D02*
X59297Y-32754D01*
X59373Y-32754D01*
X59411Y-32773D01*
X59430Y-32792D01*
X59449Y-32830D01*
X59449Y-32944D01*
X59430Y-32982D01*
X59411Y-33001D01*
X59373Y-33020D01*
X59297Y-33020D01*
X59259Y-33001D01*
X59620Y-32754D02*
X59620Y-33154D01*
X59620Y-32773D02*
X59659Y-32754D01*
X59735Y-32754D01*
X59773Y-32773D01*
X59792Y-32792D01*
X59811Y-32830D01*
X59811Y-32944D01*
X59792Y-32982D01*
X59773Y-33001D01*
X59735Y-33020D01*
X59659Y-33020D01*
X59620Y-33001D01*
X60040Y-33020D02*
X60001Y-33001D01*
X59982Y-32963D01*
X59982Y-32620D01*
X60344Y-33001D02*
X60306Y-33020D01*
X60230Y-33020D01*
X60192Y-33001D01*
X60173Y-32963D01*
X60173Y-32811D01*
X60192Y-32773D01*
X60230Y-32754D01*
X60306Y-32754D01*
X60344Y-32773D01*
X60363Y-32811D01*
X60363Y-32849D01*
X60173Y-32887D01*
X58865Y-31850D02*
X58865Y-31450D01*
X58960Y-31450D01*
X59017Y-31470D01*
X59055Y-31508D01*
X59074Y-31546D01*
X59093Y-31622D01*
X59093Y-31679D01*
X59074Y-31755D01*
X59055Y-31793D01*
X59017Y-31831D01*
X58960Y-31850D01*
X58865Y-31850D01*
X59417Y-31831D02*
X59379Y-31850D01*
X59303Y-31850D01*
X59265Y-31831D01*
X59246Y-31793D01*
X59246Y-31641D01*
X59265Y-31603D01*
X59303Y-31584D01*
X59379Y-31584D01*
X59417Y-31603D01*
X59436Y-31641D01*
X59436Y-31679D01*
X59246Y-31717D01*
X59779Y-31850D02*
X59779Y-31450D01*
X59779Y-31831D02*
X59741Y-31850D01*
X59665Y-31850D01*
X59627Y-31831D01*
X59608Y-31812D01*
X59589Y-31774D01*
X59589Y-31660D01*
X59608Y-31622D01*
X59627Y-31603D01*
X59665Y-31584D01*
X59741Y-31584D01*
X59779Y-31603D01*
X59970Y-31850D02*
X59970Y-31584D01*
X59970Y-31450D02*
X59950Y-31470D01*
X59970Y-31489D01*
X59989Y-31470D01*
X59970Y-31450D01*
X59970Y-31489D01*
X60331Y-31831D02*
X60293Y-31850D01*
X60217Y-31850D01*
X60179Y-31831D01*
X60160Y-31812D01*
X60141Y-31774D01*
X60141Y-31660D01*
X60160Y-31622D01*
X60179Y-31603D01*
X60217Y-31584D01*
X60293Y-31584D01*
X60331Y-31603D01*
X60674Y-31850D02*
X60674Y-31641D01*
X60655Y-31603D01*
X60617Y-31584D01*
X60541Y-31584D01*
X60503Y-31603D01*
X60674Y-31831D02*
X60636Y-31850D01*
X60541Y-31850D01*
X60503Y-31831D01*
X60484Y-31793D01*
X60484Y-31755D01*
X60503Y-31717D01*
X60541Y-31698D01*
X60636Y-31698D01*
X60674Y-31679D01*
X60808Y-31584D02*
X60960Y-31584D01*
X60865Y-31450D02*
X60865Y-31793D01*
X60884Y-31831D01*
X60922Y-31850D01*
X60960Y-31850D01*
X61246Y-31831D02*
X61208Y-31850D01*
X61131Y-31850D01*
X61093Y-31831D01*
X61074Y-31793D01*
X61074Y-31641D01*
X61093Y-31603D01*
X61131Y-31584D01*
X61208Y-31584D01*
X61246Y-31603D01*
X61265Y-31641D01*
X61265Y-31679D01*
X61074Y-31717D01*
X61608Y-31850D02*
X61608Y-31450D01*
X61608Y-31831D02*
X61569Y-31850D01*
X61493Y-31850D01*
X61455Y-31831D01*
X61436Y-31812D01*
X61417Y-31774D01*
X61417Y-31660D01*
X61436Y-31622D01*
X61455Y-31603D01*
X61493Y-31584D01*
X61569Y-31584D01*
X61608Y-31603D01*
X59093Y-32432D02*
X59074Y-32451D01*
X59017Y-32470D01*
X58979Y-32470D01*
X58922Y-32451D01*
X58884Y-32413D01*
X58865Y-32375D01*
X58846Y-32299D01*
X58846Y-32242D01*
X58865Y-32166D01*
X58884Y-32128D01*
X58922Y-32090D01*
X58979Y-32070D01*
X59017Y-32070D01*
X59074Y-32090D01*
X59093Y-32109D01*
X59265Y-32470D02*
X59265Y-32070D01*
X59436Y-32470D02*
X59436Y-32261D01*
X59417Y-32223D01*
X59379Y-32204D01*
X59322Y-32204D01*
X59284Y-32223D01*
X59265Y-32242D01*
X59798Y-32470D02*
X59798Y-32261D01*
X59779Y-32223D01*
X59741Y-32204D01*
X59665Y-32204D01*
X59627Y-32223D01*
X59798Y-32451D02*
X59760Y-32470D01*
X59665Y-32470D01*
X59627Y-32451D01*
X59608Y-32413D01*
X59608Y-32375D01*
X59627Y-32337D01*
X59665Y-32318D01*
X59760Y-32318D01*
X59798Y-32299D01*
X59989Y-32470D02*
X59989Y-32204D01*
X59989Y-32280D02*
X60008Y-32242D01*
X60027Y-32223D01*
X60065Y-32204D01*
X60103Y-32204D01*
X60408Y-32204D02*
X60408Y-32528D01*
X60389Y-32566D01*
X60369Y-32585D01*
X60331Y-32604D01*
X60274Y-32604D01*
X60236Y-32585D01*
X60408Y-32451D02*
X60369Y-32470D01*
X60293Y-32470D01*
X60255Y-32451D01*
X60236Y-32432D01*
X60217Y-32394D01*
X60217Y-32280D01*
X60236Y-32242D01*
X60255Y-32223D01*
X60293Y-32204D01*
X60369Y-32204D01*
X60408Y-32223D01*
X60750Y-32451D02*
X60712Y-32470D01*
X60636Y-32470D01*
X60598Y-32451D01*
X60579Y-32413D01*
X60579Y-32261D01*
X60598Y-32223D01*
X60636Y-32204D01*
X60712Y-32204D01*
X60750Y-32223D01*
X60769Y-32261D01*
X60769Y-32299D01*
X60579Y-32337D01*
X60941Y-32470D02*
X60941Y-32204D01*
X60941Y-32280D02*
X60960Y-32242D01*
X60979Y-32223D01*
X61017Y-32204D01*
X61055Y-32204D01*
X61493Y-32470D02*
X61493Y-32070D01*
X61646Y-32070D01*
X61684Y-32090D01*
X61703Y-32109D01*
X61722Y-32147D01*
X61722Y-32204D01*
X61703Y-32242D01*
X61684Y-32261D01*
X61646Y-32280D01*
X61493Y-32280D01*
X61950Y-32470D02*
X61912Y-32451D01*
X61893Y-32432D01*
X61874Y-32394D01*
X61874Y-32280D01*
X61893Y-32242D01*
X61912Y-32223D01*
X61950Y-32204D01*
X62008Y-32204D01*
X62046Y-32223D01*
X62065Y-32242D01*
X62084Y-32280D01*
X62084Y-32394D01*
X62065Y-32432D01*
X62046Y-32451D01*
X62008Y-32470D01*
X61950Y-32470D01*
X62255Y-32470D02*
X62255Y-32204D01*
X62255Y-32280D02*
X62274Y-32242D01*
X62293Y-32223D01*
X62331Y-32204D01*
X62369Y-32204D01*
X62446Y-32204D02*
X62598Y-32204D01*
X62503Y-32070D02*
X62503Y-32413D01*
X62522Y-32451D01*
X62560Y-32470D01*
X62598Y-32470D01*
G54D13*
X60035Y-49564D02*
X60035Y-49642D01*
X63185Y-49564D02*
X63185Y-49642D01*
G54D10*
X56885Y-45482D02*
X55845Y-45482D01*
X56865Y-38002D02*
X55845Y-38002D01*
X55203Y-45430D02*
X55203Y-38470D01*
X57566Y-38530D02*
X57566Y-45320D01*
G54D14*
X58305Y-39353D02*
X58305Y-39075D01*
X58305Y-39075D02*
X57755Y-39075D01*
X57755Y-39075D02*
X57755Y-39353D01*
X58305Y-40025D02*
X58305Y-39747D01*
X58305Y-40025D02*
X57755Y-40025D01*
X57755Y-40025D02*
X57755Y-39747D01*
X58295Y-40493D02*
X58295Y-40215D01*
X58295Y-40215D02*
X57745Y-40215D01*
X57745Y-40215D02*
X57745Y-40493D01*
X58295Y-41165D02*
X58295Y-40887D01*
X58295Y-41165D02*
X57745Y-41165D01*
X57745Y-41165D02*
X57745Y-40887D01*
X54955Y-40723D02*
X54955Y-40445D01*
X54955Y-40445D02*
X54405Y-40445D01*
X54405Y-40445D02*
X54405Y-40723D01*
X54955Y-41395D02*
X54955Y-41117D01*
X54955Y-41395D02*
X54405Y-41395D01*
X54405Y-41395D02*
X54405Y-41117D01*
X54955Y-41843D02*
X54955Y-41565D01*
X54955Y-41565D02*
X54405Y-41565D01*
X54405Y-41565D02*
X54405Y-41843D01*
X54955Y-42515D02*
X54955Y-42237D01*
X54955Y-42515D02*
X54405Y-42515D01*
X54405Y-42515D02*
X54405Y-42237D01*
X54405Y-39967D02*
X54405Y-40245D01*
X54405Y-40245D02*
X54955Y-40245D01*
X54955Y-40245D02*
X54955Y-39967D01*
X54405Y-39295D02*
X54405Y-39573D01*
X54405Y-39295D02*
X54955Y-39295D01*
X54955Y-39295D02*
X54955Y-39573D01*
X54405Y-38807D02*
X54405Y-39085D01*
X54405Y-39085D02*
X54955Y-39085D01*
X54955Y-39085D02*
X54955Y-38807D01*
X54405Y-38135D02*
X54405Y-38413D01*
X54405Y-38135D02*
X54955Y-38135D01*
X54955Y-38135D02*
X54955Y-38413D01*
X58345Y-43473D02*
X58345Y-43195D01*
X58345Y-43195D02*
X57795Y-43195D01*
X57795Y-43195D02*
X57795Y-43473D01*
X58345Y-44145D02*
X58345Y-43867D01*
X58345Y-44145D02*
X57795Y-44145D01*
X57795Y-44145D02*
X57795Y-43867D01*
X58335Y-44593D02*
X58335Y-44315D01*
X58335Y-44315D02*
X57785Y-44315D01*
X57785Y-44315D02*
X57785Y-44593D01*
X58335Y-45265D02*
X58335Y-44987D01*
X58335Y-45265D02*
X57785Y-45265D01*
X57785Y-45265D02*
X57785Y-44987D01*
X54935Y-43453D02*
X54935Y-43175D01*
X54935Y-43175D02*
X54385Y-43175D01*
X54385Y-43175D02*
X54385Y-43453D01*
X54935Y-44125D02*
X54935Y-43847D01*
X54935Y-44125D02*
X54385Y-44125D01*
X54385Y-44125D02*
X54385Y-43847D01*
X54935Y-44603D02*
X54935Y-44325D01*
X54935Y-44325D02*
X54385Y-44325D01*
X54385Y-44325D02*
X54385Y-44603D01*
X54935Y-45275D02*
X54935Y-44997D01*
X54935Y-45275D02*
X54385Y-45275D01*
X54385Y-45275D02*
X54385Y-44997D01*
X57800Y-36702D02*
X57800Y-36980D01*
X57800Y-36980D02*
X58350Y-36980D01*
X58350Y-36980D02*
X58350Y-36702D01*
X57800Y-36030D02*
X57800Y-36308D01*
X57800Y-36030D02*
X58350Y-36030D01*
X58350Y-36030D02*
X58350Y-36308D01*
X57810Y-35512D02*
X57810Y-35790D01*
X57810Y-35790D02*
X58360Y-35790D01*
X58360Y-35790D02*
X58360Y-35512D01*
X57810Y-34840D02*
X57810Y-35118D01*
X57810Y-34840D02*
X58360Y-34840D01*
X58360Y-34840D02*
X58360Y-35118D01*
X54335Y-36697D02*
X54335Y-36975D01*
X54335Y-36975D02*
X54885Y-36975D01*
X54885Y-36975D02*
X54885Y-36697D01*
X54335Y-36025D02*
X54335Y-36303D01*
X54335Y-36025D02*
X54885Y-36025D01*
X54885Y-36025D02*
X54885Y-36303D01*
X54315Y-35507D02*
X54315Y-35785D01*
X54315Y-35785D02*
X54865Y-35785D01*
X54865Y-35785D02*
X54865Y-35507D01*
X54315Y-34835D02*
X54315Y-35113D01*
X54315Y-34835D02*
X54865Y-34835D01*
X54865Y-34835D02*
X54865Y-35113D01*
G54D10*
X56850Y-37192D02*
X55810Y-37192D01*
X56830Y-29712D02*
X55810Y-29712D01*
X55168Y-37140D02*
X55168Y-30180D01*
X57531Y-30240D02*
X57531Y-37030D01*
G54D15*
X58520Y-39867D02*
X58520Y-39747D01*
X58720Y-39824D01*
X58520Y-39592D02*
X58520Y-39678D01*
X58615Y-39687D01*
X58606Y-39678D01*
X58596Y-39661D01*
X58596Y-39618D01*
X58606Y-39601D01*
X58615Y-39592D01*
X58634Y-39584D01*
X58682Y-39584D01*
X58701Y-39592D01*
X58710Y-39601D01*
X58720Y-39618D01*
X58720Y-39661D01*
X58710Y-39678D01*
X58701Y-39687D01*
X58701Y-39507D02*
X58710Y-39498D01*
X58720Y-39507D01*
X58710Y-39515D01*
X58701Y-39507D01*
X58720Y-39507D01*
X58520Y-39387D02*
X58520Y-39369D01*
X58530Y-39352D01*
X58539Y-39344D01*
X58558Y-39335D01*
X58596Y-39327D01*
X58644Y-39327D01*
X58682Y-39335D01*
X58701Y-39344D01*
X58710Y-39352D01*
X58720Y-39369D01*
X58720Y-39387D01*
X58710Y-39404D01*
X58701Y-39412D01*
X58682Y-39421D01*
X58644Y-39429D01*
X58596Y-39429D01*
X58558Y-39421D01*
X58539Y-39412D01*
X58530Y-39404D01*
X58520Y-39387D01*
X58720Y-39249D02*
X58520Y-39249D01*
X58644Y-39232D02*
X58720Y-39181D01*
X58587Y-39181D02*
X58663Y-39249D01*
X58597Y-40942D02*
X58730Y-40942D01*
X58520Y-40985D02*
X58663Y-41028D01*
X58663Y-40917D01*
X58730Y-40839D02*
X58730Y-40805D01*
X58720Y-40788D01*
X58711Y-40779D01*
X58682Y-40762D01*
X58644Y-40754D01*
X58568Y-40754D01*
X58549Y-40762D01*
X58540Y-40771D01*
X58530Y-40788D01*
X58530Y-40822D01*
X58540Y-40839D01*
X58549Y-40848D01*
X58568Y-40857D01*
X58616Y-40857D01*
X58635Y-40848D01*
X58644Y-40839D01*
X58654Y-40822D01*
X58654Y-40788D01*
X58644Y-40771D01*
X58635Y-40762D01*
X58616Y-40754D01*
X58711Y-40677D02*
X58720Y-40668D01*
X58730Y-40677D01*
X58720Y-40685D01*
X58711Y-40677D01*
X58730Y-40677D01*
X58730Y-40582D02*
X58730Y-40548D01*
X58720Y-40531D01*
X58711Y-40522D01*
X58682Y-40505D01*
X58644Y-40497D01*
X58568Y-40497D01*
X58549Y-40505D01*
X58540Y-40514D01*
X58530Y-40531D01*
X58530Y-40565D01*
X58540Y-40582D01*
X58549Y-40591D01*
X58568Y-40599D01*
X58616Y-40599D01*
X58635Y-40591D01*
X58644Y-40582D01*
X58654Y-40565D01*
X58654Y-40531D01*
X58644Y-40514D01*
X58635Y-40505D01*
X58616Y-40497D01*
X58730Y-40419D02*
X58530Y-40419D01*
X58654Y-40402D02*
X58730Y-40351D01*
X58597Y-40351D02*
X58673Y-40419D01*
X54097Y-41192D02*
X54230Y-41192D01*
X54020Y-41235D02*
X54163Y-41278D01*
X54163Y-41167D01*
X54030Y-41115D02*
X54030Y-41004D01*
X54106Y-41064D01*
X54106Y-41038D01*
X54116Y-41021D01*
X54125Y-41012D01*
X54144Y-41004D01*
X54192Y-41004D01*
X54211Y-41012D01*
X54220Y-41021D01*
X54230Y-41038D01*
X54230Y-41089D01*
X54220Y-41107D01*
X54211Y-41115D01*
X54211Y-40927D02*
X54220Y-40918D01*
X54230Y-40927D01*
X54220Y-40935D01*
X54211Y-40927D01*
X54230Y-40927D01*
X54049Y-40849D02*
X54040Y-40841D01*
X54030Y-40824D01*
X54030Y-40781D01*
X54040Y-40764D01*
X54049Y-40755D01*
X54068Y-40747D01*
X54087Y-40747D01*
X54116Y-40755D01*
X54230Y-40858D01*
X54230Y-40747D01*
X54230Y-40669D02*
X54030Y-40669D01*
X54154Y-40652D02*
X54230Y-40601D01*
X54097Y-40601D02*
X54173Y-40669D01*
X54127Y-42312D02*
X54260Y-42312D01*
X54050Y-42355D02*
X54193Y-42398D01*
X54193Y-42287D01*
X54260Y-42209D02*
X54260Y-42175D01*
X54250Y-42158D01*
X54241Y-42149D01*
X54212Y-42132D01*
X54174Y-42124D01*
X54098Y-42124D01*
X54079Y-42132D01*
X54070Y-42141D01*
X54060Y-42158D01*
X54060Y-42192D01*
X54070Y-42209D01*
X54079Y-42218D01*
X54098Y-42227D01*
X54146Y-42227D01*
X54165Y-42218D01*
X54174Y-42209D01*
X54184Y-42192D01*
X54184Y-42158D01*
X54174Y-42141D01*
X54165Y-42132D01*
X54146Y-42124D01*
X54241Y-42047D02*
X54250Y-42038D01*
X54260Y-42047D01*
X54250Y-42055D01*
X54241Y-42047D01*
X54260Y-42047D01*
X54260Y-41952D02*
X54260Y-41918D01*
X54250Y-41901D01*
X54241Y-41892D01*
X54212Y-41875D01*
X54174Y-41867D01*
X54098Y-41867D01*
X54079Y-41875D01*
X54070Y-41884D01*
X54060Y-41901D01*
X54060Y-41935D01*
X54070Y-41952D01*
X54079Y-41961D01*
X54098Y-41969D01*
X54146Y-41969D01*
X54165Y-41961D01*
X54174Y-41952D01*
X54184Y-41935D01*
X54184Y-41901D01*
X54174Y-41884D01*
X54165Y-41875D01*
X54146Y-41867D01*
X54260Y-41789D02*
X54060Y-41789D01*
X54184Y-41772D02*
X54260Y-41721D01*
X54127Y-41721D02*
X54203Y-41789D01*
X54030Y-40107D02*
X54030Y-39987D01*
X54230Y-40064D01*
X54030Y-39832D02*
X54030Y-39918D01*
X54125Y-39927D01*
X54116Y-39918D01*
X54106Y-39901D01*
X54106Y-39858D01*
X54116Y-39841D01*
X54125Y-39832D01*
X54144Y-39824D01*
X54192Y-39824D01*
X54211Y-39832D01*
X54220Y-39841D01*
X54230Y-39858D01*
X54230Y-39901D01*
X54220Y-39918D01*
X54211Y-39927D01*
X54211Y-39747D02*
X54220Y-39738D01*
X54230Y-39747D01*
X54220Y-39755D01*
X54211Y-39747D01*
X54230Y-39747D01*
X54030Y-39627D02*
X54030Y-39609D01*
X54040Y-39592D01*
X54049Y-39584D01*
X54068Y-39575D01*
X54106Y-39567D01*
X54154Y-39567D01*
X54192Y-39575D01*
X54211Y-39584D01*
X54220Y-39592D01*
X54230Y-39609D01*
X54230Y-39627D01*
X54220Y-39644D01*
X54211Y-39652D01*
X54192Y-39661D01*
X54154Y-39669D01*
X54106Y-39669D01*
X54068Y-39661D01*
X54049Y-39652D01*
X54040Y-39644D01*
X54030Y-39627D01*
X54230Y-39489D02*
X54030Y-39489D01*
X54154Y-39472D02*
X54230Y-39421D01*
X54097Y-39421D02*
X54173Y-39489D01*
X54117Y-38832D02*
X54250Y-38832D01*
X54040Y-38875D02*
X54183Y-38918D01*
X54183Y-38807D01*
X54250Y-38729D02*
X54250Y-38695D01*
X54240Y-38678D01*
X54231Y-38669D01*
X54202Y-38652D01*
X54164Y-38644D01*
X54088Y-38644D01*
X54069Y-38652D01*
X54060Y-38661D01*
X54050Y-38678D01*
X54050Y-38712D01*
X54060Y-38729D01*
X54069Y-38738D01*
X54088Y-38747D01*
X54136Y-38747D01*
X54155Y-38738D01*
X54164Y-38729D01*
X54174Y-38712D01*
X54174Y-38678D01*
X54164Y-38661D01*
X54155Y-38652D01*
X54136Y-38644D01*
X54231Y-38567D02*
X54240Y-38558D01*
X54250Y-38567D01*
X54240Y-38575D01*
X54231Y-38567D01*
X54250Y-38567D01*
X54250Y-38472D02*
X54250Y-38438D01*
X54240Y-38421D01*
X54231Y-38412D01*
X54202Y-38395D01*
X54164Y-38387D01*
X54088Y-38387D01*
X54069Y-38395D01*
X54060Y-38404D01*
X54050Y-38421D01*
X54050Y-38455D01*
X54060Y-38472D01*
X54069Y-38481D01*
X54088Y-38489D01*
X54136Y-38489D01*
X54155Y-38481D01*
X54164Y-38472D01*
X54174Y-38455D01*
X54174Y-38421D01*
X54164Y-38404D01*
X54155Y-38395D01*
X54136Y-38387D01*
X54250Y-38309D02*
X54050Y-38309D01*
X54174Y-38292D02*
X54250Y-38241D01*
X54117Y-38241D02*
X54193Y-38309D01*
X58617Y-43912D02*
X58750Y-43912D01*
X58540Y-43955D02*
X58683Y-43998D01*
X58683Y-43887D01*
X58550Y-43784D02*
X58550Y-43767D01*
X58560Y-43749D01*
X58569Y-43741D01*
X58588Y-43732D01*
X58626Y-43724D01*
X58674Y-43724D01*
X58712Y-43732D01*
X58731Y-43741D01*
X58740Y-43749D01*
X58750Y-43767D01*
X58750Y-43784D01*
X58740Y-43801D01*
X58731Y-43809D01*
X58712Y-43818D01*
X58674Y-43827D01*
X58626Y-43827D01*
X58588Y-43818D01*
X58569Y-43809D01*
X58560Y-43801D01*
X58550Y-43784D01*
X58731Y-43647D02*
X58740Y-43638D01*
X58750Y-43647D01*
X58740Y-43655D01*
X58731Y-43647D01*
X58750Y-43647D01*
X58569Y-43569D02*
X58560Y-43561D01*
X58550Y-43544D01*
X58550Y-43501D01*
X58560Y-43484D01*
X58569Y-43475D01*
X58588Y-43467D01*
X58607Y-43467D01*
X58636Y-43475D01*
X58750Y-43578D01*
X58750Y-43467D01*
X58750Y-43389D02*
X58550Y-43389D01*
X58674Y-43372D02*
X58750Y-43321D01*
X58617Y-43321D02*
X58693Y-43389D01*
X58607Y-45012D02*
X58740Y-45012D01*
X58530Y-45055D02*
X58673Y-45098D01*
X58673Y-44987D01*
X58740Y-44909D02*
X58740Y-44875D01*
X58730Y-44858D01*
X58721Y-44849D01*
X58692Y-44832D01*
X58654Y-44824D01*
X58578Y-44824D01*
X58559Y-44832D01*
X58550Y-44841D01*
X58540Y-44858D01*
X58540Y-44892D01*
X58550Y-44909D01*
X58559Y-44918D01*
X58578Y-44927D01*
X58626Y-44927D01*
X58645Y-44918D01*
X58654Y-44909D01*
X58664Y-44892D01*
X58664Y-44858D01*
X58654Y-44841D01*
X58645Y-44832D01*
X58626Y-44824D01*
X58721Y-44747D02*
X58730Y-44738D01*
X58740Y-44747D01*
X58730Y-44755D01*
X58721Y-44747D01*
X58740Y-44747D01*
X58740Y-44652D02*
X58740Y-44618D01*
X58730Y-44601D01*
X58721Y-44592D01*
X58692Y-44575D01*
X58654Y-44567D01*
X58578Y-44567D01*
X58559Y-44575D01*
X58550Y-44584D01*
X58540Y-44601D01*
X58540Y-44635D01*
X58550Y-44652D01*
X58559Y-44661D01*
X58578Y-44669D01*
X58626Y-44669D01*
X58645Y-44661D01*
X58654Y-44652D01*
X58664Y-44635D01*
X58664Y-44601D01*
X58654Y-44584D01*
X58645Y-44575D01*
X58626Y-44567D01*
X58740Y-44489D02*
X58540Y-44489D01*
X58664Y-44472D02*
X58740Y-44421D01*
X58607Y-44421D02*
X58683Y-44489D01*
X54087Y-43902D02*
X54220Y-43902D01*
X54010Y-43945D02*
X54153Y-43988D01*
X54153Y-43877D01*
X54020Y-43774D02*
X54020Y-43757D01*
X54030Y-43739D01*
X54039Y-43731D01*
X54058Y-43722D01*
X54096Y-43714D01*
X54144Y-43714D01*
X54182Y-43722D01*
X54201Y-43731D01*
X54210Y-43739D01*
X54220Y-43757D01*
X54220Y-43774D01*
X54210Y-43791D01*
X54201Y-43799D01*
X54182Y-43808D01*
X54144Y-43817D01*
X54096Y-43817D01*
X54058Y-43808D01*
X54039Y-43799D01*
X54030Y-43791D01*
X54020Y-43774D01*
X54201Y-43637D02*
X54210Y-43628D01*
X54220Y-43637D01*
X54210Y-43645D01*
X54201Y-43637D01*
X54220Y-43637D01*
X54039Y-43559D02*
X54030Y-43551D01*
X54020Y-43534D01*
X54020Y-43491D01*
X54030Y-43474D01*
X54039Y-43465D01*
X54058Y-43457D01*
X54077Y-43457D01*
X54106Y-43465D01*
X54220Y-43568D01*
X54220Y-43457D01*
X54220Y-43379D02*
X54020Y-43379D01*
X54144Y-43362D02*
X54220Y-43311D01*
X54087Y-43311D02*
X54163Y-43379D01*
X54077Y-45062D02*
X54210Y-45062D01*
X54000Y-45105D02*
X54143Y-45148D01*
X54143Y-45037D01*
X54210Y-44959D02*
X54210Y-44925D01*
X54200Y-44908D01*
X54191Y-44899D01*
X54162Y-44882D01*
X54124Y-44874D01*
X54048Y-44874D01*
X54029Y-44882D01*
X54020Y-44891D01*
X54010Y-44908D01*
X54010Y-44942D01*
X54020Y-44959D01*
X54029Y-44968D01*
X54048Y-44977D01*
X54096Y-44977D01*
X54115Y-44968D01*
X54124Y-44959D01*
X54134Y-44942D01*
X54134Y-44908D01*
X54124Y-44891D01*
X54115Y-44882D01*
X54096Y-44874D01*
X54191Y-44797D02*
X54200Y-44788D01*
X54210Y-44797D01*
X54200Y-44805D01*
X54191Y-44797D01*
X54210Y-44797D01*
X54210Y-44702D02*
X54210Y-44668D01*
X54200Y-44651D01*
X54191Y-44642D01*
X54162Y-44625D01*
X54124Y-44617D01*
X54048Y-44617D01*
X54029Y-44625D01*
X54020Y-44634D01*
X54010Y-44651D01*
X54010Y-44685D01*
X54020Y-44702D01*
X54029Y-44711D01*
X54048Y-44719D01*
X54096Y-44719D01*
X54115Y-44711D01*
X54124Y-44702D01*
X54134Y-44685D01*
X54134Y-44651D01*
X54124Y-44634D01*
X54115Y-44625D01*
X54096Y-44617D01*
X54210Y-44539D02*
X54010Y-44539D01*
X54134Y-44522D02*
X54210Y-44471D01*
X54077Y-44471D02*
X54153Y-44539D01*
X58540Y-36618D02*
X58540Y-36704D01*
X58635Y-36712D01*
X58626Y-36704D01*
X58616Y-36687D01*
X58616Y-36644D01*
X58626Y-36627D01*
X58635Y-36618D01*
X58654Y-36610D01*
X58702Y-36610D01*
X58721Y-36618D01*
X58730Y-36627D01*
X58740Y-36644D01*
X58740Y-36687D01*
X58730Y-36704D01*
X58721Y-36712D01*
X58721Y-36532D02*
X58730Y-36524D01*
X58740Y-36532D01*
X58730Y-36541D01*
X58721Y-36532D01*
X58740Y-36532D01*
X58740Y-36352D02*
X58740Y-36455D01*
X58740Y-36404D02*
X58540Y-36404D01*
X58569Y-36421D01*
X58588Y-36438D01*
X58597Y-36455D01*
X58740Y-36275D02*
X58540Y-36275D01*
X58664Y-36258D02*
X58740Y-36207D01*
X58607Y-36207D02*
X58683Y-36275D01*
X58720Y-35427D02*
X58720Y-35530D01*
X58720Y-35478D02*
X58520Y-35478D01*
X58549Y-35495D01*
X58568Y-35512D01*
X58577Y-35530D01*
X58520Y-35315D02*
X58520Y-35298D01*
X58530Y-35281D01*
X58539Y-35272D01*
X58558Y-35264D01*
X58596Y-35255D01*
X58644Y-35255D01*
X58682Y-35264D01*
X58701Y-35272D01*
X58710Y-35281D01*
X58720Y-35298D01*
X58720Y-35315D01*
X58710Y-35332D01*
X58701Y-35341D01*
X58682Y-35350D01*
X58644Y-35358D01*
X58596Y-35358D01*
X58558Y-35350D01*
X58539Y-35341D01*
X58530Y-35332D01*
X58520Y-35315D01*
X58720Y-35178D02*
X58520Y-35178D01*
X58644Y-35161D02*
X58720Y-35109D01*
X58587Y-35109D02*
X58663Y-35178D01*
X53930Y-36638D02*
X53930Y-36724D01*
X54025Y-36732D01*
X54016Y-36724D01*
X54006Y-36707D01*
X54006Y-36664D01*
X54016Y-36647D01*
X54025Y-36638D01*
X54044Y-36630D01*
X54092Y-36630D01*
X54111Y-36638D01*
X54120Y-36647D01*
X54130Y-36664D01*
X54130Y-36707D01*
X54120Y-36724D01*
X54111Y-36732D01*
X54111Y-36552D02*
X54120Y-36544D01*
X54130Y-36552D01*
X54120Y-36561D01*
X54111Y-36552D01*
X54130Y-36552D01*
X54130Y-36372D02*
X54130Y-36475D01*
X54130Y-36424D02*
X53930Y-36424D01*
X53959Y-36441D01*
X53978Y-36458D01*
X53987Y-36475D01*
X54130Y-36295D02*
X53930Y-36295D01*
X54054Y-36278D02*
X54130Y-36227D01*
X53997Y-36227D02*
X54073Y-36295D01*
X54120Y-35407D02*
X54120Y-35510D01*
X54120Y-35458D02*
X53920Y-35458D01*
X53949Y-35475D01*
X53968Y-35492D01*
X53977Y-35510D01*
X53920Y-35295D02*
X53920Y-35278D01*
X53930Y-35261D01*
X53939Y-35252D01*
X53958Y-35244D01*
X53996Y-35235D01*
X54044Y-35235D01*
X54082Y-35244D01*
X54101Y-35252D01*
X54110Y-35261D01*
X54120Y-35278D01*
X54120Y-35295D01*
X54110Y-35312D01*
X54101Y-35321D01*
X54082Y-35330D01*
X54044Y-35338D01*
X53996Y-35338D01*
X53958Y-35330D01*
X53939Y-35321D01*
X53930Y-35312D01*
X53920Y-35295D01*
X54120Y-35158D02*
X53920Y-35158D01*
X54044Y-35141D02*
X54120Y-35089D01*
X53987Y-35089D02*
X54063Y-35158D01*
M02*
