%FSLAX34Y34*%
G04 Gerber Fmt 3.4, Leading zero omitted, Abs format*
G04 (created by PCBNEW (2013-11-28 BZR 4510)-product) date Mon 24 Mar 2014 08:07:25 PM EDT*
%MOIN*%
G01*
G70*
G90*
G04 APERTURE LIST*
%ADD10C,0.005906*%
%ADD11C,0.006000*%
%ADD12C,0.011811*%
%ADD13C,0.012000*%
%ADD14C,0.000100*%
G04 APERTURE END LIST*
G54D10*
G54D11*
X53984Y-47468D02*
X54284Y-47468D01*
X54284Y-47354D01*
X54270Y-47325D01*
X54255Y-47311D01*
X54227Y-47297D01*
X54184Y-47297D01*
X54155Y-47311D01*
X54141Y-47325D01*
X54127Y-47354D01*
X54127Y-47468D01*
X54012Y-46997D02*
X53998Y-47011D01*
X53984Y-47054D01*
X53984Y-47082D01*
X53998Y-47125D01*
X54027Y-47154D01*
X54055Y-47168D01*
X54112Y-47182D01*
X54155Y-47182D01*
X54212Y-47168D01*
X54241Y-47154D01*
X54270Y-47125D01*
X54284Y-47082D01*
X54284Y-47054D01*
X54270Y-47011D01*
X54255Y-46997D01*
X54141Y-46768D02*
X54127Y-46725D01*
X54112Y-46711D01*
X54084Y-46697D01*
X54041Y-46697D01*
X54012Y-46711D01*
X53998Y-46725D01*
X53984Y-46754D01*
X53984Y-46868D01*
X54284Y-46868D01*
X54284Y-46768D01*
X54270Y-46740D01*
X54255Y-46725D01*
X54227Y-46711D01*
X54198Y-46711D01*
X54170Y-46725D01*
X54155Y-46740D01*
X54141Y-46768D01*
X54141Y-46868D01*
X53984Y-46340D02*
X54184Y-46340D01*
X54155Y-46340D02*
X54170Y-46325D01*
X54184Y-46297D01*
X54184Y-46254D01*
X54170Y-46225D01*
X54141Y-46211D01*
X53984Y-46211D01*
X54141Y-46211D02*
X54170Y-46197D01*
X54184Y-46168D01*
X54184Y-46125D01*
X54170Y-46097D01*
X54141Y-46082D01*
X53984Y-46082D01*
X53984Y-45811D02*
X54141Y-45811D01*
X54170Y-45825D01*
X54184Y-45854D01*
X54184Y-45911D01*
X54170Y-45940D01*
X53998Y-45811D02*
X53984Y-45840D01*
X53984Y-45911D01*
X53998Y-45940D01*
X54027Y-45954D01*
X54055Y-45954D01*
X54084Y-45940D01*
X54098Y-45911D01*
X54098Y-45840D01*
X54112Y-45811D01*
X53984Y-45540D02*
X54284Y-45540D01*
X53998Y-45540D02*
X53984Y-45568D01*
X53984Y-45625D01*
X53998Y-45654D01*
X54012Y-45668D01*
X54041Y-45682D01*
X54127Y-45682D01*
X54155Y-45668D01*
X54170Y-45654D01*
X54184Y-45625D01*
X54184Y-45568D01*
X54170Y-45540D01*
X53998Y-45282D02*
X53984Y-45311D01*
X53984Y-45368D01*
X53998Y-45397D01*
X54027Y-45411D01*
X54141Y-45411D01*
X54170Y-45397D01*
X54184Y-45368D01*
X54184Y-45311D01*
X54170Y-45282D01*
X54141Y-45268D01*
X54112Y-45268D01*
X54084Y-45411D01*
X53984Y-44911D02*
X54184Y-44911D01*
X54284Y-44911D02*
X54270Y-44925D01*
X54255Y-44911D01*
X54270Y-44897D01*
X54284Y-44911D01*
X54255Y-44911D01*
X54184Y-44768D02*
X53984Y-44768D01*
X54155Y-44768D02*
X54170Y-44754D01*
X54184Y-44725D01*
X54184Y-44682D01*
X54170Y-44654D01*
X54141Y-44640D01*
X53984Y-44640D01*
X54184Y-44311D02*
X54184Y-44197D01*
X54284Y-44268D02*
X54027Y-44268D01*
X53998Y-44254D01*
X53984Y-44225D01*
X53984Y-44197D01*
X53984Y-44097D02*
X54284Y-44097D01*
X53984Y-43968D02*
X54141Y-43968D01*
X54170Y-43982D01*
X54184Y-44011D01*
X54184Y-44054D01*
X54170Y-44082D01*
X54155Y-44097D01*
X53998Y-43711D02*
X53984Y-43739D01*
X53984Y-43797D01*
X53998Y-43825D01*
X54027Y-43839D01*
X54141Y-43839D01*
X54170Y-43825D01*
X54184Y-43797D01*
X54184Y-43739D01*
X54170Y-43711D01*
X54141Y-43697D01*
X54112Y-43697D01*
X54084Y-43839D01*
X54284Y-43339D02*
X54041Y-43339D01*
X54012Y-43325D01*
X53998Y-43311D01*
X53984Y-43282D01*
X53984Y-43225D01*
X53998Y-43197D01*
X54012Y-43182D01*
X54041Y-43168D01*
X54284Y-43168D01*
X53998Y-43039D02*
X53984Y-42997D01*
X53984Y-42925D01*
X53998Y-42897D01*
X54012Y-42882D01*
X54041Y-42868D01*
X54070Y-42868D01*
X54098Y-42882D01*
X54112Y-42897D01*
X54127Y-42925D01*
X54141Y-42982D01*
X54155Y-43011D01*
X54170Y-43025D01*
X54198Y-43039D01*
X54227Y-43039D01*
X54255Y-43025D01*
X54270Y-43011D01*
X54284Y-42982D01*
X54284Y-42911D01*
X54270Y-42868D01*
X54070Y-42754D02*
X54070Y-42611D01*
X53984Y-42782D02*
X54284Y-42682D01*
X53984Y-42582D01*
X53590Y-47482D02*
X53590Y-47340D01*
X53504Y-47511D02*
X53804Y-47411D01*
X53504Y-47311D01*
X53518Y-47225D02*
X53504Y-47197D01*
X53504Y-47140D01*
X53518Y-47111D01*
X53547Y-47097D01*
X53561Y-47097D01*
X53590Y-47111D01*
X53604Y-47140D01*
X53604Y-47182D01*
X53618Y-47211D01*
X53647Y-47225D01*
X53661Y-47225D01*
X53690Y-47211D01*
X53704Y-47182D01*
X53704Y-47140D01*
X53690Y-47111D01*
X53518Y-46982D02*
X53504Y-46954D01*
X53504Y-46897D01*
X53518Y-46868D01*
X53547Y-46854D01*
X53561Y-46854D01*
X53590Y-46868D01*
X53604Y-46897D01*
X53604Y-46940D01*
X53618Y-46968D01*
X53647Y-46982D01*
X53661Y-46982D01*
X53690Y-46968D01*
X53704Y-46940D01*
X53704Y-46897D01*
X53690Y-46868D01*
X53518Y-46611D02*
X53504Y-46640D01*
X53504Y-46697D01*
X53518Y-46725D01*
X53547Y-46740D01*
X53661Y-46740D01*
X53690Y-46725D01*
X53704Y-46697D01*
X53704Y-46640D01*
X53690Y-46611D01*
X53661Y-46597D01*
X53632Y-46597D01*
X53604Y-46740D01*
X53504Y-46468D02*
X53704Y-46468D01*
X53675Y-46468D02*
X53690Y-46454D01*
X53704Y-46425D01*
X53704Y-46382D01*
X53690Y-46354D01*
X53661Y-46340D01*
X53504Y-46340D01*
X53661Y-46340D02*
X53690Y-46325D01*
X53704Y-46297D01*
X53704Y-46254D01*
X53690Y-46225D01*
X53661Y-46211D01*
X53504Y-46211D01*
X53504Y-46068D02*
X53804Y-46068D01*
X53690Y-46068D02*
X53704Y-46040D01*
X53704Y-45982D01*
X53690Y-45954D01*
X53675Y-45940D01*
X53647Y-45925D01*
X53561Y-45925D01*
X53532Y-45940D01*
X53518Y-45954D01*
X53504Y-45982D01*
X53504Y-46040D01*
X53518Y-46068D01*
X53504Y-45754D02*
X53518Y-45782D01*
X53547Y-45797D01*
X53804Y-45797D01*
X53518Y-45525D02*
X53504Y-45554D01*
X53504Y-45611D01*
X53518Y-45639D01*
X53547Y-45654D01*
X53661Y-45654D01*
X53690Y-45639D01*
X53704Y-45611D01*
X53704Y-45554D01*
X53690Y-45525D01*
X53661Y-45511D01*
X53632Y-45511D01*
X53604Y-45654D01*
X53504Y-45254D02*
X53804Y-45254D01*
X53518Y-45254D02*
X53504Y-45282D01*
X53504Y-45339D01*
X53518Y-45368D01*
X53532Y-45382D01*
X53561Y-45397D01*
X53647Y-45397D01*
X53675Y-45382D01*
X53690Y-45368D01*
X53704Y-45339D01*
X53704Y-45282D01*
X53690Y-45254D01*
X53504Y-44882D02*
X53704Y-44882D01*
X53804Y-44882D02*
X53790Y-44897D01*
X53775Y-44882D01*
X53790Y-44868D01*
X53804Y-44882D01*
X53775Y-44882D01*
X53704Y-44739D02*
X53504Y-44739D01*
X53675Y-44739D02*
X53690Y-44725D01*
X53704Y-44697D01*
X53704Y-44654D01*
X53690Y-44625D01*
X53661Y-44611D01*
X53504Y-44611D01*
X53532Y-44068D02*
X53518Y-44082D01*
X53504Y-44125D01*
X53504Y-44154D01*
X53518Y-44197D01*
X53547Y-44225D01*
X53575Y-44239D01*
X53632Y-44254D01*
X53675Y-44254D01*
X53732Y-44239D01*
X53761Y-44225D01*
X53790Y-44197D01*
X53804Y-44154D01*
X53804Y-44125D01*
X53790Y-44082D01*
X53775Y-44068D01*
X53504Y-43811D02*
X53661Y-43811D01*
X53690Y-43825D01*
X53704Y-43854D01*
X53704Y-43911D01*
X53690Y-43939D01*
X53518Y-43811D02*
X53504Y-43839D01*
X53504Y-43911D01*
X53518Y-43939D01*
X53547Y-43954D01*
X53575Y-43954D01*
X53604Y-43939D01*
X53618Y-43911D01*
X53618Y-43839D01*
X53632Y-43811D01*
X53704Y-43668D02*
X53504Y-43668D01*
X53675Y-43668D02*
X53690Y-43654D01*
X53704Y-43625D01*
X53704Y-43582D01*
X53690Y-43554D01*
X53661Y-43539D01*
X53504Y-43539D01*
X53504Y-43268D02*
X53661Y-43268D01*
X53690Y-43282D01*
X53704Y-43311D01*
X53704Y-43368D01*
X53690Y-43397D01*
X53518Y-43268D02*
X53504Y-43297D01*
X53504Y-43368D01*
X53518Y-43397D01*
X53547Y-43411D01*
X53575Y-43411D01*
X53604Y-43397D01*
X53618Y-43368D01*
X53618Y-43297D01*
X53632Y-43268D01*
X53504Y-42997D02*
X53804Y-42997D01*
X53518Y-42997D02*
X53504Y-43025D01*
X53504Y-43082D01*
X53518Y-43111D01*
X53532Y-43125D01*
X53561Y-43139D01*
X53647Y-43139D01*
X53675Y-43125D01*
X53690Y-43111D01*
X53704Y-43082D01*
X53704Y-43025D01*
X53690Y-42997D01*
X53504Y-42725D02*
X53661Y-42725D01*
X53690Y-42739D01*
X53704Y-42768D01*
X53704Y-42825D01*
X53690Y-42854D01*
X53518Y-42725D02*
X53504Y-42754D01*
X53504Y-42825D01*
X53518Y-42854D01*
X53547Y-42868D01*
X53575Y-42868D01*
X53604Y-42854D01*
X53618Y-42825D01*
X53618Y-42754D01*
X53632Y-42725D01*
X53905Y-29711D02*
X53920Y-29697D01*
X53934Y-29668D01*
X53934Y-29597D01*
X53920Y-29568D01*
X53905Y-29554D01*
X53877Y-29539D01*
X53848Y-29539D01*
X53805Y-29554D01*
X53634Y-29725D01*
X53634Y-29539D01*
X53934Y-29354D02*
X53934Y-29325D01*
X53920Y-29297D01*
X53905Y-29282D01*
X53877Y-29268D01*
X53820Y-29254D01*
X53748Y-29254D01*
X53691Y-29268D01*
X53662Y-29282D01*
X53648Y-29297D01*
X53634Y-29325D01*
X53634Y-29354D01*
X53648Y-29382D01*
X53662Y-29397D01*
X53691Y-29411D01*
X53748Y-29425D01*
X53820Y-29425D01*
X53877Y-29411D01*
X53905Y-29397D01*
X53920Y-29382D01*
X53934Y-29354D01*
X53634Y-28968D02*
X53634Y-29139D01*
X53634Y-29054D02*
X53934Y-29054D01*
X53891Y-29082D01*
X53862Y-29111D01*
X53848Y-29139D01*
X53834Y-28711D02*
X53634Y-28711D01*
X53948Y-28782D02*
X53734Y-28854D01*
X53734Y-28668D01*
X53634Y-28325D02*
X53834Y-28325D01*
X53777Y-28325D02*
X53805Y-28311D01*
X53820Y-28297D01*
X53834Y-28268D01*
X53834Y-28240D01*
X53648Y-28025D02*
X53634Y-28054D01*
X53634Y-28111D01*
X53648Y-28140D01*
X53677Y-28154D01*
X53791Y-28154D01*
X53820Y-28140D01*
X53834Y-28111D01*
X53834Y-28054D01*
X53820Y-28025D01*
X53791Y-28011D01*
X53762Y-28011D01*
X53734Y-28154D01*
X53834Y-27911D02*
X53634Y-27840D01*
X53834Y-27768D01*
X53634Y-27497D02*
X53634Y-27668D01*
X53634Y-27582D02*
X53934Y-27582D01*
X53891Y-27611D01*
X53862Y-27640D01*
X53848Y-27668D01*
X53662Y-27368D02*
X53648Y-27354D01*
X53634Y-27368D01*
X53648Y-27382D01*
X53662Y-27368D01*
X53634Y-27368D01*
X53634Y-27068D02*
X53634Y-27240D01*
X53634Y-27154D02*
X53934Y-27154D01*
X53891Y-27182D01*
X53862Y-27211D01*
X53848Y-27240D01*
G54D12*
X60505Y-41625D02*
X60533Y-41681D01*
X60533Y-41766D01*
X60505Y-41850D01*
X60449Y-41906D01*
X60392Y-41934D01*
X60280Y-41962D01*
X60195Y-41962D01*
X60083Y-41934D01*
X60027Y-41906D01*
X59970Y-41850D01*
X59942Y-41766D01*
X59942Y-41709D01*
X59970Y-41625D01*
X59999Y-41597D01*
X60195Y-41597D01*
X60195Y-41709D01*
X59942Y-41091D02*
X60252Y-41091D01*
X60308Y-41119D01*
X60336Y-41175D01*
X60336Y-41288D01*
X60308Y-41344D01*
X59970Y-41091D02*
X59942Y-41147D01*
X59942Y-41288D01*
X59970Y-41344D01*
X60027Y-41372D01*
X60083Y-41372D01*
X60139Y-41344D01*
X60167Y-41288D01*
X60167Y-41147D01*
X60195Y-41091D01*
X59942Y-40725D02*
X59970Y-40781D01*
X60027Y-40809D01*
X60533Y-40809D01*
X60336Y-40556D02*
X59942Y-40416D01*
X60336Y-40275D01*
X59942Y-39797D02*
X60252Y-39797D01*
X60308Y-39825D01*
X60336Y-39881D01*
X60336Y-39994D01*
X60308Y-40050D01*
X59970Y-39797D02*
X59942Y-39853D01*
X59942Y-39994D01*
X59970Y-40050D01*
X60027Y-40078D01*
X60083Y-40078D01*
X60139Y-40050D01*
X60167Y-39994D01*
X60167Y-39853D01*
X60195Y-39797D01*
X60336Y-39516D02*
X59942Y-39516D01*
X60280Y-39516D02*
X60308Y-39488D01*
X60336Y-39432D01*
X60336Y-39347D01*
X60308Y-39291D01*
X60252Y-39263D01*
X59942Y-39263D01*
X60336Y-39066D02*
X60336Y-38841D01*
X60533Y-38982D02*
X60027Y-38982D01*
X59970Y-38953D01*
X59942Y-38897D01*
X59942Y-38841D01*
X59942Y-38194D02*
X60533Y-38194D01*
X60336Y-37913D02*
X59942Y-37913D01*
X60280Y-37913D02*
X60308Y-37885D01*
X60336Y-37829D01*
X60336Y-37744D01*
X60308Y-37688D01*
X60252Y-37660D01*
X59942Y-37660D01*
X59942Y-37126D02*
X60533Y-37126D01*
X59970Y-37126D02*
X59942Y-37182D01*
X59942Y-37294D01*
X59970Y-37351D01*
X59999Y-37379D01*
X60055Y-37407D01*
X60224Y-37407D01*
X60280Y-37379D01*
X60308Y-37351D01*
X60336Y-37294D01*
X60336Y-37182D01*
X60308Y-37126D01*
X60336Y-36591D02*
X59942Y-36591D01*
X60336Y-36844D02*
X60027Y-36844D01*
X59970Y-36816D01*
X59942Y-36760D01*
X59942Y-36676D01*
X59970Y-36619D01*
X59999Y-36591D01*
X59970Y-36338D02*
X59942Y-36282D01*
X59942Y-36169D01*
X59970Y-36113D01*
X60027Y-36085D01*
X60055Y-36085D01*
X60111Y-36113D01*
X60139Y-36169D01*
X60139Y-36254D01*
X60167Y-36310D01*
X60224Y-36338D01*
X60252Y-36338D01*
X60308Y-36310D01*
X60336Y-36254D01*
X60336Y-36169D01*
X60308Y-36113D01*
X60336Y-35916D02*
X60336Y-35691D01*
X60533Y-35832D02*
X60027Y-35832D01*
X59970Y-35804D01*
X59942Y-35748D01*
X59942Y-35691D01*
X59942Y-35495D02*
X60336Y-35495D01*
X60224Y-35495D02*
X60280Y-35466D01*
X60308Y-35438D01*
X60336Y-35382D01*
X60336Y-35326D01*
X59942Y-35129D02*
X60336Y-35129D01*
X60533Y-35129D02*
X60505Y-35157D01*
X60477Y-35129D01*
X60505Y-35101D01*
X60533Y-35129D01*
X60477Y-35129D01*
X59970Y-34623D02*
X59942Y-34679D01*
X59942Y-34791D01*
X59970Y-34848D01*
X60027Y-34876D01*
X60252Y-34876D01*
X60308Y-34848D01*
X60336Y-34791D01*
X60336Y-34679D01*
X60308Y-34623D01*
X60252Y-34595D01*
X60195Y-34595D01*
X60139Y-34876D01*
X59970Y-34370D02*
X59942Y-34313D01*
X59942Y-34201D01*
X59970Y-34145D01*
X60027Y-34117D01*
X60055Y-34117D01*
X60111Y-34145D01*
X60139Y-34201D01*
X60139Y-34285D01*
X60167Y-34342D01*
X60224Y-34370D01*
X60252Y-34370D01*
X60308Y-34342D01*
X60336Y-34285D01*
X60336Y-34201D01*
X60308Y-34145D01*
G54D13*
X62052Y-42237D02*
X61324Y-42237D01*
X61238Y-42194D01*
X61195Y-42151D01*
X61152Y-42065D01*
X61152Y-41894D01*
X61195Y-41808D01*
X61238Y-41765D01*
X61324Y-41722D01*
X62052Y-41722D01*
X61195Y-41337D02*
X61152Y-41208D01*
X61152Y-40994D01*
X61195Y-40908D01*
X61238Y-40865D01*
X61324Y-40822D01*
X61410Y-40822D01*
X61495Y-40865D01*
X61538Y-40908D01*
X61581Y-40994D01*
X61624Y-41165D01*
X61667Y-41251D01*
X61710Y-41294D01*
X61795Y-41337D01*
X61881Y-41337D01*
X61967Y-41294D01*
X62010Y-41251D01*
X62052Y-41165D01*
X62052Y-40951D01*
X62010Y-40822D01*
X61624Y-40137D02*
X61581Y-40008D01*
X61538Y-39965D01*
X61452Y-39922D01*
X61324Y-39922D01*
X61238Y-39965D01*
X61195Y-40008D01*
X61152Y-40094D01*
X61152Y-40437D01*
X62052Y-40437D01*
X62052Y-40137D01*
X62010Y-40051D01*
X61967Y-40008D01*
X61881Y-39965D01*
X61795Y-39965D01*
X61710Y-40008D01*
X61667Y-40051D01*
X61624Y-40137D01*
X61624Y-40437D01*
X62052Y-38937D02*
X61152Y-38722D01*
X61795Y-38551D01*
X61152Y-38380D01*
X62052Y-38165D01*
X61152Y-37822D02*
X61752Y-37822D01*
X61581Y-37822D02*
X61667Y-37780D01*
X61710Y-37737D01*
X61752Y-37651D01*
X61752Y-37565D01*
X61152Y-36880D02*
X61624Y-36880D01*
X61710Y-36922D01*
X61752Y-37008D01*
X61752Y-37180D01*
X61710Y-37265D01*
X61195Y-36880D02*
X61152Y-36965D01*
X61152Y-37180D01*
X61195Y-37265D01*
X61281Y-37308D01*
X61367Y-37308D01*
X61452Y-37265D01*
X61495Y-37180D01*
X61495Y-36965D01*
X61538Y-36880D01*
X61752Y-36451D02*
X60852Y-36451D01*
X61710Y-36451D02*
X61752Y-36365D01*
X61752Y-36194D01*
X61710Y-36108D01*
X61667Y-36065D01*
X61581Y-36022D01*
X61324Y-36022D01*
X61238Y-36065D01*
X61195Y-36108D01*
X61152Y-36194D01*
X61152Y-36365D01*
X61195Y-36451D01*
X61752Y-35637D02*
X60852Y-35637D01*
X61710Y-35637D02*
X61752Y-35551D01*
X61752Y-35380D01*
X61710Y-35294D01*
X61667Y-35251D01*
X61581Y-35208D01*
X61324Y-35208D01*
X61238Y-35251D01*
X61195Y-35294D01*
X61152Y-35380D01*
X61152Y-35551D01*
X61195Y-35637D01*
X61195Y-34480D02*
X61152Y-34565D01*
X61152Y-34737D01*
X61195Y-34822D01*
X61281Y-34865D01*
X61624Y-34865D01*
X61710Y-34822D01*
X61752Y-34737D01*
X61752Y-34565D01*
X61710Y-34480D01*
X61624Y-34437D01*
X61538Y-34437D01*
X61452Y-34865D01*
X61152Y-34051D02*
X61752Y-34051D01*
X61581Y-34051D02*
X61667Y-34008D01*
X61710Y-33965D01*
X61752Y-33880D01*
X61752Y-33794D01*
G54D14*
G36*
X58023Y-37349D02*
X58028Y-37358D01*
X58041Y-37379D01*
X58060Y-37408D01*
X58083Y-37443D01*
X58107Y-37477D01*
X58126Y-37506D01*
X58139Y-37526D01*
X58143Y-37534D01*
X58142Y-37539D01*
X58134Y-37555D01*
X58121Y-37579D01*
X58114Y-37593D01*
X58105Y-37615D01*
X58103Y-37626D01*
X58106Y-37628D01*
X58122Y-37636D01*
X58151Y-37648D01*
X58189Y-37665D01*
X58234Y-37684D01*
X58282Y-37704D01*
X58330Y-37725D01*
X58377Y-37744D01*
X58419Y-37761D01*
X58453Y-37775D01*
X58477Y-37784D01*
X58487Y-37787D01*
X58489Y-37786D01*
X58500Y-37775D01*
X58514Y-37756D01*
X58548Y-37715D01*
X58599Y-37674D01*
X58657Y-37649D01*
X58722Y-37640D01*
X58781Y-37647D01*
X58838Y-37671D01*
X58890Y-37711D01*
X58928Y-37760D01*
X58953Y-37816D01*
X58961Y-37880D01*
X58954Y-37941D01*
X58931Y-37999D01*
X58891Y-38051D01*
X58866Y-38073D01*
X58814Y-38103D01*
X58758Y-38120D01*
X58744Y-38122D01*
X58682Y-38119D01*
X58623Y-38101D01*
X58571Y-38069D01*
X58527Y-38024D01*
X58523Y-38018D01*
X58508Y-37997D01*
X58497Y-37983D01*
X58488Y-37972D01*
X58299Y-38050D01*
X58269Y-38063D01*
X58218Y-38084D01*
X58173Y-38103D01*
X58138Y-38119D01*
X58114Y-38129D01*
X58105Y-38134D01*
X58104Y-38134D01*
X58103Y-38141D01*
X58108Y-38155D01*
X58121Y-38182D01*
X58130Y-38199D01*
X58140Y-38219D01*
X58143Y-38228D01*
X58139Y-38236D01*
X58127Y-38255D01*
X58108Y-38283D01*
X58085Y-38317D01*
X58063Y-38349D01*
X58044Y-38378D01*
X58030Y-38400D01*
X58024Y-38410D01*
X58024Y-38412D01*
X58029Y-38421D01*
X58044Y-38438D01*
X58068Y-38464D01*
X58104Y-38500D01*
X58109Y-38506D01*
X58140Y-38536D01*
X58165Y-38560D01*
X58183Y-38576D01*
X58192Y-38582D01*
X58192Y-38582D01*
X58202Y-38577D01*
X58223Y-38563D01*
X58253Y-38544D01*
X58288Y-38520D01*
X58379Y-38457D01*
X58465Y-38492D01*
X58491Y-38502D01*
X58523Y-38516D01*
X58545Y-38526D01*
X58555Y-38531D01*
X58559Y-38540D01*
X58564Y-38563D01*
X58571Y-38597D01*
X58579Y-38638D01*
X58586Y-38677D01*
X58593Y-38711D01*
X58598Y-38737D01*
X58600Y-38748D01*
X58601Y-38751D01*
X58607Y-38753D01*
X58619Y-38754D01*
X58640Y-38755D01*
X58673Y-38756D01*
X58722Y-38756D01*
X58727Y-38756D01*
X58773Y-38755D01*
X58810Y-38755D01*
X58833Y-38753D01*
X58843Y-38752D01*
X58843Y-38752D01*
X58845Y-38741D01*
X58851Y-38716D01*
X58857Y-38681D01*
X58865Y-38640D01*
X58866Y-38637D01*
X58874Y-38596D01*
X58881Y-38561D01*
X58887Y-38537D01*
X58890Y-38526D01*
X58893Y-38524D01*
X58909Y-38516D01*
X58935Y-38504D01*
X58966Y-38490D01*
X58999Y-38477D01*
X59028Y-38465D01*
X59050Y-38457D01*
X59060Y-38455D01*
X59060Y-38455D01*
X59070Y-38461D01*
X59091Y-38475D01*
X59121Y-38495D01*
X59156Y-38520D01*
X59159Y-38521D01*
X59194Y-38545D01*
X59224Y-38565D01*
X59245Y-38577D01*
X59254Y-38582D01*
X59255Y-38582D01*
X59265Y-38574D01*
X59285Y-38556D01*
X59312Y-38531D01*
X59343Y-38500D01*
X59353Y-38490D01*
X59386Y-38456D01*
X59408Y-38433D01*
X59419Y-38418D01*
X59422Y-38411D01*
X59422Y-38411D01*
X59415Y-38400D01*
X59401Y-38378D01*
X59380Y-38348D01*
X59356Y-38312D01*
X59355Y-38310D01*
X59331Y-38275D01*
X59311Y-38246D01*
X59297Y-38225D01*
X59292Y-38216D01*
X59292Y-38214D01*
X59296Y-38200D01*
X59305Y-38175D01*
X59317Y-38145D01*
X59330Y-38112D01*
X59342Y-38083D01*
X59352Y-38061D01*
X59358Y-38050D01*
X59359Y-38050D01*
X59371Y-38046D01*
X59397Y-38040D01*
X59433Y-38033D01*
X59476Y-38025D01*
X59483Y-38023D01*
X59525Y-38015D01*
X59559Y-38009D01*
X59583Y-38004D01*
X59593Y-38001D01*
X59594Y-37995D01*
X59596Y-37975D01*
X59597Y-37944D01*
X59597Y-37906D01*
X59597Y-37867D01*
X59596Y-37828D01*
X59595Y-37795D01*
X59593Y-37772D01*
X59591Y-37762D01*
X59591Y-37761D01*
X59578Y-37758D01*
X59552Y-37752D01*
X59515Y-37745D01*
X59472Y-37736D01*
X59465Y-37735D01*
X59423Y-37727D01*
X59389Y-37720D01*
X59365Y-37715D01*
X59356Y-37712D01*
X59354Y-37709D01*
X59347Y-37691D01*
X59335Y-37663D01*
X59321Y-37629D01*
X59289Y-37549D01*
X59356Y-37450D01*
X59362Y-37441D01*
X59386Y-37406D01*
X59406Y-37377D01*
X59419Y-37357D01*
X59423Y-37348D01*
X59423Y-37348D01*
X59414Y-37338D01*
X59396Y-37318D01*
X59370Y-37292D01*
X59339Y-37261D01*
X59317Y-37238D01*
X59289Y-37211D01*
X59270Y-37193D01*
X59258Y-37184D01*
X59251Y-37181D01*
X59246Y-37182D01*
X59236Y-37188D01*
X59215Y-37202D01*
X59185Y-37223D01*
X59150Y-37247D01*
X59121Y-37266D01*
X59088Y-37288D01*
X59064Y-37302D01*
X59053Y-37306D01*
X59048Y-37305D01*
X59029Y-37298D01*
X59000Y-37287D01*
X58965Y-37272D01*
X58887Y-37238D01*
X58877Y-37187D01*
X58872Y-37156D01*
X58863Y-37112D01*
X58855Y-37071D01*
X58843Y-37006D01*
X58606Y-37004D01*
X58602Y-37014D01*
X58599Y-37024D01*
X58594Y-37048D01*
X58587Y-37082D01*
X58579Y-37122D01*
X58573Y-37156D01*
X58566Y-37191D01*
X58561Y-37216D01*
X58559Y-37227D01*
X58555Y-37230D01*
X58539Y-37238D01*
X58512Y-37251D01*
X58480Y-37264D01*
X58447Y-37278D01*
X58416Y-37290D01*
X58393Y-37299D01*
X58380Y-37302D01*
X58371Y-37297D01*
X58351Y-37284D01*
X58322Y-37265D01*
X58288Y-37242D01*
X58253Y-37218D01*
X58224Y-37198D01*
X58203Y-37185D01*
X58193Y-37179D01*
X58186Y-37182D01*
X58170Y-37195D01*
X58143Y-37221D01*
X58105Y-37260D01*
X58099Y-37266D01*
X58069Y-37297D01*
X58045Y-37323D01*
X58029Y-37341D01*
X58023Y-37349D01*
X58023Y-37349D01*
G37*
M02*
