%FSLAX34Y34*%
G04 Gerber Fmt 3.4, Leading zero omitted, Abs format*
G04 (created by PCBNEW (2013-11-28 BZR 4510)-product) date Sat 18 Jan 2014 11:30:59 AM EST*
%MOIN*%
G01*
G70*
G90*
G04 APERTURE LIST*
%ADD10C,0.005906*%
%ADD11C,0.006000*%
%ADD12C,0.011811*%
%ADD13C,0.003900*%
%ADD14C,0.005000*%
%ADD15C,0.004500*%
G04 APERTURE END LIST*
G54D10*
G54D11*
X59867Y-44086D02*
X60057Y-44086D01*
X59829Y-44200D02*
X59962Y-43800D01*
X60095Y-44200D01*
X60229Y-43934D02*
X60229Y-44334D01*
X60229Y-43953D02*
X60267Y-43934D01*
X60343Y-43934D01*
X60381Y-43953D01*
X60400Y-43972D01*
X60419Y-44010D01*
X60419Y-44124D01*
X60400Y-44162D01*
X60381Y-44181D01*
X60343Y-44200D01*
X60267Y-44200D01*
X60229Y-44181D01*
X60590Y-43934D02*
X60590Y-44334D01*
X60590Y-43953D02*
X60629Y-43934D01*
X60705Y-43934D01*
X60743Y-43953D01*
X60762Y-43972D01*
X60781Y-44010D01*
X60781Y-44124D01*
X60762Y-44162D01*
X60743Y-44181D01*
X60705Y-44200D01*
X60629Y-44200D01*
X60590Y-44181D01*
X61010Y-44200D02*
X60971Y-44181D01*
X60952Y-44143D01*
X60952Y-43800D01*
X61314Y-44181D02*
X61276Y-44200D01*
X61200Y-44200D01*
X61162Y-44181D01*
X61143Y-44143D01*
X61143Y-43991D01*
X61162Y-43953D01*
X61200Y-43934D01*
X61276Y-43934D01*
X61314Y-43953D01*
X61333Y-43991D01*
X61333Y-44029D01*
X61143Y-44067D01*
X61790Y-43839D02*
X61810Y-43820D01*
X61848Y-43800D01*
X61943Y-43800D01*
X61981Y-43820D01*
X62000Y-43839D01*
X62019Y-43877D01*
X62019Y-43915D01*
X62000Y-43972D01*
X61771Y-44200D01*
X62019Y-44200D01*
X62190Y-44162D02*
X62210Y-44181D01*
X62190Y-44200D01*
X62171Y-44181D01*
X62190Y-44162D01*
X62190Y-44200D01*
X62571Y-43800D02*
X62381Y-43800D01*
X62362Y-43991D01*
X62381Y-43972D01*
X62419Y-43953D01*
X62514Y-43953D01*
X62552Y-43972D01*
X62571Y-43991D01*
X62590Y-44029D01*
X62590Y-44124D01*
X62571Y-44162D01*
X62552Y-44181D01*
X62514Y-44200D01*
X62419Y-44200D01*
X62381Y-44181D01*
X62362Y-44162D01*
X62743Y-44086D02*
X62933Y-44086D01*
X62705Y-44200D02*
X62838Y-43800D01*
X62971Y-44200D01*
X59857Y-42416D02*
X60047Y-42416D01*
X59819Y-42530D02*
X59952Y-42130D01*
X60085Y-42530D01*
X60219Y-42264D02*
X60219Y-42664D01*
X60219Y-42283D02*
X60257Y-42264D01*
X60333Y-42264D01*
X60371Y-42283D01*
X60390Y-42302D01*
X60409Y-42340D01*
X60409Y-42454D01*
X60390Y-42492D01*
X60371Y-42511D01*
X60333Y-42530D01*
X60257Y-42530D01*
X60219Y-42511D01*
X60580Y-42264D02*
X60580Y-42664D01*
X60580Y-42283D02*
X60619Y-42264D01*
X60695Y-42264D01*
X60733Y-42283D01*
X60752Y-42302D01*
X60771Y-42340D01*
X60771Y-42454D01*
X60752Y-42492D01*
X60733Y-42511D01*
X60695Y-42530D01*
X60619Y-42530D01*
X60580Y-42511D01*
X61000Y-42530D02*
X60961Y-42511D01*
X60942Y-42473D01*
X60942Y-42130D01*
X61304Y-42511D02*
X61266Y-42530D01*
X61190Y-42530D01*
X61152Y-42511D01*
X61133Y-42473D01*
X61133Y-42321D01*
X61152Y-42283D01*
X61190Y-42264D01*
X61266Y-42264D01*
X61304Y-42283D01*
X61323Y-42321D01*
X61323Y-42359D01*
X61133Y-42397D01*
X61780Y-42169D02*
X61800Y-42150D01*
X61838Y-42130D01*
X61933Y-42130D01*
X61971Y-42150D01*
X61990Y-42169D01*
X62009Y-42207D01*
X62009Y-42245D01*
X61990Y-42302D01*
X61761Y-42530D01*
X62009Y-42530D01*
X62180Y-42492D02*
X62200Y-42511D01*
X62180Y-42530D01*
X62161Y-42511D01*
X62180Y-42492D01*
X62180Y-42530D01*
X62580Y-42530D02*
X62352Y-42530D01*
X62466Y-42530D02*
X62466Y-42130D01*
X62428Y-42188D01*
X62390Y-42226D01*
X62352Y-42245D01*
X62733Y-42416D02*
X62923Y-42416D01*
X62695Y-42530D02*
X62828Y-42130D01*
X62961Y-42530D01*
X59848Y-40806D02*
X60039Y-40806D01*
X59810Y-40920D02*
X59943Y-40520D01*
X60077Y-40920D01*
X60210Y-40654D02*
X60210Y-41054D01*
X60210Y-40673D02*
X60248Y-40654D01*
X60324Y-40654D01*
X60362Y-40673D01*
X60381Y-40692D01*
X60400Y-40730D01*
X60400Y-40844D01*
X60381Y-40882D01*
X60362Y-40901D01*
X60324Y-40920D01*
X60248Y-40920D01*
X60210Y-40901D01*
X60572Y-40654D02*
X60572Y-41054D01*
X60572Y-40673D02*
X60610Y-40654D01*
X60686Y-40654D01*
X60724Y-40673D01*
X60743Y-40692D01*
X60762Y-40730D01*
X60762Y-40844D01*
X60743Y-40882D01*
X60724Y-40901D01*
X60686Y-40920D01*
X60610Y-40920D01*
X60572Y-40901D01*
X60991Y-40920D02*
X60953Y-40901D01*
X60934Y-40863D01*
X60934Y-40520D01*
X61296Y-40901D02*
X61258Y-40920D01*
X61181Y-40920D01*
X61143Y-40901D01*
X61124Y-40863D01*
X61124Y-40711D01*
X61143Y-40673D01*
X61181Y-40654D01*
X61258Y-40654D01*
X61296Y-40673D01*
X61315Y-40711D01*
X61315Y-40749D01*
X61124Y-40787D01*
X62000Y-40920D02*
X61772Y-40920D01*
X61886Y-40920D02*
X61886Y-40520D01*
X61848Y-40578D01*
X61810Y-40616D01*
X61772Y-40635D01*
X62153Y-40806D02*
X62343Y-40806D01*
X62115Y-40920D02*
X62248Y-40520D01*
X62381Y-40920D01*
X60119Y-35830D02*
X60195Y-35830D01*
X60233Y-35850D01*
X60271Y-35888D01*
X60290Y-35964D01*
X60290Y-36097D01*
X60271Y-36173D01*
X60233Y-36211D01*
X60195Y-36230D01*
X60119Y-36230D01*
X60080Y-36211D01*
X60042Y-36173D01*
X60023Y-36097D01*
X60023Y-35964D01*
X60042Y-35888D01*
X60080Y-35850D01*
X60119Y-35830D01*
X60461Y-35964D02*
X60461Y-36364D01*
X60461Y-35983D02*
X60500Y-35964D01*
X60576Y-35964D01*
X60614Y-35983D01*
X60633Y-36002D01*
X60652Y-36040D01*
X60652Y-36154D01*
X60633Y-36192D01*
X60614Y-36211D01*
X60576Y-36230D01*
X60500Y-36230D01*
X60461Y-36211D01*
X60976Y-36211D02*
X60938Y-36230D01*
X60861Y-36230D01*
X60823Y-36211D01*
X60804Y-36173D01*
X60804Y-36021D01*
X60823Y-35983D01*
X60861Y-35964D01*
X60938Y-35964D01*
X60976Y-35983D01*
X60995Y-36021D01*
X60995Y-36059D01*
X60804Y-36097D01*
X61166Y-35964D02*
X61166Y-36230D01*
X61166Y-36002D02*
X61185Y-35983D01*
X61223Y-35964D01*
X61280Y-35964D01*
X61319Y-35983D01*
X61338Y-36021D01*
X61338Y-36230D01*
X62061Y-36192D02*
X62042Y-36211D01*
X61985Y-36230D01*
X61947Y-36230D01*
X61890Y-36211D01*
X61852Y-36173D01*
X61833Y-36135D01*
X61814Y-36059D01*
X61814Y-36002D01*
X61833Y-35926D01*
X61852Y-35888D01*
X61890Y-35850D01*
X61947Y-35830D01*
X61985Y-35830D01*
X62042Y-35850D01*
X62061Y-35869D01*
X62233Y-36230D02*
X62233Y-35964D01*
X62233Y-35830D02*
X62214Y-35850D01*
X62233Y-35869D01*
X62252Y-35850D01*
X62233Y-35830D01*
X62233Y-35869D01*
X62423Y-36230D02*
X62423Y-35964D01*
X62423Y-36040D02*
X62442Y-36002D01*
X62461Y-35983D01*
X62500Y-35964D01*
X62538Y-35964D01*
X62842Y-36211D02*
X62804Y-36230D01*
X62728Y-36230D01*
X62690Y-36211D01*
X62671Y-36192D01*
X62652Y-36154D01*
X62652Y-36040D01*
X62671Y-36002D01*
X62690Y-35983D01*
X62728Y-35964D01*
X62804Y-35964D01*
X62842Y-35983D01*
X63185Y-35964D02*
X63185Y-36230D01*
X63014Y-35964D02*
X63014Y-36173D01*
X63033Y-36211D01*
X63071Y-36230D01*
X63128Y-36230D01*
X63166Y-36211D01*
X63185Y-36192D01*
X63376Y-36230D02*
X63376Y-35964D01*
X63376Y-35830D02*
X63357Y-35850D01*
X63376Y-35869D01*
X63395Y-35850D01*
X63376Y-35830D01*
X63376Y-35869D01*
X63509Y-35964D02*
X63661Y-35964D01*
X63566Y-35830D02*
X63566Y-36173D01*
X63585Y-36211D01*
X63623Y-36230D01*
X63661Y-36230D01*
G54D12*
X57820Y-28917D02*
X57820Y-28326D01*
X57961Y-28326D01*
X58045Y-28354D01*
X58101Y-28410D01*
X58129Y-28467D01*
X58157Y-28579D01*
X58157Y-28664D01*
X58129Y-28776D01*
X58101Y-28832D01*
X58045Y-28889D01*
X57961Y-28917D01*
X57820Y-28917D01*
X58635Y-28889D02*
X58579Y-28917D01*
X58467Y-28917D01*
X58411Y-28889D01*
X58382Y-28832D01*
X58382Y-28607D01*
X58411Y-28551D01*
X58467Y-28523D01*
X58579Y-28523D01*
X58635Y-28551D01*
X58664Y-28607D01*
X58664Y-28664D01*
X58382Y-28720D01*
X58860Y-28523D02*
X59001Y-28917D01*
X59142Y-28523D01*
X59367Y-28917D02*
X59367Y-28523D01*
X59367Y-28326D02*
X59339Y-28354D01*
X59367Y-28382D01*
X59395Y-28354D01*
X59367Y-28326D01*
X59367Y-28382D01*
X59901Y-28889D02*
X59845Y-28917D01*
X59732Y-28917D01*
X59676Y-28889D01*
X59648Y-28860D01*
X59620Y-28804D01*
X59620Y-28635D01*
X59648Y-28579D01*
X59676Y-28551D01*
X59732Y-28523D01*
X59845Y-28523D01*
X59901Y-28551D01*
X60379Y-28889D02*
X60323Y-28917D01*
X60210Y-28917D01*
X60154Y-28889D01*
X60126Y-28832D01*
X60126Y-28607D01*
X60154Y-28551D01*
X60210Y-28523D01*
X60323Y-28523D01*
X60379Y-28551D01*
X60407Y-28607D01*
X60407Y-28664D01*
X60126Y-28720D01*
X58032Y-46767D02*
X58032Y-46176D01*
X58257Y-46176D01*
X58314Y-46204D01*
X58342Y-46232D01*
X58370Y-46289D01*
X58370Y-46373D01*
X58342Y-46429D01*
X58314Y-46457D01*
X58257Y-46485D01*
X58032Y-46485D01*
X58707Y-46767D02*
X58651Y-46739D01*
X58623Y-46710D01*
X58595Y-46654D01*
X58595Y-46485D01*
X58623Y-46429D01*
X58651Y-46401D01*
X58707Y-46373D01*
X58792Y-46373D01*
X58848Y-46401D01*
X58876Y-46429D01*
X58904Y-46485D01*
X58904Y-46654D01*
X58876Y-46710D01*
X58848Y-46739D01*
X58792Y-46767D01*
X58707Y-46767D01*
X59101Y-46373D02*
X59214Y-46767D01*
X59326Y-46485D01*
X59439Y-46767D01*
X59551Y-46373D01*
X60001Y-46739D02*
X59945Y-46767D01*
X59832Y-46767D01*
X59776Y-46739D01*
X59748Y-46682D01*
X59748Y-46457D01*
X59776Y-46401D01*
X59832Y-46373D01*
X59945Y-46373D01*
X60001Y-46401D01*
X60029Y-46457D01*
X60029Y-46514D01*
X59748Y-46570D01*
X60282Y-46767D02*
X60282Y-46373D01*
X60282Y-46485D02*
X60310Y-46429D01*
X60338Y-46401D01*
X60395Y-46373D01*
X60451Y-46373D01*
G54D11*
X60006Y-34501D02*
X60063Y-34520D01*
X60159Y-34520D01*
X60197Y-34501D01*
X60216Y-34482D01*
X60235Y-34444D01*
X60235Y-34406D01*
X60216Y-34368D01*
X60197Y-34349D01*
X60159Y-34330D01*
X60082Y-34311D01*
X60044Y-34292D01*
X60025Y-34273D01*
X60006Y-34235D01*
X60006Y-34197D01*
X60025Y-34159D01*
X60044Y-34140D01*
X60082Y-34120D01*
X60178Y-34120D01*
X60235Y-34140D01*
X60463Y-34520D02*
X60425Y-34501D01*
X60406Y-34482D01*
X60387Y-34444D01*
X60387Y-34330D01*
X60406Y-34292D01*
X60425Y-34273D01*
X60463Y-34254D01*
X60520Y-34254D01*
X60559Y-34273D01*
X60578Y-34292D01*
X60597Y-34330D01*
X60597Y-34444D01*
X60578Y-34482D01*
X60559Y-34501D01*
X60520Y-34520D01*
X60463Y-34520D01*
X60768Y-34254D02*
X60768Y-34520D01*
X60768Y-34292D02*
X60787Y-34273D01*
X60825Y-34254D01*
X60882Y-34254D01*
X60920Y-34273D01*
X60940Y-34311D01*
X60940Y-34520D01*
X61092Y-34254D02*
X61187Y-34520D01*
X61282Y-34254D02*
X61187Y-34520D01*
X61149Y-34616D01*
X61130Y-34635D01*
X61092Y-34654D01*
X59843Y-39246D02*
X60033Y-39246D01*
X59805Y-39360D02*
X59938Y-38960D01*
X60071Y-39360D01*
X60205Y-39094D02*
X60205Y-39494D01*
X60205Y-39113D02*
X60243Y-39094D01*
X60319Y-39094D01*
X60357Y-39113D01*
X60376Y-39132D01*
X60395Y-39170D01*
X60395Y-39284D01*
X60376Y-39322D01*
X60357Y-39341D01*
X60319Y-39360D01*
X60243Y-39360D01*
X60205Y-39341D01*
X60567Y-39094D02*
X60567Y-39494D01*
X60567Y-39113D02*
X60605Y-39094D01*
X60681Y-39094D01*
X60719Y-39113D01*
X60738Y-39132D01*
X60757Y-39170D01*
X60757Y-39284D01*
X60738Y-39322D01*
X60719Y-39341D01*
X60681Y-39360D01*
X60605Y-39360D01*
X60567Y-39341D01*
X60986Y-39360D02*
X60948Y-39341D01*
X60929Y-39303D01*
X60929Y-38960D01*
X61290Y-39341D02*
X61252Y-39360D01*
X61176Y-39360D01*
X61138Y-39341D01*
X61119Y-39303D01*
X61119Y-39151D01*
X61138Y-39113D01*
X61176Y-39094D01*
X61252Y-39094D01*
X61290Y-39113D01*
X61310Y-39151D01*
X61310Y-39189D01*
X61119Y-39227D01*
X61976Y-38960D02*
X61786Y-38960D01*
X61767Y-39151D01*
X61786Y-39132D01*
X61824Y-39113D01*
X61919Y-39113D01*
X61957Y-39132D01*
X61976Y-39151D01*
X61995Y-39189D01*
X61995Y-39284D01*
X61976Y-39322D01*
X61957Y-39341D01*
X61919Y-39360D01*
X61824Y-39360D01*
X61786Y-39341D01*
X61767Y-39322D01*
X62243Y-38960D02*
X62281Y-38960D01*
X62319Y-38980D01*
X62338Y-38999D01*
X62357Y-39037D01*
X62376Y-39113D01*
X62376Y-39208D01*
X62357Y-39284D01*
X62338Y-39322D01*
X62319Y-39341D01*
X62281Y-39360D01*
X62243Y-39360D01*
X62205Y-39341D01*
X62186Y-39322D01*
X62167Y-39284D01*
X62148Y-39208D01*
X62148Y-39113D01*
X62167Y-39037D01*
X62186Y-38999D01*
X62205Y-38980D01*
X62243Y-38960D01*
X62624Y-38960D02*
X62662Y-38960D01*
X62700Y-38980D01*
X62719Y-38999D01*
X62738Y-39037D01*
X62757Y-39113D01*
X62757Y-39208D01*
X62738Y-39284D01*
X62719Y-39322D01*
X62700Y-39341D01*
X62662Y-39360D01*
X62624Y-39360D01*
X62586Y-39341D01*
X62567Y-39322D01*
X62548Y-39284D01*
X62529Y-39208D01*
X62529Y-39113D01*
X62548Y-39037D01*
X62567Y-38999D01*
X62586Y-38980D01*
X62624Y-38960D01*
X62929Y-39360D02*
X62929Y-39094D01*
X62929Y-39132D02*
X62948Y-39113D01*
X62986Y-39094D01*
X63043Y-39094D01*
X63081Y-39113D01*
X63100Y-39151D01*
X63100Y-39360D01*
X63100Y-39151D02*
X63119Y-39113D01*
X63157Y-39094D01*
X63214Y-39094D01*
X63252Y-39113D01*
X63271Y-39151D01*
X63271Y-39360D01*
X63443Y-39246D02*
X63633Y-39246D01*
X63405Y-39360D02*
X63538Y-38960D01*
X63671Y-39360D01*
X60027Y-32586D02*
X60217Y-32586D01*
X59989Y-32700D02*
X60122Y-32300D01*
X60255Y-32700D01*
X60389Y-32434D02*
X60389Y-32834D01*
X60389Y-32453D02*
X60427Y-32434D01*
X60503Y-32434D01*
X60541Y-32453D01*
X60560Y-32472D01*
X60579Y-32510D01*
X60579Y-32624D01*
X60560Y-32662D01*
X60541Y-32681D01*
X60503Y-32700D01*
X60427Y-32700D01*
X60389Y-32681D01*
X60750Y-32434D02*
X60750Y-32834D01*
X60750Y-32453D02*
X60789Y-32434D01*
X60865Y-32434D01*
X60903Y-32453D01*
X60922Y-32472D01*
X60941Y-32510D01*
X60941Y-32624D01*
X60922Y-32662D01*
X60903Y-32681D01*
X60865Y-32700D01*
X60789Y-32700D01*
X60750Y-32681D01*
X61170Y-32700D02*
X61131Y-32681D01*
X61112Y-32643D01*
X61112Y-32300D01*
X61474Y-32681D02*
X61436Y-32700D01*
X61360Y-32700D01*
X61322Y-32681D01*
X61303Y-32643D01*
X61303Y-32491D01*
X61322Y-32453D01*
X61360Y-32434D01*
X61436Y-32434D01*
X61474Y-32453D01*
X61493Y-32491D01*
X61493Y-32529D01*
X61303Y-32567D01*
X59935Y-30650D02*
X59935Y-30250D01*
X60030Y-30250D01*
X60087Y-30270D01*
X60125Y-30308D01*
X60144Y-30346D01*
X60163Y-30422D01*
X60163Y-30479D01*
X60144Y-30555D01*
X60125Y-30593D01*
X60087Y-30631D01*
X60030Y-30650D01*
X59935Y-30650D01*
X60487Y-30631D02*
X60449Y-30650D01*
X60373Y-30650D01*
X60335Y-30631D01*
X60316Y-30593D01*
X60316Y-30441D01*
X60335Y-30403D01*
X60373Y-30384D01*
X60449Y-30384D01*
X60487Y-30403D01*
X60506Y-30441D01*
X60506Y-30479D01*
X60316Y-30517D01*
X60849Y-30650D02*
X60849Y-30250D01*
X60849Y-30631D02*
X60811Y-30650D01*
X60735Y-30650D01*
X60697Y-30631D01*
X60678Y-30612D01*
X60659Y-30574D01*
X60659Y-30460D01*
X60678Y-30422D01*
X60697Y-30403D01*
X60735Y-30384D01*
X60811Y-30384D01*
X60849Y-30403D01*
X61040Y-30650D02*
X61040Y-30384D01*
X61040Y-30250D02*
X61020Y-30270D01*
X61040Y-30289D01*
X61059Y-30270D01*
X61040Y-30250D01*
X61040Y-30289D01*
X61401Y-30631D02*
X61363Y-30650D01*
X61287Y-30650D01*
X61249Y-30631D01*
X61230Y-30612D01*
X61211Y-30574D01*
X61211Y-30460D01*
X61230Y-30422D01*
X61249Y-30403D01*
X61287Y-30384D01*
X61363Y-30384D01*
X61401Y-30403D01*
X61744Y-30650D02*
X61744Y-30441D01*
X61725Y-30403D01*
X61687Y-30384D01*
X61611Y-30384D01*
X61573Y-30403D01*
X61744Y-30631D02*
X61706Y-30650D01*
X61611Y-30650D01*
X61573Y-30631D01*
X61554Y-30593D01*
X61554Y-30555D01*
X61573Y-30517D01*
X61611Y-30498D01*
X61706Y-30498D01*
X61744Y-30479D01*
X61878Y-30384D02*
X62030Y-30384D01*
X61935Y-30250D02*
X61935Y-30593D01*
X61954Y-30631D01*
X61992Y-30650D01*
X62030Y-30650D01*
X62316Y-30631D02*
X62278Y-30650D01*
X62201Y-30650D01*
X62163Y-30631D01*
X62144Y-30593D01*
X62144Y-30441D01*
X62163Y-30403D01*
X62201Y-30384D01*
X62278Y-30384D01*
X62316Y-30403D01*
X62335Y-30441D01*
X62335Y-30479D01*
X62144Y-30517D01*
X62678Y-30650D02*
X62678Y-30250D01*
X62678Y-30631D02*
X62639Y-30650D01*
X62563Y-30650D01*
X62525Y-30631D01*
X62506Y-30612D01*
X62487Y-30574D01*
X62487Y-30460D01*
X62506Y-30422D01*
X62525Y-30403D01*
X62563Y-30384D01*
X62639Y-30384D01*
X62678Y-30403D01*
X60163Y-31232D02*
X60144Y-31251D01*
X60087Y-31270D01*
X60049Y-31270D01*
X59992Y-31251D01*
X59954Y-31213D01*
X59935Y-31175D01*
X59916Y-31099D01*
X59916Y-31042D01*
X59935Y-30966D01*
X59954Y-30928D01*
X59992Y-30890D01*
X60049Y-30870D01*
X60087Y-30870D01*
X60144Y-30890D01*
X60163Y-30909D01*
X60335Y-31270D02*
X60335Y-30870D01*
X60506Y-31270D02*
X60506Y-31061D01*
X60487Y-31023D01*
X60449Y-31004D01*
X60392Y-31004D01*
X60354Y-31023D01*
X60335Y-31042D01*
X60868Y-31270D02*
X60868Y-31061D01*
X60849Y-31023D01*
X60811Y-31004D01*
X60735Y-31004D01*
X60697Y-31023D01*
X60868Y-31251D02*
X60830Y-31270D01*
X60735Y-31270D01*
X60697Y-31251D01*
X60678Y-31213D01*
X60678Y-31175D01*
X60697Y-31137D01*
X60735Y-31118D01*
X60830Y-31118D01*
X60868Y-31099D01*
X61059Y-31270D02*
X61059Y-31004D01*
X61059Y-31080D02*
X61078Y-31042D01*
X61097Y-31023D01*
X61135Y-31004D01*
X61173Y-31004D01*
X61478Y-31004D02*
X61478Y-31328D01*
X61459Y-31366D01*
X61439Y-31385D01*
X61401Y-31404D01*
X61344Y-31404D01*
X61306Y-31385D01*
X61478Y-31251D02*
X61439Y-31270D01*
X61363Y-31270D01*
X61325Y-31251D01*
X61306Y-31232D01*
X61287Y-31194D01*
X61287Y-31080D01*
X61306Y-31042D01*
X61325Y-31023D01*
X61363Y-31004D01*
X61439Y-31004D01*
X61478Y-31023D01*
X61820Y-31251D02*
X61782Y-31270D01*
X61706Y-31270D01*
X61668Y-31251D01*
X61649Y-31213D01*
X61649Y-31061D01*
X61668Y-31023D01*
X61706Y-31004D01*
X61782Y-31004D01*
X61820Y-31023D01*
X61839Y-31061D01*
X61839Y-31099D01*
X61649Y-31137D01*
X62011Y-31270D02*
X62011Y-31004D01*
X62011Y-31080D02*
X62030Y-31042D01*
X62049Y-31023D01*
X62087Y-31004D01*
X62125Y-31004D01*
X62563Y-31270D02*
X62563Y-30870D01*
X62716Y-30870D01*
X62754Y-30890D01*
X62773Y-30909D01*
X62792Y-30947D01*
X62792Y-31004D01*
X62773Y-31042D01*
X62754Y-31061D01*
X62716Y-31080D01*
X62563Y-31080D01*
X63020Y-31270D02*
X62982Y-31251D01*
X62963Y-31232D01*
X62944Y-31194D01*
X62944Y-31080D01*
X62963Y-31042D01*
X62982Y-31023D01*
X63020Y-31004D01*
X63078Y-31004D01*
X63116Y-31023D01*
X63135Y-31042D01*
X63154Y-31080D01*
X63154Y-31194D01*
X63135Y-31232D01*
X63116Y-31251D01*
X63078Y-31270D01*
X63020Y-31270D01*
X63325Y-31270D02*
X63325Y-31004D01*
X63325Y-31080D02*
X63344Y-31042D01*
X63363Y-31023D01*
X63401Y-31004D01*
X63439Y-31004D01*
X63516Y-31004D02*
X63668Y-31004D01*
X63573Y-30870D02*
X63573Y-31213D01*
X63592Y-31251D01*
X63630Y-31270D01*
X63668Y-31270D01*
G54D13*
X60545Y-51234D02*
X60545Y-51312D01*
X63695Y-51234D02*
X63695Y-51312D01*
G54D10*
X56885Y-45482D02*
X55845Y-45482D01*
X56865Y-38002D02*
X55845Y-38002D01*
X55203Y-45430D02*
X55203Y-38470D01*
X57566Y-38530D02*
X57566Y-45320D01*
G54D14*
X58305Y-39353D02*
X58305Y-39075D01*
X58305Y-39075D02*
X57755Y-39075D01*
X57755Y-39075D02*
X57755Y-39353D01*
X58305Y-40025D02*
X58305Y-39747D01*
X58305Y-40025D02*
X57755Y-40025D01*
X57755Y-40025D02*
X57755Y-39747D01*
X58295Y-40493D02*
X58295Y-40215D01*
X58295Y-40215D02*
X57745Y-40215D01*
X57745Y-40215D02*
X57745Y-40493D01*
X58295Y-41165D02*
X58295Y-40887D01*
X58295Y-41165D02*
X57745Y-41165D01*
X57745Y-41165D02*
X57745Y-40887D01*
X54955Y-40723D02*
X54955Y-40445D01*
X54955Y-40445D02*
X54405Y-40445D01*
X54405Y-40445D02*
X54405Y-40723D01*
X54955Y-41395D02*
X54955Y-41117D01*
X54955Y-41395D02*
X54405Y-41395D01*
X54405Y-41395D02*
X54405Y-41117D01*
X54955Y-41843D02*
X54955Y-41565D01*
X54955Y-41565D02*
X54405Y-41565D01*
X54405Y-41565D02*
X54405Y-41843D01*
X54955Y-42515D02*
X54955Y-42237D01*
X54955Y-42515D02*
X54405Y-42515D01*
X54405Y-42515D02*
X54405Y-42237D01*
X54405Y-39967D02*
X54405Y-40245D01*
X54405Y-40245D02*
X54955Y-40245D01*
X54955Y-40245D02*
X54955Y-39967D01*
X54405Y-39295D02*
X54405Y-39573D01*
X54405Y-39295D02*
X54955Y-39295D01*
X54955Y-39295D02*
X54955Y-39573D01*
X54405Y-38807D02*
X54405Y-39085D01*
X54405Y-39085D02*
X54955Y-39085D01*
X54955Y-39085D02*
X54955Y-38807D01*
X54405Y-38135D02*
X54405Y-38413D01*
X54405Y-38135D02*
X54955Y-38135D01*
X54955Y-38135D02*
X54955Y-38413D01*
X58345Y-43473D02*
X58345Y-43195D01*
X58345Y-43195D02*
X57795Y-43195D01*
X57795Y-43195D02*
X57795Y-43473D01*
X58345Y-44145D02*
X58345Y-43867D01*
X58345Y-44145D02*
X57795Y-44145D01*
X57795Y-44145D02*
X57795Y-43867D01*
X58335Y-44593D02*
X58335Y-44315D01*
X58335Y-44315D02*
X57785Y-44315D01*
X57785Y-44315D02*
X57785Y-44593D01*
X58335Y-45265D02*
X58335Y-44987D01*
X58335Y-45265D02*
X57785Y-45265D01*
X57785Y-45265D02*
X57785Y-44987D01*
X54935Y-43453D02*
X54935Y-43175D01*
X54935Y-43175D02*
X54385Y-43175D01*
X54385Y-43175D02*
X54385Y-43453D01*
X54935Y-44125D02*
X54935Y-43847D01*
X54935Y-44125D02*
X54385Y-44125D01*
X54385Y-44125D02*
X54385Y-43847D01*
X54935Y-44603D02*
X54935Y-44325D01*
X54935Y-44325D02*
X54385Y-44325D01*
X54385Y-44325D02*
X54385Y-44603D01*
X54935Y-45275D02*
X54935Y-44997D01*
X54935Y-45275D02*
X54385Y-45275D01*
X54385Y-45275D02*
X54385Y-44997D01*
X57800Y-36702D02*
X57800Y-36980D01*
X57800Y-36980D02*
X58350Y-36980D01*
X58350Y-36980D02*
X58350Y-36702D01*
X57800Y-36030D02*
X57800Y-36308D01*
X57800Y-36030D02*
X58350Y-36030D01*
X58350Y-36030D02*
X58350Y-36308D01*
X57810Y-35512D02*
X57810Y-35790D01*
X57810Y-35790D02*
X58360Y-35790D01*
X58360Y-35790D02*
X58360Y-35512D01*
X57810Y-34840D02*
X57810Y-35118D01*
X57810Y-34840D02*
X58360Y-34840D01*
X58360Y-34840D02*
X58360Y-35118D01*
X54335Y-36697D02*
X54335Y-36975D01*
X54335Y-36975D02*
X54885Y-36975D01*
X54885Y-36975D02*
X54885Y-36697D01*
X54335Y-36025D02*
X54335Y-36303D01*
X54335Y-36025D02*
X54885Y-36025D01*
X54885Y-36025D02*
X54885Y-36303D01*
X54315Y-35507D02*
X54315Y-35785D01*
X54315Y-35785D02*
X54865Y-35785D01*
X54865Y-35785D02*
X54865Y-35507D01*
X54315Y-34835D02*
X54315Y-35113D01*
X54315Y-34835D02*
X54865Y-34835D01*
X54865Y-34835D02*
X54865Y-35113D01*
G54D10*
X56850Y-37192D02*
X55810Y-37192D01*
X56830Y-29712D02*
X55810Y-29712D01*
X55168Y-37140D02*
X55168Y-30180D01*
X57531Y-30240D02*
X57531Y-37030D01*
G54D15*
X58520Y-39867D02*
X58520Y-39747D01*
X58720Y-39824D01*
X58520Y-39592D02*
X58520Y-39678D01*
X58615Y-39687D01*
X58606Y-39678D01*
X58596Y-39661D01*
X58596Y-39618D01*
X58606Y-39601D01*
X58615Y-39592D01*
X58634Y-39584D01*
X58682Y-39584D01*
X58701Y-39592D01*
X58710Y-39601D01*
X58720Y-39618D01*
X58720Y-39661D01*
X58710Y-39678D01*
X58701Y-39687D01*
X58701Y-39507D02*
X58710Y-39498D01*
X58720Y-39507D01*
X58710Y-39515D01*
X58701Y-39507D01*
X58720Y-39507D01*
X58520Y-39387D02*
X58520Y-39369D01*
X58530Y-39352D01*
X58539Y-39344D01*
X58558Y-39335D01*
X58596Y-39327D01*
X58644Y-39327D01*
X58682Y-39335D01*
X58701Y-39344D01*
X58710Y-39352D01*
X58720Y-39369D01*
X58720Y-39387D01*
X58710Y-39404D01*
X58701Y-39412D01*
X58682Y-39421D01*
X58644Y-39429D01*
X58596Y-39429D01*
X58558Y-39421D01*
X58539Y-39412D01*
X58530Y-39404D01*
X58520Y-39387D01*
X58720Y-39249D02*
X58520Y-39249D01*
X58644Y-39232D02*
X58720Y-39181D01*
X58587Y-39181D02*
X58663Y-39249D01*
X58597Y-40942D02*
X58730Y-40942D01*
X58520Y-40985D02*
X58663Y-41028D01*
X58663Y-40917D01*
X58730Y-40839D02*
X58730Y-40805D01*
X58720Y-40788D01*
X58711Y-40779D01*
X58682Y-40762D01*
X58644Y-40754D01*
X58568Y-40754D01*
X58549Y-40762D01*
X58540Y-40771D01*
X58530Y-40788D01*
X58530Y-40822D01*
X58540Y-40839D01*
X58549Y-40848D01*
X58568Y-40857D01*
X58616Y-40857D01*
X58635Y-40848D01*
X58644Y-40839D01*
X58654Y-40822D01*
X58654Y-40788D01*
X58644Y-40771D01*
X58635Y-40762D01*
X58616Y-40754D01*
X58711Y-40677D02*
X58720Y-40668D01*
X58730Y-40677D01*
X58720Y-40685D01*
X58711Y-40677D01*
X58730Y-40677D01*
X58730Y-40582D02*
X58730Y-40548D01*
X58720Y-40531D01*
X58711Y-40522D01*
X58682Y-40505D01*
X58644Y-40497D01*
X58568Y-40497D01*
X58549Y-40505D01*
X58540Y-40514D01*
X58530Y-40531D01*
X58530Y-40565D01*
X58540Y-40582D01*
X58549Y-40591D01*
X58568Y-40599D01*
X58616Y-40599D01*
X58635Y-40591D01*
X58644Y-40582D01*
X58654Y-40565D01*
X58654Y-40531D01*
X58644Y-40514D01*
X58635Y-40505D01*
X58616Y-40497D01*
X58730Y-40419D02*
X58530Y-40419D01*
X58654Y-40402D02*
X58730Y-40351D01*
X58597Y-40351D02*
X58673Y-40419D01*
X54097Y-41192D02*
X54230Y-41192D01*
X54020Y-41235D02*
X54163Y-41278D01*
X54163Y-41167D01*
X54030Y-41115D02*
X54030Y-41004D01*
X54106Y-41064D01*
X54106Y-41038D01*
X54116Y-41021D01*
X54125Y-41012D01*
X54144Y-41004D01*
X54192Y-41004D01*
X54211Y-41012D01*
X54220Y-41021D01*
X54230Y-41038D01*
X54230Y-41089D01*
X54220Y-41107D01*
X54211Y-41115D01*
X54211Y-40927D02*
X54220Y-40918D01*
X54230Y-40927D01*
X54220Y-40935D01*
X54211Y-40927D01*
X54230Y-40927D01*
X54049Y-40849D02*
X54040Y-40841D01*
X54030Y-40824D01*
X54030Y-40781D01*
X54040Y-40764D01*
X54049Y-40755D01*
X54068Y-40747D01*
X54087Y-40747D01*
X54116Y-40755D01*
X54230Y-40858D01*
X54230Y-40747D01*
X54230Y-40669D02*
X54030Y-40669D01*
X54154Y-40652D02*
X54230Y-40601D01*
X54097Y-40601D02*
X54173Y-40669D01*
X54127Y-42312D02*
X54260Y-42312D01*
X54050Y-42355D02*
X54193Y-42398D01*
X54193Y-42287D01*
X54260Y-42209D02*
X54260Y-42175D01*
X54250Y-42158D01*
X54241Y-42149D01*
X54212Y-42132D01*
X54174Y-42124D01*
X54098Y-42124D01*
X54079Y-42132D01*
X54070Y-42141D01*
X54060Y-42158D01*
X54060Y-42192D01*
X54070Y-42209D01*
X54079Y-42218D01*
X54098Y-42227D01*
X54146Y-42227D01*
X54165Y-42218D01*
X54174Y-42209D01*
X54184Y-42192D01*
X54184Y-42158D01*
X54174Y-42141D01*
X54165Y-42132D01*
X54146Y-42124D01*
X54241Y-42047D02*
X54250Y-42038D01*
X54260Y-42047D01*
X54250Y-42055D01*
X54241Y-42047D01*
X54260Y-42047D01*
X54260Y-41952D02*
X54260Y-41918D01*
X54250Y-41901D01*
X54241Y-41892D01*
X54212Y-41875D01*
X54174Y-41867D01*
X54098Y-41867D01*
X54079Y-41875D01*
X54070Y-41884D01*
X54060Y-41901D01*
X54060Y-41935D01*
X54070Y-41952D01*
X54079Y-41961D01*
X54098Y-41969D01*
X54146Y-41969D01*
X54165Y-41961D01*
X54174Y-41952D01*
X54184Y-41935D01*
X54184Y-41901D01*
X54174Y-41884D01*
X54165Y-41875D01*
X54146Y-41867D01*
X54260Y-41789D02*
X54060Y-41789D01*
X54184Y-41772D02*
X54260Y-41721D01*
X54127Y-41721D02*
X54203Y-41789D01*
X54030Y-40107D02*
X54030Y-39987D01*
X54230Y-40064D01*
X54030Y-39832D02*
X54030Y-39918D01*
X54125Y-39927D01*
X54116Y-39918D01*
X54106Y-39901D01*
X54106Y-39858D01*
X54116Y-39841D01*
X54125Y-39832D01*
X54144Y-39824D01*
X54192Y-39824D01*
X54211Y-39832D01*
X54220Y-39841D01*
X54230Y-39858D01*
X54230Y-39901D01*
X54220Y-39918D01*
X54211Y-39927D01*
X54211Y-39747D02*
X54220Y-39738D01*
X54230Y-39747D01*
X54220Y-39755D01*
X54211Y-39747D01*
X54230Y-39747D01*
X54030Y-39627D02*
X54030Y-39609D01*
X54040Y-39592D01*
X54049Y-39584D01*
X54068Y-39575D01*
X54106Y-39567D01*
X54154Y-39567D01*
X54192Y-39575D01*
X54211Y-39584D01*
X54220Y-39592D01*
X54230Y-39609D01*
X54230Y-39627D01*
X54220Y-39644D01*
X54211Y-39652D01*
X54192Y-39661D01*
X54154Y-39669D01*
X54106Y-39669D01*
X54068Y-39661D01*
X54049Y-39652D01*
X54040Y-39644D01*
X54030Y-39627D01*
X54230Y-39489D02*
X54030Y-39489D01*
X54154Y-39472D02*
X54230Y-39421D01*
X54097Y-39421D02*
X54173Y-39489D01*
X54117Y-38832D02*
X54250Y-38832D01*
X54040Y-38875D02*
X54183Y-38918D01*
X54183Y-38807D01*
X54250Y-38729D02*
X54250Y-38695D01*
X54240Y-38678D01*
X54231Y-38669D01*
X54202Y-38652D01*
X54164Y-38644D01*
X54088Y-38644D01*
X54069Y-38652D01*
X54060Y-38661D01*
X54050Y-38678D01*
X54050Y-38712D01*
X54060Y-38729D01*
X54069Y-38738D01*
X54088Y-38747D01*
X54136Y-38747D01*
X54155Y-38738D01*
X54164Y-38729D01*
X54174Y-38712D01*
X54174Y-38678D01*
X54164Y-38661D01*
X54155Y-38652D01*
X54136Y-38644D01*
X54231Y-38567D02*
X54240Y-38558D01*
X54250Y-38567D01*
X54240Y-38575D01*
X54231Y-38567D01*
X54250Y-38567D01*
X54250Y-38472D02*
X54250Y-38438D01*
X54240Y-38421D01*
X54231Y-38412D01*
X54202Y-38395D01*
X54164Y-38387D01*
X54088Y-38387D01*
X54069Y-38395D01*
X54060Y-38404D01*
X54050Y-38421D01*
X54050Y-38455D01*
X54060Y-38472D01*
X54069Y-38481D01*
X54088Y-38489D01*
X54136Y-38489D01*
X54155Y-38481D01*
X54164Y-38472D01*
X54174Y-38455D01*
X54174Y-38421D01*
X54164Y-38404D01*
X54155Y-38395D01*
X54136Y-38387D01*
X54250Y-38309D02*
X54050Y-38309D01*
X54174Y-38292D02*
X54250Y-38241D01*
X54117Y-38241D02*
X54193Y-38309D01*
X58617Y-43912D02*
X58750Y-43912D01*
X58540Y-43955D02*
X58683Y-43998D01*
X58683Y-43887D01*
X58550Y-43784D02*
X58550Y-43767D01*
X58560Y-43749D01*
X58569Y-43741D01*
X58588Y-43732D01*
X58626Y-43724D01*
X58674Y-43724D01*
X58712Y-43732D01*
X58731Y-43741D01*
X58740Y-43749D01*
X58750Y-43767D01*
X58750Y-43784D01*
X58740Y-43801D01*
X58731Y-43809D01*
X58712Y-43818D01*
X58674Y-43827D01*
X58626Y-43827D01*
X58588Y-43818D01*
X58569Y-43809D01*
X58560Y-43801D01*
X58550Y-43784D01*
X58731Y-43647D02*
X58740Y-43638D01*
X58750Y-43647D01*
X58740Y-43655D01*
X58731Y-43647D01*
X58750Y-43647D01*
X58569Y-43569D02*
X58560Y-43561D01*
X58550Y-43544D01*
X58550Y-43501D01*
X58560Y-43484D01*
X58569Y-43475D01*
X58588Y-43467D01*
X58607Y-43467D01*
X58636Y-43475D01*
X58750Y-43578D01*
X58750Y-43467D01*
X58750Y-43389D02*
X58550Y-43389D01*
X58674Y-43372D02*
X58750Y-43321D01*
X58617Y-43321D02*
X58693Y-43389D01*
X58607Y-45012D02*
X58740Y-45012D01*
X58530Y-45055D02*
X58673Y-45098D01*
X58673Y-44987D01*
X58740Y-44909D02*
X58740Y-44875D01*
X58730Y-44858D01*
X58721Y-44849D01*
X58692Y-44832D01*
X58654Y-44824D01*
X58578Y-44824D01*
X58559Y-44832D01*
X58550Y-44841D01*
X58540Y-44858D01*
X58540Y-44892D01*
X58550Y-44909D01*
X58559Y-44918D01*
X58578Y-44927D01*
X58626Y-44927D01*
X58645Y-44918D01*
X58654Y-44909D01*
X58664Y-44892D01*
X58664Y-44858D01*
X58654Y-44841D01*
X58645Y-44832D01*
X58626Y-44824D01*
X58721Y-44747D02*
X58730Y-44738D01*
X58740Y-44747D01*
X58730Y-44755D01*
X58721Y-44747D01*
X58740Y-44747D01*
X58740Y-44652D02*
X58740Y-44618D01*
X58730Y-44601D01*
X58721Y-44592D01*
X58692Y-44575D01*
X58654Y-44567D01*
X58578Y-44567D01*
X58559Y-44575D01*
X58550Y-44584D01*
X58540Y-44601D01*
X58540Y-44635D01*
X58550Y-44652D01*
X58559Y-44661D01*
X58578Y-44669D01*
X58626Y-44669D01*
X58645Y-44661D01*
X58654Y-44652D01*
X58664Y-44635D01*
X58664Y-44601D01*
X58654Y-44584D01*
X58645Y-44575D01*
X58626Y-44567D01*
X58740Y-44489D02*
X58540Y-44489D01*
X58664Y-44472D02*
X58740Y-44421D01*
X58607Y-44421D02*
X58683Y-44489D01*
X54087Y-43902D02*
X54220Y-43902D01*
X54010Y-43945D02*
X54153Y-43988D01*
X54153Y-43877D01*
X54020Y-43774D02*
X54020Y-43757D01*
X54030Y-43739D01*
X54039Y-43731D01*
X54058Y-43722D01*
X54096Y-43714D01*
X54144Y-43714D01*
X54182Y-43722D01*
X54201Y-43731D01*
X54210Y-43739D01*
X54220Y-43757D01*
X54220Y-43774D01*
X54210Y-43791D01*
X54201Y-43799D01*
X54182Y-43808D01*
X54144Y-43817D01*
X54096Y-43817D01*
X54058Y-43808D01*
X54039Y-43799D01*
X54030Y-43791D01*
X54020Y-43774D01*
X54201Y-43637D02*
X54210Y-43628D01*
X54220Y-43637D01*
X54210Y-43645D01*
X54201Y-43637D01*
X54220Y-43637D01*
X54039Y-43559D02*
X54030Y-43551D01*
X54020Y-43534D01*
X54020Y-43491D01*
X54030Y-43474D01*
X54039Y-43465D01*
X54058Y-43457D01*
X54077Y-43457D01*
X54106Y-43465D01*
X54220Y-43568D01*
X54220Y-43457D01*
X54220Y-43379D02*
X54020Y-43379D01*
X54144Y-43362D02*
X54220Y-43311D01*
X54087Y-43311D02*
X54163Y-43379D01*
X54077Y-45062D02*
X54210Y-45062D01*
X54000Y-45105D02*
X54143Y-45148D01*
X54143Y-45037D01*
X54210Y-44959D02*
X54210Y-44925D01*
X54200Y-44908D01*
X54191Y-44899D01*
X54162Y-44882D01*
X54124Y-44874D01*
X54048Y-44874D01*
X54029Y-44882D01*
X54020Y-44891D01*
X54010Y-44908D01*
X54010Y-44942D01*
X54020Y-44959D01*
X54029Y-44968D01*
X54048Y-44977D01*
X54096Y-44977D01*
X54115Y-44968D01*
X54124Y-44959D01*
X54134Y-44942D01*
X54134Y-44908D01*
X54124Y-44891D01*
X54115Y-44882D01*
X54096Y-44874D01*
X54191Y-44797D02*
X54200Y-44788D01*
X54210Y-44797D01*
X54200Y-44805D01*
X54191Y-44797D01*
X54210Y-44797D01*
X54210Y-44702D02*
X54210Y-44668D01*
X54200Y-44651D01*
X54191Y-44642D01*
X54162Y-44625D01*
X54124Y-44617D01*
X54048Y-44617D01*
X54029Y-44625D01*
X54020Y-44634D01*
X54010Y-44651D01*
X54010Y-44685D01*
X54020Y-44702D01*
X54029Y-44711D01*
X54048Y-44719D01*
X54096Y-44719D01*
X54115Y-44711D01*
X54124Y-44702D01*
X54134Y-44685D01*
X54134Y-44651D01*
X54124Y-44634D01*
X54115Y-44625D01*
X54096Y-44617D01*
X54210Y-44539D02*
X54010Y-44539D01*
X54134Y-44522D02*
X54210Y-44471D01*
X54077Y-44471D02*
X54153Y-44539D01*
X58540Y-36618D02*
X58540Y-36704D01*
X58635Y-36712D01*
X58626Y-36704D01*
X58616Y-36687D01*
X58616Y-36644D01*
X58626Y-36627D01*
X58635Y-36618D01*
X58654Y-36610D01*
X58702Y-36610D01*
X58721Y-36618D01*
X58730Y-36627D01*
X58740Y-36644D01*
X58740Y-36687D01*
X58730Y-36704D01*
X58721Y-36712D01*
X58721Y-36532D02*
X58730Y-36524D01*
X58740Y-36532D01*
X58730Y-36541D01*
X58721Y-36532D01*
X58740Y-36532D01*
X58740Y-36352D02*
X58740Y-36455D01*
X58740Y-36404D02*
X58540Y-36404D01*
X58569Y-36421D01*
X58588Y-36438D01*
X58597Y-36455D01*
X58740Y-36275D02*
X58540Y-36275D01*
X58664Y-36258D02*
X58740Y-36207D01*
X58607Y-36207D02*
X58683Y-36275D01*
X58720Y-35427D02*
X58720Y-35530D01*
X58720Y-35478D02*
X58520Y-35478D01*
X58549Y-35495D01*
X58568Y-35512D01*
X58577Y-35530D01*
X58520Y-35315D02*
X58520Y-35298D01*
X58530Y-35281D01*
X58539Y-35272D01*
X58558Y-35264D01*
X58596Y-35255D01*
X58644Y-35255D01*
X58682Y-35264D01*
X58701Y-35272D01*
X58710Y-35281D01*
X58720Y-35298D01*
X58720Y-35315D01*
X58710Y-35332D01*
X58701Y-35341D01*
X58682Y-35350D01*
X58644Y-35358D01*
X58596Y-35358D01*
X58558Y-35350D01*
X58539Y-35341D01*
X58530Y-35332D01*
X58520Y-35315D01*
X58720Y-35178D02*
X58520Y-35178D01*
X58644Y-35161D02*
X58720Y-35109D01*
X58587Y-35109D02*
X58663Y-35178D01*
X53930Y-36638D02*
X53930Y-36724D01*
X54025Y-36732D01*
X54016Y-36724D01*
X54006Y-36707D01*
X54006Y-36664D01*
X54016Y-36647D01*
X54025Y-36638D01*
X54044Y-36630D01*
X54092Y-36630D01*
X54111Y-36638D01*
X54120Y-36647D01*
X54130Y-36664D01*
X54130Y-36707D01*
X54120Y-36724D01*
X54111Y-36732D01*
X54111Y-36552D02*
X54120Y-36544D01*
X54130Y-36552D01*
X54120Y-36561D01*
X54111Y-36552D01*
X54130Y-36552D01*
X54130Y-36372D02*
X54130Y-36475D01*
X54130Y-36424D02*
X53930Y-36424D01*
X53959Y-36441D01*
X53978Y-36458D01*
X53987Y-36475D01*
X54130Y-36295D02*
X53930Y-36295D01*
X54054Y-36278D02*
X54130Y-36227D01*
X53997Y-36227D02*
X54073Y-36295D01*
X54120Y-35407D02*
X54120Y-35510D01*
X54120Y-35458D02*
X53920Y-35458D01*
X53949Y-35475D01*
X53968Y-35492D01*
X53977Y-35510D01*
X53920Y-35295D02*
X53920Y-35278D01*
X53930Y-35261D01*
X53939Y-35252D01*
X53958Y-35244D01*
X53996Y-35235D01*
X54044Y-35235D01*
X54082Y-35244D01*
X54101Y-35252D01*
X54110Y-35261D01*
X54120Y-35278D01*
X54120Y-35295D01*
X54110Y-35312D01*
X54101Y-35321D01*
X54082Y-35330D01*
X54044Y-35338D01*
X53996Y-35338D01*
X53958Y-35330D01*
X53939Y-35321D01*
X53930Y-35312D01*
X53920Y-35295D01*
X54120Y-35158D02*
X53920Y-35158D01*
X54044Y-35141D02*
X54120Y-35089D01*
X53987Y-35089D02*
X54063Y-35158D01*
M02*
