M48
;DRILL file {Pcbnew (2013-11-28 BZR 4510)-product} date Mon 24 Mar 2014 06:58:29 PM EDT
;FORMAT={-:-/ absolute / inch / decimal}
FMAT,2
INCH,TZ
T1C0.035
T2C0.038
T3C0.039
T4C0.091
%
G90
G05
M72
T1
X5.586Y-3.1287
X5.586Y-3.2271
X5.586Y-3.424
X5.586Y-3.5224
X5.586Y-3.6209
X5.5895Y-3.9577
X5.5895Y-4.0561
X5.5895Y-4.253
X5.5895Y-4.3514
X5.5895Y-4.4499
X5.684Y-3.1287
X5.684Y-3.2271
X5.684Y-3.424
X5.684Y-3.5224
X5.684Y-3.6209
X5.6875Y-3.9577
X5.6875Y-4.0561
X5.6875Y-4.253
X5.6875Y-4.3514
X5.6875Y-4.4499
T2
X5.599Y-4.665
X5.599Y-4.7437
X5.699Y-4.665
X5.699Y-4.7437
T3
X5.716Y-2.883
X5.816Y-2.883
X5.896Y-2.883
X5.996Y-2.883
T4
X5.4128Y-4.85
X5.596Y-2.778
X5.8852Y-4.85
X6.136Y-2.778
T0
M30
