%FSLAX34Y34*%
G04 Gerber Fmt 3.4, Leading zero omitted, Abs format*
G04 (created by PCBNEW (2014-03-19 BZR 4756)-product) date Fri 12 Sep 2014 09:38:09 AM EDT*
%MOIN*%
G01*
G70*
G90*
G04 APERTURE LIST*
%ADD10C,0.005906*%
%ADD11R,0.074700X0.074700*%
%ADD12R,0.074800X0.074700*%
%ADD13R,0.070700X0.074700*%
%ADD14R,0.082500X0.062900*%
%ADD15R,0.015700X0.053000*%
%ADD16C,0.060000*%
%ADD17C,0.120000*%
%ADD18C,0.059100*%
%ADD19C,0.130000*%
%ADD20C,0.059055*%
%ADD21R,0.045000X0.025000*%
%ADD22C,0.010000*%
%ADD23C,0.015000*%
%ADD24C,0.050000*%
%ADD25C,0.025000*%
%ADD26C,0.035000*%
G04 APERTURE END LIST*
G54D10*
G54D11*
X61138Y-48600D03*
G54D12*
X62082Y-48600D03*
G54D13*
X63106Y-48600D03*
G54D14*
X60390Y-47596D03*
G54D15*
X61099Y-47546D03*
X61355Y-47546D03*
X61610Y-47546D03*
X61865Y-47546D03*
X62121Y-47546D03*
G54D14*
X62830Y-47596D03*
G54D13*
X60114Y-48600D03*
G54D16*
X56990Y-46650D03*
X55990Y-46650D03*
X55990Y-47437D03*
X56990Y-47437D03*
G54D17*
X58852Y-48500D03*
X54128Y-48500D03*
G54D18*
X57160Y-28830D03*
X58160Y-28830D03*
X58960Y-28830D03*
X59960Y-28830D03*
G54D19*
X55960Y-27780D03*
X61360Y-27780D03*
G54D20*
X56875Y-42530D03*
X55894Y-42530D03*
X56875Y-43514D03*
X55894Y-43514D03*
X56875Y-44498D03*
X55894Y-44498D03*
X56875Y-40561D03*
X55894Y-40561D03*
X56875Y-39577D03*
X55894Y-39577D03*
G54D21*
X58030Y-39250D03*
X58030Y-39850D03*
X58020Y-40390D03*
X58020Y-40990D03*
X54680Y-40620D03*
X54680Y-41220D03*
X54680Y-41740D03*
X54680Y-42340D03*
X54680Y-40070D03*
X54680Y-39470D03*
X54680Y-38910D03*
X54680Y-38310D03*
X58070Y-43370D03*
X58070Y-43970D03*
X58060Y-44490D03*
X58060Y-45090D03*
X54660Y-43350D03*
X54660Y-43950D03*
X54660Y-44500D03*
X54660Y-45100D03*
X58075Y-36805D03*
X58075Y-36205D03*
X58085Y-35615D03*
X58085Y-35015D03*
X54610Y-36800D03*
X54610Y-36200D03*
X54590Y-35610D03*
X54590Y-35010D03*
G54D20*
X56840Y-34240D03*
X55859Y-34240D03*
X56840Y-35224D03*
X55859Y-35224D03*
X56840Y-36208D03*
X55859Y-36208D03*
X56840Y-32271D03*
X55859Y-32271D03*
X56840Y-31287D03*
X55859Y-31287D03*
G54D22*
X54660Y-44500D02*
X54660Y-43950D01*
X54661Y-44498D02*
X54660Y-44500D01*
X55894Y-44498D02*
X54661Y-44498D01*
X54680Y-39210D02*
X54680Y-39470D01*
X54680Y-38910D02*
X54680Y-39210D01*
X55527Y-39210D02*
X55894Y-39577D01*
X54680Y-39210D02*
X55527Y-39210D01*
X58070Y-44480D02*
X58060Y-44490D01*
X58070Y-43970D02*
X58070Y-44480D01*
X56883Y-44490D02*
X56875Y-44498D01*
X58060Y-44490D02*
X56883Y-44490D01*
X55894Y-41365D02*
X56360Y-40900D01*
X56360Y-40900D02*
X56360Y-32771D01*
X56360Y-32771D02*
X55859Y-32271D01*
X55894Y-42530D02*
X55894Y-41365D01*
G54D23*
X62121Y-47546D02*
X62121Y-46923D01*
X62121Y-46923D02*
X62118Y-46920D01*
G54D24*
X60114Y-47872D02*
X60390Y-47596D01*
X60114Y-48600D02*
X60114Y-47872D01*
X62830Y-48324D02*
X62830Y-47596D01*
X63106Y-48600D02*
X62830Y-48324D01*
X62082Y-48600D02*
X63106Y-48600D01*
X61138Y-48600D02*
X62082Y-48600D01*
X58952Y-48600D02*
X61138Y-48600D01*
X58852Y-48500D02*
X58952Y-48600D01*
X54128Y-48500D02*
X58852Y-48500D01*
X62830Y-29250D02*
X62830Y-47596D01*
X61360Y-27780D02*
X62830Y-29250D01*
X55960Y-27780D02*
X61360Y-27780D01*
G54D22*
X54590Y-36180D02*
X54610Y-36200D01*
X54590Y-35920D02*
X54590Y-36180D01*
X54590Y-35870D02*
X54590Y-35920D01*
X54590Y-35610D02*
X54590Y-35870D01*
X55214Y-35870D02*
X55859Y-35224D01*
X54590Y-35870D02*
X55214Y-35870D01*
X58085Y-36195D02*
X58075Y-36205D01*
X58085Y-35930D02*
X58085Y-36195D01*
X58085Y-35615D02*
X58085Y-35930D01*
X57230Y-35615D02*
X56840Y-35224D01*
X58085Y-35615D02*
X57230Y-35615D01*
X57680Y-43370D02*
X57060Y-43990D01*
X57060Y-43990D02*
X55680Y-43990D01*
X55680Y-43990D02*
X55040Y-43350D01*
X55040Y-43350D02*
X54660Y-43350D01*
X58070Y-43370D02*
X57680Y-43370D01*
X54680Y-40070D02*
X54680Y-40620D01*
X54170Y-40620D02*
X54170Y-38600D01*
X54170Y-42030D02*
X54170Y-40730D01*
X54170Y-40730D02*
X54170Y-40620D01*
X54180Y-40620D02*
X54170Y-40620D01*
X54170Y-40620D02*
X54180Y-40620D01*
X54680Y-40620D02*
X54170Y-40620D01*
X58075Y-39205D02*
X58030Y-39250D01*
G54D23*
X58075Y-36805D02*
X58075Y-39205D01*
G54D22*
X58070Y-41880D02*
X57590Y-41400D01*
X57590Y-41400D02*
X57590Y-40800D01*
X57590Y-40800D02*
X57700Y-40690D01*
X57700Y-40690D02*
X58400Y-40690D01*
X58400Y-40690D02*
X58560Y-40530D01*
X58560Y-40530D02*
X58560Y-39280D01*
X58560Y-39280D02*
X58530Y-39250D01*
X58530Y-39250D02*
X58030Y-39250D01*
X58070Y-43370D02*
X58070Y-41880D01*
X55120Y-38600D02*
X55180Y-38540D01*
X55180Y-38540D02*
X55180Y-37000D01*
X55180Y-37000D02*
X54980Y-36800D01*
X54980Y-36800D02*
X54610Y-36800D01*
X54170Y-38600D02*
X55120Y-38600D01*
X54660Y-43080D02*
X55130Y-42610D01*
X55130Y-42610D02*
X55130Y-42200D01*
X55130Y-42200D02*
X54960Y-42030D01*
X54960Y-42030D02*
X54170Y-42030D01*
X54660Y-43350D02*
X54660Y-43080D01*
G54D24*
X60350Y-36800D02*
X60350Y-29170D01*
G54D23*
X60350Y-36805D02*
X60345Y-36800D01*
X60345Y-36800D02*
X60240Y-36800D01*
X60240Y-36800D02*
X60350Y-36800D01*
G54D25*
X58075Y-36805D02*
X60350Y-36805D01*
G54D24*
X60010Y-28830D02*
X60350Y-29170D01*
G54D26*
X59960Y-28830D02*
X60010Y-28830D01*
G54D24*
X60350Y-43370D02*
X60350Y-36805D01*
X59950Y-44700D02*
X60350Y-44300D01*
X60350Y-44300D02*
X60350Y-43370D01*
X58000Y-46650D02*
X59950Y-44700D01*
X56990Y-46650D02*
X58000Y-46650D01*
G54D23*
X61099Y-46891D02*
X61100Y-46890D01*
X61099Y-47546D02*
X61099Y-46891D01*
G54D24*
X61099Y-45849D02*
X59950Y-44700D01*
X61099Y-46891D02*
X61099Y-45849D01*
G54D25*
X60170Y-43370D02*
X60350Y-43370D01*
X60350Y-43370D02*
X60170Y-43370D01*
X58070Y-43370D02*
X60350Y-43370D01*
G54D22*
X58030Y-40380D02*
X58020Y-40390D01*
X58030Y-40120D02*
X58030Y-40380D01*
X58030Y-39850D02*
X58030Y-40120D01*
X56875Y-40120D02*
X56875Y-40561D01*
X56875Y-39577D02*
X56875Y-40120D01*
X58030Y-40120D02*
X56875Y-40120D01*
X55915Y-43514D02*
X56400Y-43030D01*
X56400Y-43030D02*
X57140Y-43030D01*
X57140Y-43030D02*
X57370Y-42800D01*
X57370Y-42800D02*
X57370Y-41056D01*
X57370Y-41056D02*
X56875Y-40561D01*
X55894Y-43514D02*
X55915Y-43514D01*
X54680Y-41220D02*
X54680Y-41740D01*
X55236Y-41220D02*
X55894Y-40561D01*
X54680Y-41220D02*
X55236Y-41220D01*
X55859Y-31287D02*
X56840Y-31287D01*
G54D10*
G36*
X59850Y-42995D02*
X58495Y-42995D01*
X58495Y-41164D01*
X58495Y-41102D01*
X58432Y-41040D01*
X58070Y-41040D01*
X58070Y-41302D01*
X58132Y-41365D01*
X58195Y-41365D01*
X58294Y-41365D01*
X58386Y-41326D01*
X58456Y-41256D01*
X58495Y-41164D01*
X58495Y-42995D01*
X58370Y-42995D01*
X58370Y-41880D01*
X58347Y-41765D01*
X58282Y-41667D01*
X57943Y-41329D01*
X57970Y-41302D01*
X57970Y-41040D01*
X57962Y-41040D01*
X57962Y-40990D01*
X58400Y-40990D01*
X58400Y-40989D01*
X58514Y-40967D01*
X58514Y-40967D01*
X58612Y-40902D01*
X58772Y-40742D01*
X58772Y-40742D01*
X58837Y-40644D01*
X58859Y-40530D01*
X58860Y-40530D01*
X58860Y-39280D01*
X58837Y-39165D01*
X58772Y-39067D01*
X58742Y-39037D01*
X58644Y-38972D01*
X58530Y-38950D01*
X58433Y-38950D01*
X58400Y-38916D01*
X58400Y-37180D01*
X59850Y-37180D01*
X59850Y-42995D01*
X59850Y-42995D01*
G37*
G54D22*
X59850Y-42995D02*
X58495Y-42995D01*
X58495Y-41164D01*
X58495Y-41102D01*
X58432Y-41040D01*
X58070Y-41040D01*
X58070Y-41302D01*
X58132Y-41365D01*
X58195Y-41365D01*
X58294Y-41365D01*
X58386Y-41326D01*
X58456Y-41256D01*
X58495Y-41164D01*
X58495Y-42995D01*
X58370Y-42995D01*
X58370Y-41880D01*
X58347Y-41765D01*
X58282Y-41667D01*
X57943Y-41329D01*
X57970Y-41302D01*
X57970Y-41040D01*
X57962Y-41040D01*
X57962Y-40990D01*
X58400Y-40990D01*
X58400Y-40989D01*
X58514Y-40967D01*
X58514Y-40967D01*
X58612Y-40902D01*
X58772Y-40742D01*
X58772Y-40742D01*
X58837Y-40644D01*
X58859Y-40530D01*
X58860Y-40530D01*
X58860Y-39280D01*
X58837Y-39165D01*
X58772Y-39067D01*
X58742Y-39037D01*
X58644Y-38972D01*
X58530Y-38950D01*
X58433Y-38950D01*
X58400Y-38916D01*
X58400Y-37180D01*
X59850Y-37180D01*
X59850Y-42995D01*
G54D10*
G36*
X62330Y-47047D02*
X62309Y-47055D01*
X62249Y-47031D01*
X62222Y-47031D01*
X62160Y-47093D01*
X62160Y-47150D01*
X62155Y-47139D01*
X62085Y-47069D01*
X62037Y-47049D01*
X62019Y-47031D01*
X61993Y-47031D01*
X61992Y-47031D01*
X61893Y-47031D01*
X61738Y-47031D01*
X61736Y-47031D01*
X61638Y-47031D01*
X61571Y-47031D01*
X61599Y-46891D01*
X61599Y-45849D01*
X61599Y-45849D01*
X61599Y-45849D01*
X61560Y-45657D01*
X61452Y-45495D01*
X61452Y-45495D01*
X61452Y-45495D01*
X60657Y-44700D01*
X60703Y-44653D01*
X60811Y-44491D01*
X60850Y-44300D01*
X60850Y-44300D01*
X60850Y-44299D01*
X60850Y-43370D01*
X60850Y-36805D01*
X60849Y-36802D01*
X60850Y-36800D01*
X60850Y-29170D01*
X60850Y-29170D01*
X60850Y-29170D01*
X60811Y-28978D01*
X60703Y-28816D01*
X60703Y-28816D01*
X60703Y-28816D01*
X60432Y-28545D01*
X60422Y-28521D01*
X60269Y-28367D01*
X60068Y-28284D01*
X59851Y-28284D01*
X59651Y-28367D01*
X59497Y-28520D01*
X59460Y-28611D01*
X59422Y-28521D01*
X59269Y-28367D01*
X59068Y-28284D01*
X58851Y-28284D01*
X58651Y-28367D01*
X58559Y-28458D01*
X58469Y-28367D01*
X58268Y-28284D01*
X58051Y-28284D01*
X57851Y-28367D01*
X57697Y-28520D01*
X57662Y-28605D01*
X57637Y-28544D01*
X57542Y-28518D01*
X57230Y-28830D01*
X57542Y-29141D01*
X57637Y-29115D01*
X57660Y-29050D01*
X57697Y-29138D01*
X57850Y-29292D01*
X58051Y-29375D01*
X58268Y-29375D01*
X58468Y-29292D01*
X58560Y-29201D01*
X58650Y-29292D01*
X58851Y-29375D01*
X59068Y-29375D01*
X59268Y-29292D01*
X59422Y-29139D01*
X59459Y-29048D01*
X59497Y-29138D01*
X59650Y-29292D01*
X59846Y-29373D01*
X59850Y-29377D01*
X59850Y-36430D01*
X58529Y-36430D01*
X58550Y-36379D01*
X58550Y-36280D01*
X58550Y-36030D01*
X58511Y-35938D01*
X58488Y-35915D01*
X58521Y-35881D01*
X58560Y-35789D01*
X58560Y-35690D01*
X58560Y-35440D01*
X58521Y-35348D01*
X58488Y-35315D01*
X58521Y-35281D01*
X58560Y-35189D01*
X58560Y-35127D01*
X58560Y-34902D01*
X58560Y-34840D01*
X58521Y-34748D01*
X58451Y-34678D01*
X58359Y-34640D01*
X58260Y-34640D01*
X58197Y-34640D01*
X58135Y-34702D01*
X58135Y-34965D01*
X58497Y-34965D01*
X58560Y-34902D01*
X58560Y-35127D01*
X58497Y-35065D01*
X58135Y-35065D01*
X58135Y-35072D01*
X58035Y-35072D01*
X58035Y-35065D01*
X58035Y-34965D01*
X58035Y-34702D01*
X57972Y-34640D01*
X57909Y-34640D01*
X57810Y-34640D01*
X57718Y-34678D01*
X57648Y-34748D01*
X57610Y-34840D01*
X57610Y-34902D01*
X57672Y-34965D01*
X58035Y-34965D01*
X58035Y-35065D01*
X57672Y-35065D01*
X57610Y-35127D01*
X57610Y-35189D01*
X57648Y-35281D01*
X57681Y-35314D01*
X57681Y-35315D01*
X57471Y-35315D01*
X57471Y-29212D01*
X57160Y-28900D01*
X57089Y-28971D01*
X57089Y-28830D01*
X56777Y-28518D01*
X56682Y-28544D01*
X56609Y-28749D01*
X56620Y-28966D01*
X56682Y-29115D01*
X56777Y-29141D01*
X57089Y-28830D01*
X57089Y-28971D01*
X56848Y-29212D01*
X56874Y-29307D01*
X57079Y-29380D01*
X57296Y-29369D01*
X57445Y-29307D01*
X57471Y-29212D01*
X57471Y-35315D01*
X57385Y-35315D01*
X57385Y-35116D01*
X57302Y-34915D01*
X57149Y-34762D01*
X57076Y-34732D01*
X57148Y-34702D01*
X57302Y-34549D01*
X57385Y-34348D01*
X57385Y-34132D01*
X57302Y-33931D01*
X57149Y-33778D01*
X56949Y-33694D01*
X56732Y-33694D01*
X56660Y-33724D01*
X56660Y-32787D01*
X56731Y-32816D01*
X56948Y-32816D01*
X57148Y-32734D01*
X57302Y-32580D01*
X57385Y-32380D01*
X57385Y-32163D01*
X57302Y-31963D01*
X57149Y-31809D01*
X57076Y-31779D01*
X57148Y-31749D01*
X57302Y-31596D01*
X57385Y-31396D01*
X57385Y-31179D01*
X57302Y-30978D01*
X57149Y-30825D01*
X56949Y-30742D01*
X56732Y-30741D01*
X56531Y-30824D01*
X56378Y-30977D01*
X56374Y-30987D01*
X56325Y-30987D01*
X56322Y-30978D01*
X56169Y-30825D01*
X55968Y-30742D01*
X55751Y-30741D01*
X55551Y-30824D01*
X55397Y-30977D01*
X55314Y-31178D01*
X55314Y-31395D01*
X55397Y-31595D01*
X55550Y-31749D01*
X55623Y-31779D01*
X55551Y-31808D01*
X55397Y-31962D01*
X55314Y-32162D01*
X55314Y-32379D01*
X55397Y-32579D01*
X55550Y-32733D01*
X55750Y-32816D01*
X55967Y-32816D01*
X55977Y-32813D01*
X56060Y-32895D01*
X56060Y-33732D01*
X55968Y-33694D01*
X55751Y-33694D01*
X55551Y-33777D01*
X55397Y-33930D01*
X55314Y-34131D01*
X55314Y-34347D01*
X55397Y-34548D01*
X55550Y-34701D01*
X55623Y-34732D01*
X55551Y-34761D01*
X55397Y-34914D01*
X55314Y-35115D01*
X55314Y-35332D01*
X55318Y-35341D01*
X55089Y-35570D01*
X55065Y-35570D01*
X55065Y-35435D01*
X55026Y-35343D01*
X54993Y-35310D01*
X55026Y-35276D01*
X55065Y-35184D01*
X55065Y-35122D01*
X55065Y-34897D01*
X55065Y-34835D01*
X55026Y-34743D01*
X54956Y-34673D01*
X54864Y-34635D01*
X54765Y-34635D01*
X54702Y-34635D01*
X54640Y-34697D01*
X54640Y-34960D01*
X55002Y-34960D01*
X55065Y-34897D01*
X55065Y-35122D01*
X55002Y-35060D01*
X54640Y-35060D01*
X54640Y-35067D01*
X54540Y-35067D01*
X54540Y-35060D01*
X54540Y-34960D01*
X54540Y-34697D01*
X54477Y-34635D01*
X54414Y-34635D01*
X54315Y-34635D01*
X54223Y-34673D01*
X54153Y-34743D01*
X54115Y-34835D01*
X54115Y-34897D01*
X54177Y-34960D01*
X54540Y-34960D01*
X54540Y-35060D01*
X54177Y-35060D01*
X54115Y-35122D01*
X54115Y-35184D01*
X54153Y-35276D01*
X54186Y-35309D01*
X54153Y-35343D01*
X54115Y-35435D01*
X54115Y-35534D01*
X54115Y-35784D01*
X54153Y-35876D01*
X54191Y-35914D01*
X54173Y-35933D01*
X54135Y-36025D01*
X54135Y-36124D01*
X54135Y-36374D01*
X54173Y-36466D01*
X54206Y-36499D01*
X54173Y-36533D01*
X54135Y-36625D01*
X54135Y-36724D01*
X54135Y-36974D01*
X54173Y-37066D01*
X54243Y-37136D01*
X54335Y-37175D01*
X54434Y-37175D01*
X54880Y-37175D01*
X54880Y-37935D01*
X54855Y-37935D01*
X54792Y-37935D01*
X54730Y-37997D01*
X54730Y-38260D01*
X54737Y-38260D01*
X54737Y-38300D01*
X54630Y-38300D01*
X54622Y-38300D01*
X54622Y-38260D01*
X54630Y-38260D01*
X54630Y-37997D01*
X54567Y-37935D01*
X54504Y-37935D01*
X54405Y-37935D01*
X54313Y-37973D01*
X54243Y-38043D01*
X54205Y-38135D01*
X54205Y-38197D01*
X54267Y-38259D01*
X54205Y-38259D01*
X54205Y-38300D01*
X54170Y-38300D01*
X54055Y-38322D01*
X53957Y-38387D01*
X53892Y-38485D01*
X53870Y-38600D01*
X53870Y-40620D01*
X53870Y-40730D01*
X53870Y-42030D01*
X53892Y-42144D01*
X53957Y-42242D01*
X54055Y-42307D01*
X54170Y-42330D01*
X54737Y-42330D01*
X54737Y-42390D01*
X54730Y-42390D01*
X54730Y-42397D01*
X54630Y-42397D01*
X54630Y-42390D01*
X54267Y-42390D01*
X54205Y-42452D01*
X54205Y-42514D01*
X54243Y-42606D01*
X54313Y-42676D01*
X54405Y-42715D01*
X54504Y-42715D01*
X54567Y-42715D01*
X54629Y-42652D01*
X54629Y-42685D01*
X54447Y-42867D01*
X54382Y-42965D01*
X54380Y-42976D01*
X54293Y-43013D01*
X54223Y-43083D01*
X54185Y-43175D01*
X54185Y-43274D01*
X54185Y-43524D01*
X54223Y-43616D01*
X54256Y-43649D01*
X54223Y-43683D01*
X54185Y-43775D01*
X54185Y-43874D01*
X54185Y-44124D01*
X54223Y-44216D01*
X54231Y-44224D01*
X54223Y-44233D01*
X54185Y-44325D01*
X54185Y-44424D01*
X54185Y-44674D01*
X54223Y-44766D01*
X54256Y-44800D01*
X54223Y-44833D01*
X54185Y-44925D01*
X54185Y-44987D01*
X54247Y-45050D01*
X54610Y-45050D01*
X54610Y-45042D01*
X54710Y-45042D01*
X54710Y-45050D01*
X55072Y-45050D01*
X55135Y-44987D01*
X55135Y-44925D01*
X55096Y-44833D01*
X55063Y-44800D01*
X55065Y-44798D01*
X55428Y-44798D01*
X55432Y-44806D01*
X55585Y-44960D01*
X55785Y-45043D01*
X56002Y-45043D01*
X56203Y-44961D01*
X56356Y-44807D01*
X56384Y-44740D01*
X56412Y-44806D01*
X56565Y-44960D01*
X56766Y-45043D01*
X56983Y-45043D01*
X57183Y-44961D01*
X57337Y-44807D01*
X57344Y-44790D01*
X57656Y-44790D01*
X57623Y-44823D01*
X57585Y-44915D01*
X57585Y-44977D01*
X57647Y-45040D01*
X58010Y-45040D01*
X58010Y-45032D01*
X58110Y-45032D01*
X58110Y-45040D01*
X58472Y-45040D01*
X58535Y-44977D01*
X58535Y-44915D01*
X58496Y-44823D01*
X58463Y-44790D01*
X58496Y-44756D01*
X58535Y-44664D01*
X58535Y-44565D01*
X58535Y-44315D01*
X58503Y-44239D01*
X58506Y-44236D01*
X58545Y-44144D01*
X58545Y-44045D01*
X58545Y-43795D01*
X58524Y-43745D01*
X59850Y-43745D01*
X59850Y-44092D01*
X59596Y-44346D01*
X59596Y-44346D01*
X58535Y-45407D01*
X58535Y-45264D01*
X58535Y-45202D01*
X58472Y-45140D01*
X58110Y-45140D01*
X58110Y-45402D01*
X58172Y-45465D01*
X58235Y-45465D01*
X58334Y-45465D01*
X58426Y-45426D01*
X58496Y-45356D01*
X58535Y-45264D01*
X58535Y-45407D01*
X58010Y-45932D01*
X58010Y-45402D01*
X58010Y-45140D01*
X57647Y-45140D01*
X57585Y-45202D01*
X57585Y-45264D01*
X57623Y-45356D01*
X57693Y-45426D01*
X57785Y-45465D01*
X57884Y-45465D01*
X57947Y-45465D01*
X58010Y-45402D01*
X58010Y-45932D01*
X57792Y-46150D01*
X57220Y-46150D01*
X57099Y-46100D01*
X56881Y-46099D01*
X56678Y-46183D01*
X56524Y-46338D01*
X56490Y-46419D01*
X56456Y-46338D01*
X56301Y-46184D01*
X56099Y-46100D01*
X55881Y-46099D01*
X55678Y-46183D01*
X55524Y-46338D01*
X55440Y-46540D01*
X55439Y-46758D01*
X55523Y-46961D01*
X55605Y-47043D01*
X55524Y-47125D01*
X55440Y-47327D01*
X55439Y-47545D01*
X55523Y-47748D01*
X55678Y-47902D01*
X55880Y-47986D01*
X56098Y-47987D01*
X56301Y-47903D01*
X56455Y-47748D01*
X56487Y-47673D01*
X56508Y-47724D01*
X56604Y-47752D01*
X56919Y-47437D01*
X56604Y-47121D01*
X56508Y-47149D01*
X56489Y-47204D01*
X56456Y-47125D01*
X56374Y-47043D01*
X56455Y-46961D01*
X56489Y-46880D01*
X56523Y-46961D01*
X56678Y-47115D01*
X56783Y-47159D01*
X56990Y-47366D01*
X56995Y-47360D01*
X57066Y-47431D01*
X57060Y-47437D01*
X57375Y-47752D01*
X57471Y-47724D01*
X57544Y-47518D01*
X57533Y-47300D01*
X57471Y-47150D01*
X57999Y-47150D01*
X58000Y-47150D01*
X58000Y-47150D01*
X58191Y-47111D01*
X58353Y-47003D01*
X59949Y-45407D01*
X60599Y-46056D01*
X60599Y-46891D01*
X60626Y-47031D01*
X59927Y-47031D01*
X59835Y-47069D01*
X59765Y-47139D01*
X59727Y-47231D01*
X59727Y-47331D01*
X59727Y-47567D01*
X59652Y-47680D01*
X59613Y-47872D01*
X59614Y-47872D01*
X59614Y-48019D01*
X59585Y-48048D01*
X59573Y-48019D01*
X59334Y-47779D01*
X59021Y-47650D01*
X58683Y-47649D01*
X58371Y-47778D01*
X58149Y-48000D01*
X57305Y-48000D01*
X57305Y-47822D01*
X56990Y-47507D01*
X56674Y-47822D01*
X56702Y-47918D01*
X56908Y-47991D01*
X57126Y-47980D01*
X57277Y-47918D01*
X57305Y-47822D01*
X57305Y-48000D01*
X55135Y-48000D01*
X55135Y-45274D01*
X55135Y-45212D01*
X55072Y-45150D01*
X54710Y-45150D01*
X54710Y-45412D01*
X54772Y-45475D01*
X54835Y-45475D01*
X54934Y-45475D01*
X55026Y-45436D01*
X55096Y-45366D01*
X55135Y-45274D01*
X55135Y-48000D01*
X54829Y-48000D01*
X54610Y-47779D01*
X54610Y-47779D01*
X54610Y-45412D01*
X54610Y-45150D01*
X54247Y-45150D01*
X54185Y-45212D01*
X54185Y-45274D01*
X54223Y-45366D01*
X54293Y-45436D01*
X54385Y-45475D01*
X54484Y-45475D01*
X54547Y-45475D01*
X54610Y-45412D01*
X54610Y-47779D01*
X54297Y-47650D01*
X53959Y-47649D01*
X53647Y-47778D01*
X53519Y-47906D01*
X53519Y-27029D01*
X55437Y-27029D01*
X55197Y-27269D01*
X55060Y-27600D01*
X55059Y-27958D01*
X55196Y-28289D01*
X55449Y-28542D01*
X55780Y-28679D01*
X56138Y-28680D01*
X56469Y-28543D01*
X56722Y-28290D01*
X56726Y-28280D01*
X57234Y-28280D01*
X57023Y-28290D01*
X56874Y-28352D01*
X56848Y-28447D01*
X57160Y-28759D01*
X57471Y-28447D01*
X57445Y-28352D01*
X57241Y-28280D01*
X60592Y-28280D01*
X60596Y-28289D01*
X60849Y-28542D01*
X61180Y-28679D01*
X61538Y-28680D01*
X61548Y-28675D01*
X62330Y-29457D01*
X62330Y-47047D01*
X62330Y-47047D01*
G37*
G54D22*
X62330Y-47047D02*
X62309Y-47055D01*
X62249Y-47031D01*
X62222Y-47031D01*
X62160Y-47093D01*
X62160Y-47150D01*
X62155Y-47139D01*
X62085Y-47069D01*
X62037Y-47049D01*
X62019Y-47031D01*
X61993Y-47031D01*
X61992Y-47031D01*
X61893Y-47031D01*
X61738Y-47031D01*
X61736Y-47031D01*
X61638Y-47031D01*
X61571Y-47031D01*
X61599Y-46891D01*
X61599Y-45849D01*
X61599Y-45849D01*
X61599Y-45849D01*
X61560Y-45657D01*
X61452Y-45495D01*
X61452Y-45495D01*
X61452Y-45495D01*
X60657Y-44700D01*
X60703Y-44653D01*
X60811Y-44491D01*
X60850Y-44300D01*
X60850Y-44300D01*
X60850Y-44299D01*
X60850Y-43370D01*
X60850Y-36805D01*
X60849Y-36802D01*
X60850Y-36800D01*
X60850Y-29170D01*
X60850Y-29170D01*
X60850Y-29170D01*
X60811Y-28978D01*
X60703Y-28816D01*
X60703Y-28816D01*
X60703Y-28816D01*
X60432Y-28545D01*
X60422Y-28521D01*
X60269Y-28367D01*
X60068Y-28284D01*
X59851Y-28284D01*
X59651Y-28367D01*
X59497Y-28520D01*
X59460Y-28611D01*
X59422Y-28521D01*
X59269Y-28367D01*
X59068Y-28284D01*
X58851Y-28284D01*
X58651Y-28367D01*
X58559Y-28458D01*
X58469Y-28367D01*
X58268Y-28284D01*
X58051Y-28284D01*
X57851Y-28367D01*
X57697Y-28520D01*
X57662Y-28605D01*
X57637Y-28544D01*
X57542Y-28518D01*
X57230Y-28830D01*
X57542Y-29141D01*
X57637Y-29115D01*
X57660Y-29050D01*
X57697Y-29138D01*
X57850Y-29292D01*
X58051Y-29375D01*
X58268Y-29375D01*
X58468Y-29292D01*
X58560Y-29201D01*
X58650Y-29292D01*
X58851Y-29375D01*
X59068Y-29375D01*
X59268Y-29292D01*
X59422Y-29139D01*
X59459Y-29048D01*
X59497Y-29138D01*
X59650Y-29292D01*
X59846Y-29373D01*
X59850Y-29377D01*
X59850Y-36430D01*
X58529Y-36430D01*
X58550Y-36379D01*
X58550Y-36280D01*
X58550Y-36030D01*
X58511Y-35938D01*
X58488Y-35915D01*
X58521Y-35881D01*
X58560Y-35789D01*
X58560Y-35690D01*
X58560Y-35440D01*
X58521Y-35348D01*
X58488Y-35315D01*
X58521Y-35281D01*
X58560Y-35189D01*
X58560Y-35127D01*
X58560Y-34902D01*
X58560Y-34840D01*
X58521Y-34748D01*
X58451Y-34678D01*
X58359Y-34640D01*
X58260Y-34640D01*
X58197Y-34640D01*
X58135Y-34702D01*
X58135Y-34965D01*
X58497Y-34965D01*
X58560Y-34902D01*
X58560Y-35127D01*
X58497Y-35065D01*
X58135Y-35065D01*
X58135Y-35072D01*
X58035Y-35072D01*
X58035Y-35065D01*
X58035Y-34965D01*
X58035Y-34702D01*
X57972Y-34640D01*
X57909Y-34640D01*
X57810Y-34640D01*
X57718Y-34678D01*
X57648Y-34748D01*
X57610Y-34840D01*
X57610Y-34902D01*
X57672Y-34965D01*
X58035Y-34965D01*
X58035Y-35065D01*
X57672Y-35065D01*
X57610Y-35127D01*
X57610Y-35189D01*
X57648Y-35281D01*
X57681Y-35314D01*
X57681Y-35315D01*
X57471Y-35315D01*
X57471Y-29212D01*
X57160Y-28900D01*
X57089Y-28971D01*
X57089Y-28830D01*
X56777Y-28518D01*
X56682Y-28544D01*
X56609Y-28749D01*
X56620Y-28966D01*
X56682Y-29115D01*
X56777Y-29141D01*
X57089Y-28830D01*
X57089Y-28971D01*
X56848Y-29212D01*
X56874Y-29307D01*
X57079Y-29380D01*
X57296Y-29369D01*
X57445Y-29307D01*
X57471Y-29212D01*
X57471Y-35315D01*
X57385Y-35315D01*
X57385Y-35116D01*
X57302Y-34915D01*
X57149Y-34762D01*
X57076Y-34732D01*
X57148Y-34702D01*
X57302Y-34549D01*
X57385Y-34348D01*
X57385Y-34132D01*
X57302Y-33931D01*
X57149Y-33778D01*
X56949Y-33694D01*
X56732Y-33694D01*
X56660Y-33724D01*
X56660Y-32787D01*
X56731Y-32816D01*
X56948Y-32816D01*
X57148Y-32734D01*
X57302Y-32580D01*
X57385Y-32380D01*
X57385Y-32163D01*
X57302Y-31963D01*
X57149Y-31809D01*
X57076Y-31779D01*
X57148Y-31749D01*
X57302Y-31596D01*
X57385Y-31396D01*
X57385Y-31179D01*
X57302Y-30978D01*
X57149Y-30825D01*
X56949Y-30742D01*
X56732Y-30741D01*
X56531Y-30824D01*
X56378Y-30977D01*
X56374Y-30987D01*
X56325Y-30987D01*
X56322Y-30978D01*
X56169Y-30825D01*
X55968Y-30742D01*
X55751Y-30741D01*
X55551Y-30824D01*
X55397Y-30977D01*
X55314Y-31178D01*
X55314Y-31395D01*
X55397Y-31595D01*
X55550Y-31749D01*
X55623Y-31779D01*
X55551Y-31808D01*
X55397Y-31962D01*
X55314Y-32162D01*
X55314Y-32379D01*
X55397Y-32579D01*
X55550Y-32733D01*
X55750Y-32816D01*
X55967Y-32816D01*
X55977Y-32813D01*
X56060Y-32895D01*
X56060Y-33732D01*
X55968Y-33694D01*
X55751Y-33694D01*
X55551Y-33777D01*
X55397Y-33930D01*
X55314Y-34131D01*
X55314Y-34347D01*
X55397Y-34548D01*
X55550Y-34701D01*
X55623Y-34732D01*
X55551Y-34761D01*
X55397Y-34914D01*
X55314Y-35115D01*
X55314Y-35332D01*
X55318Y-35341D01*
X55089Y-35570D01*
X55065Y-35570D01*
X55065Y-35435D01*
X55026Y-35343D01*
X54993Y-35310D01*
X55026Y-35276D01*
X55065Y-35184D01*
X55065Y-35122D01*
X55065Y-34897D01*
X55065Y-34835D01*
X55026Y-34743D01*
X54956Y-34673D01*
X54864Y-34635D01*
X54765Y-34635D01*
X54702Y-34635D01*
X54640Y-34697D01*
X54640Y-34960D01*
X55002Y-34960D01*
X55065Y-34897D01*
X55065Y-35122D01*
X55002Y-35060D01*
X54640Y-35060D01*
X54640Y-35067D01*
X54540Y-35067D01*
X54540Y-35060D01*
X54540Y-34960D01*
X54540Y-34697D01*
X54477Y-34635D01*
X54414Y-34635D01*
X54315Y-34635D01*
X54223Y-34673D01*
X54153Y-34743D01*
X54115Y-34835D01*
X54115Y-34897D01*
X54177Y-34960D01*
X54540Y-34960D01*
X54540Y-35060D01*
X54177Y-35060D01*
X54115Y-35122D01*
X54115Y-35184D01*
X54153Y-35276D01*
X54186Y-35309D01*
X54153Y-35343D01*
X54115Y-35435D01*
X54115Y-35534D01*
X54115Y-35784D01*
X54153Y-35876D01*
X54191Y-35914D01*
X54173Y-35933D01*
X54135Y-36025D01*
X54135Y-36124D01*
X54135Y-36374D01*
X54173Y-36466D01*
X54206Y-36499D01*
X54173Y-36533D01*
X54135Y-36625D01*
X54135Y-36724D01*
X54135Y-36974D01*
X54173Y-37066D01*
X54243Y-37136D01*
X54335Y-37175D01*
X54434Y-37175D01*
X54880Y-37175D01*
X54880Y-37935D01*
X54855Y-37935D01*
X54792Y-37935D01*
X54730Y-37997D01*
X54730Y-38260D01*
X54737Y-38260D01*
X54737Y-38300D01*
X54630Y-38300D01*
X54622Y-38300D01*
X54622Y-38260D01*
X54630Y-38260D01*
X54630Y-37997D01*
X54567Y-37935D01*
X54504Y-37935D01*
X54405Y-37935D01*
X54313Y-37973D01*
X54243Y-38043D01*
X54205Y-38135D01*
X54205Y-38197D01*
X54267Y-38259D01*
X54205Y-38259D01*
X54205Y-38300D01*
X54170Y-38300D01*
X54055Y-38322D01*
X53957Y-38387D01*
X53892Y-38485D01*
X53870Y-38600D01*
X53870Y-40620D01*
X53870Y-40730D01*
X53870Y-42030D01*
X53892Y-42144D01*
X53957Y-42242D01*
X54055Y-42307D01*
X54170Y-42330D01*
X54737Y-42330D01*
X54737Y-42390D01*
X54730Y-42390D01*
X54730Y-42397D01*
X54630Y-42397D01*
X54630Y-42390D01*
X54267Y-42390D01*
X54205Y-42452D01*
X54205Y-42514D01*
X54243Y-42606D01*
X54313Y-42676D01*
X54405Y-42715D01*
X54504Y-42715D01*
X54567Y-42715D01*
X54629Y-42652D01*
X54629Y-42685D01*
X54447Y-42867D01*
X54382Y-42965D01*
X54380Y-42976D01*
X54293Y-43013D01*
X54223Y-43083D01*
X54185Y-43175D01*
X54185Y-43274D01*
X54185Y-43524D01*
X54223Y-43616D01*
X54256Y-43649D01*
X54223Y-43683D01*
X54185Y-43775D01*
X54185Y-43874D01*
X54185Y-44124D01*
X54223Y-44216D01*
X54231Y-44224D01*
X54223Y-44233D01*
X54185Y-44325D01*
X54185Y-44424D01*
X54185Y-44674D01*
X54223Y-44766D01*
X54256Y-44800D01*
X54223Y-44833D01*
X54185Y-44925D01*
X54185Y-44987D01*
X54247Y-45050D01*
X54610Y-45050D01*
X54610Y-45042D01*
X54710Y-45042D01*
X54710Y-45050D01*
X55072Y-45050D01*
X55135Y-44987D01*
X55135Y-44925D01*
X55096Y-44833D01*
X55063Y-44800D01*
X55065Y-44798D01*
X55428Y-44798D01*
X55432Y-44806D01*
X55585Y-44960D01*
X55785Y-45043D01*
X56002Y-45043D01*
X56203Y-44961D01*
X56356Y-44807D01*
X56384Y-44740D01*
X56412Y-44806D01*
X56565Y-44960D01*
X56766Y-45043D01*
X56983Y-45043D01*
X57183Y-44961D01*
X57337Y-44807D01*
X57344Y-44790D01*
X57656Y-44790D01*
X57623Y-44823D01*
X57585Y-44915D01*
X57585Y-44977D01*
X57647Y-45040D01*
X58010Y-45040D01*
X58010Y-45032D01*
X58110Y-45032D01*
X58110Y-45040D01*
X58472Y-45040D01*
X58535Y-44977D01*
X58535Y-44915D01*
X58496Y-44823D01*
X58463Y-44790D01*
X58496Y-44756D01*
X58535Y-44664D01*
X58535Y-44565D01*
X58535Y-44315D01*
X58503Y-44239D01*
X58506Y-44236D01*
X58545Y-44144D01*
X58545Y-44045D01*
X58545Y-43795D01*
X58524Y-43745D01*
X59850Y-43745D01*
X59850Y-44092D01*
X59596Y-44346D01*
X59596Y-44346D01*
X58535Y-45407D01*
X58535Y-45264D01*
X58535Y-45202D01*
X58472Y-45140D01*
X58110Y-45140D01*
X58110Y-45402D01*
X58172Y-45465D01*
X58235Y-45465D01*
X58334Y-45465D01*
X58426Y-45426D01*
X58496Y-45356D01*
X58535Y-45264D01*
X58535Y-45407D01*
X58010Y-45932D01*
X58010Y-45402D01*
X58010Y-45140D01*
X57647Y-45140D01*
X57585Y-45202D01*
X57585Y-45264D01*
X57623Y-45356D01*
X57693Y-45426D01*
X57785Y-45465D01*
X57884Y-45465D01*
X57947Y-45465D01*
X58010Y-45402D01*
X58010Y-45932D01*
X57792Y-46150D01*
X57220Y-46150D01*
X57099Y-46100D01*
X56881Y-46099D01*
X56678Y-46183D01*
X56524Y-46338D01*
X56490Y-46419D01*
X56456Y-46338D01*
X56301Y-46184D01*
X56099Y-46100D01*
X55881Y-46099D01*
X55678Y-46183D01*
X55524Y-46338D01*
X55440Y-46540D01*
X55439Y-46758D01*
X55523Y-46961D01*
X55605Y-47043D01*
X55524Y-47125D01*
X55440Y-47327D01*
X55439Y-47545D01*
X55523Y-47748D01*
X55678Y-47902D01*
X55880Y-47986D01*
X56098Y-47987D01*
X56301Y-47903D01*
X56455Y-47748D01*
X56487Y-47673D01*
X56508Y-47724D01*
X56604Y-47752D01*
X56919Y-47437D01*
X56604Y-47121D01*
X56508Y-47149D01*
X56489Y-47204D01*
X56456Y-47125D01*
X56374Y-47043D01*
X56455Y-46961D01*
X56489Y-46880D01*
X56523Y-46961D01*
X56678Y-47115D01*
X56783Y-47159D01*
X56990Y-47366D01*
X56995Y-47360D01*
X57066Y-47431D01*
X57060Y-47437D01*
X57375Y-47752D01*
X57471Y-47724D01*
X57544Y-47518D01*
X57533Y-47300D01*
X57471Y-47150D01*
X57999Y-47150D01*
X58000Y-47150D01*
X58000Y-47150D01*
X58191Y-47111D01*
X58353Y-47003D01*
X59949Y-45407D01*
X60599Y-46056D01*
X60599Y-46891D01*
X60626Y-47031D01*
X59927Y-47031D01*
X59835Y-47069D01*
X59765Y-47139D01*
X59727Y-47231D01*
X59727Y-47331D01*
X59727Y-47567D01*
X59652Y-47680D01*
X59613Y-47872D01*
X59614Y-47872D01*
X59614Y-48019D01*
X59585Y-48048D01*
X59573Y-48019D01*
X59334Y-47779D01*
X59021Y-47650D01*
X58683Y-47649D01*
X58371Y-47778D01*
X58149Y-48000D01*
X57305Y-48000D01*
X57305Y-47822D01*
X56990Y-47507D01*
X56674Y-47822D01*
X56702Y-47918D01*
X56908Y-47991D01*
X57126Y-47980D01*
X57277Y-47918D01*
X57305Y-47822D01*
X57305Y-48000D01*
X55135Y-48000D01*
X55135Y-45274D01*
X55135Y-45212D01*
X55072Y-45150D01*
X54710Y-45150D01*
X54710Y-45412D01*
X54772Y-45475D01*
X54835Y-45475D01*
X54934Y-45475D01*
X55026Y-45436D01*
X55096Y-45366D01*
X55135Y-45274D01*
X55135Y-48000D01*
X54829Y-48000D01*
X54610Y-47779D01*
X54610Y-47779D01*
X54610Y-45412D01*
X54610Y-45150D01*
X54247Y-45150D01*
X54185Y-45212D01*
X54185Y-45274D01*
X54223Y-45366D01*
X54293Y-45436D01*
X54385Y-45475D01*
X54484Y-45475D01*
X54547Y-45475D01*
X54610Y-45412D01*
X54610Y-47779D01*
X54297Y-47650D01*
X53959Y-47649D01*
X53647Y-47778D01*
X53519Y-47906D01*
X53519Y-27029D01*
X55437Y-27029D01*
X55197Y-27269D01*
X55060Y-27600D01*
X55059Y-27958D01*
X55196Y-28289D01*
X55449Y-28542D01*
X55780Y-28679D01*
X56138Y-28680D01*
X56469Y-28543D01*
X56722Y-28290D01*
X56726Y-28280D01*
X57234Y-28280D01*
X57023Y-28290D01*
X56874Y-28352D01*
X56848Y-28447D01*
X57160Y-28759D01*
X57471Y-28447D01*
X57445Y-28352D01*
X57241Y-28280D01*
X60592Y-28280D01*
X60596Y-28289D01*
X60849Y-28542D01*
X61180Y-28679D01*
X61538Y-28680D01*
X61548Y-28675D01*
X62330Y-29457D01*
X62330Y-47047D01*
M02*
