%FSLAX34Y34*%
G04 Gerber Fmt 3.4, Leading zero omitted, Abs format*
G04 (created by PCBNEW (2013-11-28 BZR 4510)-product) date Sat 18 Jan 2014 11:30:59 AM EST*
%MOIN*%
G01*
G70*
G90*
G04 APERTURE LIST*
%ADD10C,0.005906*%
%ADD11R,0.074700X0.074700*%
%ADD12R,0.074800X0.074700*%
%ADD13R,0.070700X0.074700*%
%ADD14R,0.082500X0.062900*%
%ADD15R,0.015700X0.053000*%
%ADD16C,0.060000*%
%ADD17C,0.106300*%
%ADD18C,0.059100*%
%ADD19C,0.118100*%
%ADD20C,0.059055*%
%ADD21R,0.045000X0.025000*%
%ADD22C,0.010000*%
%ADD23C,0.015000*%
%ADD24C,0.025000*%
%ADD25C,0.040000*%
G04 APERTURE END LIST*
G54D10*
G54D11*
X61648Y-50270D03*
G54D12*
X62592Y-50270D03*
G54D13*
X63616Y-50270D03*
G54D14*
X60900Y-49266D03*
G54D15*
X61609Y-49216D03*
X61865Y-49216D03*
X62120Y-49216D03*
X62375Y-49216D03*
X62631Y-49216D03*
G54D14*
X63340Y-49266D03*
G54D13*
X60624Y-50270D03*
G54D16*
X57340Y-48040D03*
X56340Y-48040D03*
X56340Y-48827D03*
X57340Y-48827D03*
G54D17*
X59202Y-49890D03*
X54478Y-49890D03*
G54D18*
X57550Y-27250D03*
X58550Y-27250D03*
X59350Y-27250D03*
X60350Y-27250D03*
G54D19*
X56350Y-26200D03*
X61750Y-26200D03*
G54D20*
X56875Y-42530D03*
X55894Y-42530D03*
X56875Y-43514D03*
X55894Y-43514D03*
X56875Y-44498D03*
X55894Y-44498D03*
X56875Y-40561D03*
X55894Y-40561D03*
X56875Y-39577D03*
X55894Y-39577D03*
G54D21*
X58030Y-39250D03*
X58030Y-39850D03*
X58020Y-40390D03*
X58020Y-40990D03*
X54680Y-40620D03*
X54680Y-41220D03*
X54680Y-41740D03*
X54680Y-42340D03*
X54680Y-40070D03*
X54680Y-39470D03*
X54680Y-38910D03*
X54680Y-38310D03*
X58070Y-43370D03*
X58070Y-43970D03*
X58060Y-44490D03*
X58060Y-45090D03*
X54660Y-43350D03*
X54660Y-43950D03*
X54660Y-44500D03*
X54660Y-45100D03*
X58075Y-36805D03*
X58075Y-36205D03*
X58085Y-35615D03*
X58085Y-35015D03*
X54610Y-36800D03*
X54610Y-36200D03*
X54590Y-35610D03*
X54590Y-35010D03*
G54D20*
X56840Y-34240D03*
X55859Y-34240D03*
X56840Y-35224D03*
X55859Y-35224D03*
X56840Y-36208D03*
X55859Y-36208D03*
X56840Y-32271D03*
X55859Y-32271D03*
X56840Y-31287D03*
X55859Y-31287D03*
G54D22*
X54680Y-41220D02*
X55236Y-41220D01*
X55236Y-41220D02*
X55894Y-40561D01*
X54680Y-41220D02*
X54680Y-41740D01*
X55894Y-43514D02*
X55915Y-43514D01*
X57370Y-41056D02*
X56875Y-40561D01*
X57370Y-42800D02*
X57370Y-41056D01*
X57140Y-43030D02*
X57370Y-42800D01*
X56400Y-43030D02*
X57140Y-43030D01*
X55915Y-43514D02*
X56400Y-43030D01*
X58030Y-40120D02*
X56875Y-40120D01*
X56875Y-39577D02*
X56875Y-40120D01*
X56875Y-40120D02*
X56875Y-40561D01*
X58030Y-39850D02*
X58030Y-40120D01*
X58030Y-40120D02*
X58030Y-40380D01*
X58030Y-40380D02*
X58020Y-40390D01*
X55894Y-44498D02*
X54661Y-44498D01*
X54661Y-44498D02*
X54660Y-44500D01*
X54660Y-44500D02*
X54660Y-43950D01*
X54680Y-39210D02*
X55527Y-39210D01*
X55527Y-39210D02*
X55894Y-39577D01*
X54680Y-38910D02*
X54680Y-39210D01*
X54680Y-39210D02*
X54680Y-39470D01*
X58060Y-44490D02*
X56883Y-44490D01*
X56883Y-44490D02*
X56875Y-44498D01*
X58070Y-43970D02*
X58070Y-44480D01*
X58070Y-44480D02*
X58060Y-44490D01*
X55894Y-42530D02*
X55894Y-41365D01*
X56360Y-32771D02*
X55859Y-32271D01*
X56360Y-40900D02*
X56360Y-32771D01*
X55894Y-41365D02*
X56360Y-40900D01*
X55859Y-31287D02*
X56840Y-31287D01*
G54D23*
X62375Y-49216D02*
X62375Y-48505D01*
X62375Y-48505D02*
X62370Y-48500D01*
G54D24*
X63616Y-50270D02*
X64460Y-50270D01*
X63800Y-26200D02*
X56350Y-26200D01*
X64450Y-26850D02*
X63800Y-26200D01*
X64450Y-50260D02*
X64450Y-26850D01*
X64460Y-50270D02*
X64450Y-50260D01*
X60624Y-50270D02*
X61648Y-50270D01*
X61648Y-50270D02*
X62592Y-50270D01*
X62592Y-50270D02*
X63616Y-50270D01*
X59202Y-49890D02*
X59420Y-49890D01*
X59800Y-50270D02*
X60624Y-50270D01*
X59420Y-49890D02*
X59800Y-50270D01*
X54478Y-49890D02*
X59202Y-49890D01*
G54D22*
X54590Y-35870D02*
X55214Y-35870D01*
X55214Y-35870D02*
X55859Y-35224D01*
X54590Y-35610D02*
X54590Y-35870D01*
X54590Y-35870D02*
X54590Y-35920D01*
X54590Y-35920D02*
X54590Y-36180D01*
X54590Y-36180D02*
X54610Y-36200D01*
X58085Y-35615D02*
X57230Y-35615D01*
X57230Y-35615D02*
X56840Y-35224D01*
X58085Y-35615D02*
X58085Y-35930D01*
X58085Y-35930D02*
X58085Y-36195D01*
X58085Y-36195D02*
X58075Y-36205D01*
G54D23*
X58075Y-36805D02*
X60350Y-36805D01*
X60240Y-36800D02*
X60350Y-36800D01*
X60345Y-36800D02*
X60240Y-36800D01*
X60350Y-36805D02*
X60345Y-36800D01*
X61609Y-49216D02*
X61609Y-48331D01*
G54D25*
X61060Y-46550D02*
X61610Y-47100D01*
X61610Y-47100D02*
X61610Y-48330D01*
X61060Y-46550D02*
X60350Y-46550D01*
G54D23*
X61609Y-48331D02*
X61610Y-48330D01*
G54D25*
X57340Y-48040D02*
X58860Y-48040D01*
X60350Y-46550D02*
X60350Y-36800D01*
X60350Y-36800D02*
X60350Y-27250D01*
X58860Y-48040D02*
X60350Y-46550D01*
G54D22*
X54660Y-43350D02*
X54660Y-43080D01*
X54960Y-42030D02*
X54170Y-42030D01*
X55130Y-42200D02*
X54960Y-42030D01*
X55130Y-42610D02*
X55130Y-42200D01*
X54660Y-43080D02*
X55130Y-42610D01*
X54170Y-38600D02*
X55120Y-38600D01*
X54980Y-36800D02*
X54610Y-36800D01*
X55180Y-37000D02*
X54980Y-36800D01*
X55180Y-38540D02*
X55180Y-37000D01*
X55120Y-38600D02*
X55180Y-38540D01*
X58070Y-43370D02*
X58070Y-41880D01*
X58530Y-39250D02*
X58030Y-39250D01*
X58560Y-39280D02*
X58530Y-39250D01*
X58560Y-40530D02*
X58560Y-39280D01*
X58400Y-40690D02*
X58560Y-40530D01*
X57700Y-40690D02*
X58400Y-40690D01*
X57590Y-40800D02*
X57700Y-40690D01*
X57590Y-41400D02*
X57590Y-40800D01*
X58070Y-41880D02*
X57590Y-41400D01*
G54D23*
X58075Y-36805D02*
X58075Y-39205D01*
G54D22*
X58075Y-39205D02*
X58030Y-39250D01*
X54680Y-40620D02*
X54170Y-40620D01*
X54170Y-40620D02*
X54180Y-40620D01*
X54180Y-40620D02*
X54170Y-40620D01*
X54170Y-40730D02*
X54170Y-40620D01*
X54170Y-42030D02*
X54170Y-40730D01*
X54170Y-40620D02*
X54170Y-38600D01*
X54680Y-40070D02*
X54680Y-40620D01*
X58070Y-43370D02*
X57680Y-43370D01*
X55040Y-43350D02*
X54660Y-43350D01*
X55680Y-43990D02*
X55040Y-43350D01*
X57060Y-43990D02*
X55680Y-43990D01*
X57680Y-43370D02*
X57060Y-43990D01*
G54D10*
G36*
X64660Y-26529D02*
X64065Y-25934D01*
X63943Y-25853D01*
X63800Y-25825D01*
X62504Y-25825D01*
X62462Y-25724D01*
X62226Y-25487D01*
X61917Y-25359D01*
X61583Y-25359D01*
X61274Y-25487D01*
X61037Y-25723D01*
X60995Y-25825D01*
X57104Y-25825D01*
X57062Y-25724D01*
X56826Y-25487D01*
X56517Y-25359D01*
X56183Y-25359D01*
X55874Y-25487D01*
X55637Y-25723D01*
X55509Y-26032D01*
X55509Y-26366D01*
X55637Y-26675D01*
X55873Y-26912D01*
X56182Y-27040D01*
X56516Y-27040D01*
X56825Y-26912D01*
X57062Y-26676D01*
X57104Y-26575D01*
X60995Y-26575D01*
X61037Y-26675D01*
X61273Y-26912D01*
X61582Y-27040D01*
X61916Y-27040D01*
X62225Y-26912D01*
X62462Y-26676D01*
X62504Y-26575D01*
X63644Y-26575D01*
X64075Y-27005D01*
X64075Y-49669D01*
X64019Y-49646D01*
X63995Y-49646D01*
X64002Y-49630D01*
X64002Y-49530D01*
X64002Y-48901D01*
X63964Y-48809D01*
X63894Y-48739D01*
X63802Y-48701D01*
X63702Y-48701D01*
X62877Y-48701D01*
X62819Y-48725D01*
X62759Y-48701D01*
X62659Y-48701D01*
X62503Y-48701D01*
X62502Y-48701D01*
X62476Y-48701D01*
X62458Y-48719D01*
X62410Y-48739D01*
X62375Y-48774D01*
X62340Y-48739D01*
X62290Y-48718D01*
X62273Y-48701D01*
X62248Y-48701D01*
X62246Y-48701D01*
X62148Y-48701D01*
X61993Y-48701D01*
X61991Y-48701D01*
X61934Y-48701D01*
X61934Y-48639D01*
X62025Y-48502D01*
X62060Y-48330D01*
X62060Y-47100D01*
X62025Y-46927D01*
X61928Y-46781D01*
X61378Y-46231D01*
X61232Y-46134D01*
X61060Y-46100D01*
X60800Y-46100D01*
X60800Y-36800D01*
X60800Y-27571D01*
X60812Y-27559D01*
X60895Y-27358D01*
X60895Y-27141D01*
X60812Y-26941D01*
X60659Y-26787D01*
X60458Y-26704D01*
X60241Y-26704D01*
X60041Y-26787D01*
X59887Y-26940D01*
X59850Y-27031D01*
X59812Y-26941D01*
X59659Y-26787D01*
X59458Y-26704D01*
X59241Y-26704D01*
X59041Y-26787D01*
X58949Y-26878D01*
X58859Y-26787D01*
X58658Y-26704D01*
X58441Y-26704D01*
X58241Y-26787D01*
X58087Y-26940D01*
X58052Y-27025D01*
X58027Y-26964D01*
X57932Y-26938D01*
X57861Y-27008D01*
X57861Y-26867D01*
X57835Y-26772D01*
X57630Y-26699D01*
X57413Y-26710D01*
X57264Y-26772D01*
X57238Y-26867D01*
X57550Y-27179D01*
X57861Y-26867D01*
X57861Y-27008D01*
X57620Y-27250D01*
X57932Y-27561D01*
X58027Y-27535D01*
X58050Y-27470D01*
X58087Y-27558D01*
X58240Y-27712D01*
X58441Y-27795D01*
X58658Y-27795D01*
X58858Y-27712D01*
X58950Y-27621D01*
X59040Y-27712D01*
X59241Y-27795D01*
X59458Y-27795D01*
X59658Y-27712D01*
X59812Y-27559D01*
X59849Y-27468D01*
X59887Y-27558D01*
X59900Y-27571D01*
X59900Y-36480D01*
X58503Y-36480D01*
X58511Y-36471D01*
X58550Y-36379D01*
X58550Y-36280D01*
X58550Y-36030D01*
X58511Y-35938D01*
X58488Y-35915D01*
X58521Y-35881D01*
X58560Y-35789D01*
X58560Y-35690D01*
X58560Y-35440D01*
X58521Y-35348D01*
X58488Y-35315D01*
X58521Y-35281D01*
X58560Y-35189D01*
X58560Y-35127D01*
X58560Y-34902D01*
X58560Y-34840D01*
X58521Y-34748D01*
X58451Y-34678D01*
X58359Y-34640D01*
X58260Y-34640D01*
X58197Y-34640D01*
X58135Y-34702D01*
X58135Y-34965D01*
X58497Y-34965D01*
X58560Y-34902D01*
X58560Y-35127D01*
X58497Y-35065D01*
X58135Y-35065D01*
X58135Y-35072D01*
X58035Y-35072D01*
X58035Y-35065D01*
X58035Y-34965D01*
X58035Y-34702D01*
X57972Y-34640D01*
X57909Y-34640D01*
X57861Y-34640D01*
X57861Y-27632D01*
X57550Y-27320D01*
X57479Y-27391D01*
X57479Y-27250D01*
X57167Y-26938D01*
X57072Y-26964D01*
X56999Y-27169D01*
X57010Y-27386D01*
X57072Y-27535D01*
X57167Y-27561D01*
X57479Y-27250D01*
X57479Y-27391D01*
X57238Y-27632D01*
X57264Y-27727D01*
X57469Y-27800D01*
X57686Y-27789D01*
X57835Y-27727D01*
X57861Y-27632D01*
X57861Y-34640D01*
X57810Y-34640D01*
X57718Y-34678D01*
X57648Y-34748D01*
X57610Y-34840D01*
X57610Y-34902D01*
X57672Y-34965D01*
X58035Y-34965D01*
X58035Y-35065D01*
X57672Y-35065D01*
X57610Y-35127D01*
X57610Y-35189D01*
X57648Y-35281D01*
X57681Y-35314D01*
X57681Y-35315D01*
X57385Y-35315D01*
X57385Y-35116D01*
X57302Y-34915D01*
X57149Y-34762D01*
X57076Y-34732D01*
X57148Y-34702D01*
X57302Y-34549D01*
X57385Y-34348D01*
X57385Y-34132D01*
X57302Y-33931D01*
X57149Y-33778D01*
X56949Y-33694D01*
X56732Y-33694D01*
X56660Y-33724D01*
X56660Y-32787D01*
X56731Y-32816D01*
X56948Y-32816D01*
X57148Y-32734D01*
X57302Y-32580D01*
X57385Y-32380D01*
X57385Y-32163D01*
X57302Y-31963D01*
X57149Y-31809D01*
X57076Y-31779D01*
X57148Y-31749D01*
X57302Y-31596D01*
X57385Y-31396D01*
X57385Y-31179D01*
X57302Y-30978D01*
X57149Y-30825D01*
X56949Y-30742D01*
X56732Y-30741D01*
X56531Y-30824D01*
X56378Y-30977D01*
X56374Y-30987D01*
X56325Y-30987D01*
X56322Y-30978D01*
X56169Y-30825D01*
X55968Y-30742D01*
X55751Y-30741D01*
X55551Y-30824D01*
X55397Y-30977D01*
X55314Y-31178D01*
X55314Y-31395D01*
X55397Y-31595D01*
X55550Y-31749D01*
X55623Y-31779D01*
X55551Y-31808D01*
X55397Y-31962D01*
X55314Y-32162D01*
X55314Y-32379D01*
X55397Y-32579D01*
X55550Y-32733D01*
X55750Y-32816D01*
X55967Y-32816D01*
X55977Y-32813D01*
X56060Y-32895D01*
X56060Y-33732D01*
X55968Y-33694D01*
X55751Y-33694D01*
X55551Y-33777D01*
X55397Y-33930D01*
X55314Y-34131D01*
X55314Y-34347D01*
X55397Y-34548D01*
X55550Y-34701D01*
X55623Y-34732D01*
X55551Y-34761D01*
X55397Y-34914D01*
X55314Y-35115D01*
X55314Y-35332D01*
X55318Y-35341D01*
X55089Y-35570D01*
X55065Y-35570D01*
X55065Y-35435D01*
X55026Y-35343D01*
X54993Y-35310D01*
X55026Y-35276D01*
X55065Y-35184D01*
X55065Y-35122D01*
X55065Y-34897D01*
X55065Y-34835D01*
X55026Y-34743D01*
X54956Y-34673D01*
X54864Y-34635D01*
X54765Y-34635D01*
X54702Y-34635D01*
X54640Y-34697D01*
X54640Y-34960D01*
X55002Y-34960D01*
X55065Y-34897D01*
X55065Y-35122D01*
X55002Y-35060D01*
X54640Y-35060D01*
X54640Y-35067D01*
X54540Y-35067D01*
X54540Y-35060D01*
X54540Y-34960D01*
X54540Y-34697D01*
X54477Y-34635D01*
X54414Y-34635D01*
X54315Y-34635D01*
X54223Y-34673D01*
X54153Y-34743D01*
X54115Y-34835D01*
X54115Y-34897D01*
X54177Y-34960D01*
X54540Y-34960D01*
X54540Y-35060D01*
X54177Y-35060D01*
X54115Y-35122D01*
X54115Y-35184D01*
X54153Y-35276D01*
X54186Y-35309D01*
X54153Y-35343D01*
X54115Y-35435D01*
X54115Y-35534D01*
X54115Y-35784D01*
X54153Y-35876D01*
X54191Y-35914D01*
X54173Y-35933D01*
X54135Y-36025D01*
X54135Y-36124D01*
X54135Y-36374D01*
X54173Y-36466D01*
X54206Y-36499D01*
X54173Y-36533D01*
X54135Y-36625D01*
X54135Y-36724D01*
X54135Y-36974D01*
X54173Y-37066D01*
X54243Y-37136D01*
X54335Y-37175D01*
X54434Y-37175D01*
X54880Y-37175D01*
X54880Y-37935D01*
X54855Y-37935D01*
X54792Y-37935D01*
X54730Y-37997D01*
X54730Y-38260D01*
X54737Y-38260D01*
X54737Y-38300D01*
X54630Y-38300D01*
X54622Y-38300D01*
X54622Y-38260D01*
X54630Y-38260D01*
X54630Y-37997D01*
X54567Y-37935D01*
X54504Y-37935D01*
X54405Y-37935D01*
X54313Y-37973D01*
X54243Y-38043D01*
X54205Y-38135D01*
X54205Y-38197D01*
X54267Y-38259D01*
X54205Y-38259D01*
X54205Y-38300D01*
X54170Y-38300D01*
X54055Y-38322D01*
X53957Y-38387D01*
X53892Y-38485D01*
X53870Y-38600D01*
X53870Y-40620D01*
X53870Y-40730D01*
X53870Y-42030D01*
X53892Y-42144D01*
X53957Y-42242D01*
X54055Y-42307D01*
X54170Y-42330D01*
X54737Y-42330D01*
X54737Y-42390D01*
X54730Y-42390D01*
X54730Y-42397D01*
X54630Y-42397D01*
X54630Y-42390D01*
X54267Y-42390D01*
X54205Y-42452D01*
X54205Y-42514D01*
X54243Y-42606D01*
X54313Y-42676D01*
X54405Y-42715D01*
X54504Y-42715D01*
X54567Y-42715D01*
X54629Y-42652D01*
X54629Y-42685D01*
X54447Y-42867D01*
X54382Y-42965D01*
X54380Y-42976D01*
X54293Y-43013D01*
X54223Y-43083D01*
X54185Y-43175D01*
X54185Y-43274D01*
X54185Y-43524D01*
X54223Y-43616D01*
X54256Y-43649D01*
X54223Y-43683D01*
X54185Y-43775D01*
X54185Y-43874D01*
X54185Y-44124D01*
X54223Y-44216D01*
X54231Y-44224D01*
X54223Y-44233D01*
X54185Y-44325D01*
X54185Y-44424D01*
X54185Y-44674D01*
X54223Y-44766D01*
X54256Y-44800D01*
X54223Y-44833D01*
X54185Y-44925D01*
X54185Y-44987D01*
X54247Y-45050D01*
X54610Y-45050D01*
X54610Y-45042D01*
X54710Y-45042D01*
X54710Y-45050D01*
X55072Y-45050D01*
X55135Y-44987D01*
X55135Y-44925D01*
X55096Y-44833D01*
X55063Y-44800D01*
X55065Y-44798D01*
X55428Y-44798D01*
X55432Y-44806D01*
X55585Y-44960D01*
X55785Y-45043D01*
X56002Y-45043D01*
X56203Y-44961D01*
X56356Y-44807D01*
X56384Y-44740D01*
X56412Y-44806D01*
X56565Y-44960D01*
X56766Y-45043D01*
X56983Y-45043D01*
X57183Y-44961D01*
X57337Y-44807D01*
X57344Y-44790D01*
X57656Y-44790D01*
X57623Y-44823D01*
X57585Y-44915D01*
X57585Y-44977D01*
X57647Y-45040D01*
X58010Y-45040D01*
X58010Y-45032D01*
X58110Y-45032D01*
X58110Y-45040D01*
X58472Y-45040D01*
X58535Y-44977D01*
X58535Y-44915D01*
X58496Y-44823D01*
X58463Y-44790D01*
X58496Y-44756D01*
X58535Y-44664D01*
X58535Y-44565D01*
X58535Y-44315D01*
X58503Y-44239D01*
X58506Y-44236D01*
X58545Y-44144D01*
X58545Y-44045D01*
X58545Y-43795D01*
X58506Y-43703D01*
X58473Y-43670D01*
X58506Y-43636D01*
X58545Y-43544D01*
X58545Y-43445D01*
X58545Y-43195D01*
X58506Y-43103D01*
X58495Y-43091D01*
X58495Y-41164D01*
X58495Y-41102D01*
X58432Y-41040D01*
X58070Y-41040D01*
X58070Y-41302D01*
X58132Y-41365D01*
X58195Y-41365D01*
X58294Y-41365D01*
X58386Y-41326D01*
X58456Y-41256D01*
X58495Y-41164D01*
X58495Y-43091D01*
X58436Y-43033D01*
X58370Y-43005D01*
X58370Y-41880D01*
X58347Y-41765D01*
X58282Y-41667D01*
X57943Y-41329D01*
X57970Y-41302D01*
X57970Y-41040D01*
X57962Y-41040D01*
X57962Y-40990D01*
X58400Y-40990D01*
X58400Y-40989D01*
X58514Y-40967D01*
X58514Y-40967D01*
X58612Y-40902D01*
X58772Y-40742D01*
X58772Y-40742D01*
X58837Y-40644D01*
X58859Y-40530D01*
X58860Y-40530D01*
X58860Y-39280D01*
X58837Y-39165D01*
X58772Y-39067D01*
X58742Y-39037D01*
X58644Y-38972D01*
X58530Y-38950D01*
X58433Y-38950D01*
X58400Y-38916D01*
X58400Y-37159D01*
X58441Y-37141D01*
X58453Y-37130D01*
X59900Y-37130D01*
X59900Y-46363D01*
X58673Y-47590D01*
X58535Y-47590D01*
X58535Y-45264D01*
X58535Y-45202D01*
X58472Y-45140D01*
X58110Y-45140D01*
X58110Y-45402D01*
X58172Y-45465D01*
X58235Y-45465D01*
X58334Y-45465D01*
X58426Y-45426D01*
X58496Y-45356D01*
X58535Y-45264D01*
X58535Y-47590D01*
X58010Y-47590D01*
X58010Y-45402D01*
X58010Y-45140D01*
X57647Y-45140D01*
X57585Y-45202D01*
X57585Y-45264D01*
X57623Y-45356D01*
X57693Y-45426D01*
X57785Y-45465D01*
X57884Y-45465D01*
X57947Y-45465D01*
X58010Y-45402D01*
X58010Y-47590D01*
X57667Y-47590D01*
X57651Y-47574D01*
X57449Y-47490D01*
X57231Y-47489D01*
X57028Y-47573D01*
X56874Y-47728D01*
X56840Y-47809D01*
X56806Y-47728D01*
X56651Y-47574D01*
X56449Y-47490D01*
X56231Y-47489D01*
X56028Y-47573D01*
X55874Y-47728D01*
X55790Y-47930D01*
X55789Y-48148D01*
X55873Y-48351D01*
X55955Y-48433D01*
X55874Y-48515D01*
X55790Y-48717D01*
X55789Y-48935D01*
X55873Y-49138D01*
X56028Y-49292D01*
X56230Y-49376D01*
X56448Y-49377D01*
X56651Y-49293D01*
X56805Y-49138D01*
X56837Y-49063D01*
X56858Y-49114D01*
X56954Y-49142D01*
X57269Y-48827D01*
X56954Y-48511D01*
X56858Y-48539D01*
X56839Y-48594D01*
X56806Y-48515D01*
X56724Y-48433D01*
X56805Y-48351D01*
X56839Y-48270D01*
X56873Y-48351D01*
X57028Y-48505D01*
X57133Y-48549D01*
X57340Y-48756D01*
X57345Y-48750D01*
X57416Y-48821D01*
X57410Y-48827D01*
X57725Y-49142D01*
X57821Y-49114D01*
X57894Y-48908D01*
X57883Y-48690D01*
X57821Y-48539D01*
X57725Y-48511D01*
X57747Y-48490D01*
X58860Y-48490D01*
X59032Y-48455D01*
X59178Y-48358D01*
X60536Y-47000D01*
X60873Y-47000D01*
X61160Y-47286D01*
X61160Y-48330D01*
X61194Y-48502D01*
X61284Y-48636D01*
X61284Y-48701D01*
X61262Y-48701D01*
X60437Y-48701D01*
X60345Y-48739D01*
X60275Y-48809D01*
X60237Y-48901D01*
X60237Y-49001D01*
X60237Y-49630D01*
X60244Y-49646D01*
X60220Y-49646D01*
X60128Y-49684D01*
X60058Y-49754D01*
X60020Y-49846D01*
X60020Y-49895D01*
X59983Y-49895D01*
X59983Y-49735D01*
X59864Y-49447D01*
X59645Y-49227D01*
X59358Y-49108D01*
X59047Y-49108D01*
X58759Y-49227D01*
X58539Y-49446D01*
X58511Y-49515D01*
X57894Y-49515D01*
X57655Y-49515D01*
X57655Y-49212D01*
X57340Y-48897D01*
X57024Y-49212D01*
X57052Y-49308D01*
X57258Y-49381D01*
X57476Y-49370D01*
X57627Y-49308D01*
X57655Y-49212D01*
X57655Y-49515D01*
X55168Y-49515D01*
X55140Y-49447D01*
X55135Y-49441D01*
X55135Y-45274D01*
X55135Y-45212D01*
X55072Y-45150D01*
X54710Y-45150D01*
X54710Y-45412D01*
X54772Y-45475D01*
X54835Y-45475D01*
X54934Y-45475D01*
X55026Y-45436D01*
X55096Y-45366D01*
X55135Y-45274D01*
X55135Y-49441D01*
X54921Y-49227D01*
X54634Y-49108D01*
X54610Y-49108D01*
X54610Y-45412D01*
X54610Y-45150D01*
X54247Y-45150D01*
X54185Y-45212D01*
X54185Y-45274D01*
X54223Y-45366D01*
X54293Y-45436D01*
X54385Y-45475D01*
X54484Y-45475D01*
X54547Y-45475D01*
X54610Y-45412D01*
X54610Y-49108D01*
X54323Y-49108D01*
X54035Y-49227D01*
X53815Y-49446D01*
X53696Y-49733D01*
X53696Y-50044D01*
X53815Y-50332D01*
X54034Y-50552D01*
X54321Y-50671D01*
X54632Y-50671D01*
X54920Y-50552D01*
X55140Y-50333D01*
X55168Y-50265D01*
X58511Y-50265D01*
X58539Y-50332D01*
X58758Y-50552D01*
X59045Y-50671D01*
X59356Y-50671D01*
X59592Y-50574D01*
X59656Y-50616D01*
X59800Y-50645D01*
X60020Y-50645D01*
X60020Y-50693D01*
X60058Y-50785D01*
X60103Y-50830D01*
X53519Y-50830D01*
X53519Y-25119D01*
X63350Y-25119D01*
X64660Y-25119D01*
X64660Y-26529D01*
X64660Y-26529D01*
G37*
G54D22*
X64660Y-26529D02*
X64065Y-25934D01*
X63943Y-25853D01*
X63800Y-25825D01*
X62504Y-25825D01*
X62462Y-25724D01*
X62226Y-25487D01*
X61917Y-25359D01*
X61583Y-25359D01*
X61274Y-25487D01*
X61037Y-25723D01*
X60995Y-25825D01*
X57104Y-25825D01*
X57062Y-25724D01*
X56826Y-25487D01*
X56517Y-25359D01*
X56183Y-25359D01*
X55874Y-25487D01*
X55637Y-25723D01*
X55509Y-26032D01*
X55509Y-26366D01*
X55637Y-26675D01*
X55873Y-26912D01*
X56182Y-27040D01*
X56516Y-27040D01*
X56825Y-26912D01*
X57062Y-26676D01*
X57104Y-26575D01*
X60995Y-26575D01*
X61037Y-26675D01*
X61273Y-26912D01*
X61582Y-27040D01*
X61916Y-27040D01*
X62225Y-26912D01*
X62462Y-26676D01*
X62504Y-26575D01*
X63644Y-26575D01*
X64075Y-27005D01*
X64075Y-49669D01*
X64019Y-49646D01*
X63995Y-49646D01*
X64002Y-49630D01*
X64002Y-49530D01*
X64002Y-48901D01*
X63964Y-48809D01*
X63894Y-48739D01*
X63802Y-48701D01*
X63702Y-48701D01*
X62877Y-48701D01*
X62819Y-48725D01*
X62759Y-48701D01*
X62659Y-48701D01*
X62503Y-48701D01*
X62502Y-48701D01*
X62476Y-48701D01*
X62458Y-48719D01*
X62410Y-48739D01*
X62375Y-48774D01*
X62340Y-48739D01*
X62290Y-48718D01*
X62273Y-48701D01*
X62248Y-48701D01*
X62246Y-48701D01*
X62148Y-48701D01*
X61993Y-48701D01*
X61991Y-48701D01*
X61934Y-48701D01*
X61934Y-48639D01*
X62025Y-48502D01*
X62060Y-48330D01*
X62060Y-47100D01*
X62025Y-46927D01*
X61928Y-46781D01*
X61378Y-46231D01*
X61232Y-46134D01*
X61060Y-46100D01*
X60800Y-46100D01*
X60800Y-36800D01*
X60800Y-27571D01*
X60812Y-27559D01*
X60895Y-27358D01*
X60895Y-27141D01*
X60812Y-26941D01*
X60659Y-26787D01*
X60458Y-26704D01*
X60241Y-26704D01*
X60041Y-26787D01*
X59887Y-26940D01*
X59850Y-27031D01*
X59812Y-26941D01*
X59659Y-26787D01*
X59458Y-26704D01*
X59241Y-26704D01*
X59041Y-26787D01*
X58949Y-26878D01*
X58859Y-26787D01*
X58658Y-26704D01*
X58441Y-26704D01*
X58241Y-26787D01*
X58087Y-26940D01*
X58052Y-27025D01*
X58027Y-26964D01*
X57932Y-26938D01*
X57861Y-27008D01*
X57861Y-26867D01*
X57835Y-26772D01*
X57630Y-26699D01*
X57413Y-26710D01*
X57264Y-26772D01*
X57238Y-26867D01*
X57550Y-27179D01*
X57861Y-26867D01*
X57861Y-27008D01*
X57620Y-27250D01*
X57932Y-27561D01*
X58027Y-27535D01*
X58050Y-27470D01*
X58087Y-27558D01*
X58240Y-27712D01*
X58441Y-27795D01*
X58658Y-27795D01*
X58858Y-27712D01*
X58950Y-27621D01*
X59040Y-27712D01*
X59241Y-27795D01*
X59458Y-27795D01*
X59658Y-27712D01*
X59812Y-27559D01*
X59849Y-27468D01*
X59887Y-27558D01*
X59900Y-27571D01*
X59900Y-36480D01*
X58503Y-36480D01*
X58511Y-36471D01*
X58550Y-36379D01*
X58550Y-36280D01*
X58550Y-36030D01*
X58511Y-35938D01*
X58488Y-35915D01*
X58521Y-35881D01*
X58560Y-35789D01*
X58560Y-35690D01*
X58560Y-35440D01*
X58521Y-35348D01*
X58488Y-35315D01*
X58521Y-35281D01*
X58560Y-35189D01*
X58560Y-35127D01*
X58560Y-34902D01*
X58560Y-34840D01*
X58521Y-34748D01*
X58451Y-34678D01*
X58359Y-34640D01*
X58260Y-34640D01*
X58197Y-34640D01*
X58135Y-34702D01*
X58135Y-34965D01*
X58497Y-34965D01*
X58560Y-34902D01*
X58560Y-35127D01*
X58497Y-35065D01*
X58135Y-35065D01*
X58135Y-35072D01*
X58035Y-35072D01*
X58035Y-35065D01*
X58035Y-34965D01*
X58035Y-34702D01*
X57972Y-34640D01*
X57909Y-34640D01*
X57861Y-34640D01*
X57861Y-27632D01*
X57550Y-27320D01*
X57479Y-27391D01*
X57479Y-27250D01*
X57167Y-26938D01*
X57072Y-26964D01*
X56999Y-27169D01*
X57010Y-27386D01*
X57072Y-27535D01*
X57167Y-27561D01*
X57479Y-27250D01*
X57479Y-27391D01*
X57238Y-27632D01*
X57264Y-27727D01*
X57469Y-27800D01*
X57686Y-27789D01*
X57835Y-27727D01*
X57861Y-27632D01*
X57861Y-34640D01*
X57810Y-34640D01*
X57718Y-34678D01*
X57648Y-34748D01*
X57610Y-34840D01*
X57610Y-34902D01*
X57672Y-34965D01*
X58035Y-34965D01*
X58035Y-35065D01*
X57672Y-35065D01*
X57610Y-35127D01*
X57610Y-35189D01*
X57648Y-35281D01*
X57681Y-35314D01*
X57681Y-35315D01*
X57385Y-35315D01*
X57385Y-35116D01*
X57302Y-34915D01*
X57149Y-34762D01*
X57076Y-34732D01*
X57148Y-34702D01*
X57302Y-34549D01*
X57385Y-34348D01*
X57385Y-34132D01*
X57302Y-33931D01*
X57149Y-33778D01*
X56949Y-33694D01*
X56732Y-33694D01*
X56660Y-33724D01*
X56660Y-32787D01*
X56731Y-32816D01*
X56948Y-32816D01*
X57148Y-32734D01*
X57302Y-32580D01*
X57385Y-32380D01*
X57385Y-32163D01*
X57302Y-31963D01*
X57149Y-31809D01*
X57076Y-31779D01*
X57148Y-31749D01*
X57302Y-31596D01*
X57385Y-31396D01*
X57385Y-31179D01*
X57302Y-30978D01*
X57149Y-30825D01*
X56949Y-30742D01*
X56732Y-30741D01*
X56531Y-30824D01*
X56378Y-30977D01*
X56374Y-30987D01*
X56325Y-30987D01*
X56322Y-30978D01*
X56169Y-30825D01*
X55968Y-30742D01*
X55751Y-30741D01*
X55551Y-30824D01*
X55397Y-30977D01*
X55314Y-31178D01*
X55314Y-31395D01*
X55397Y-31595D01*
X55550Y-31749D01*
X55623Y-31779D01*
X55551Y-31808D01*
X55397Y-31962D01*
X55314Y-32162D01*
X55314Y-32379D01*
X55397Y-32579D01*
X55550Y-32733D01*
X55750Y-32816D01*
X55967Y-32816D01*
X55977Y-32813D01*
X56060Y-32895D01*
X56060Y-33732D01*
X55968Y-33694D01*
X55751Y-33694D01*
X55551Y-33777D01*
X55397Y-33930D01*
X55314Y-34131D01*
X55314Y-34347D01*
X55397Y-34548D01*
X55550Y-34701D01*
X55623Y-34732D01*
X55551Y-34761D01*
X55397Y-34914D01*
X55314Y-35115D01*
X55314Y-35332D01*
X55318Y-35341D01*
X55089Y-35570D01*
X55065Y-35570D01*
X55065Y-35435D01*
X55026Y-35343D01*
X54993Y-35310D01*
X55026Y-35276D01*
X55065Y-35184D01*
X55065Y-35122D01*
X55065Y-34897D01*
X55065Y-34835D01*
X55026Y-34743D01*
X54956Y-34673D01*
X54864Y-34635D01*
X54765Y-34635D01*
X54702Y-34635D01*
X54640Y-34697D01*
X54640Y-34960D01*
X55002Y-34960D01*
X55065Y-34897D01*
X55065Y-35122D01*
X55002Y-35060D01*
X54640Y-35060D01*
X54640Y-35067D01*
X54540Y-35067D01*
X54540Y-35060D01*
X54540Y-34960D01*
X54540Y-34697D01*
X54477Y-34635D01*
X54414Y-34635D01*
X54315Y-34635D01*
X54223Y-34673D01*
X54153Y-34743D01*
X54115Y-34835D01*
X54115Y-34897D01*
X54177Y-34960D01*
X54540Y-34960D01*
X54540Y-35060D01*
X54177Y-35060D01*
X54115Y-35122D01*
X54115Y-35184D01*
X54153Y-35276D01*
X54186Y-35309D01*
X54153Y-35343D01*
X54115Y-35435D01*
X54115Y-35534D01*
X54115Y-35784D01*
X54153Y-35876D01*
X54191Y-35914D01*
X54173Y-35933D01*
X54135Y-36025D01*
X54135Y-36124D01*
X54135Y-36374D01*
X54173Y-36466D01*
X54206Y-36499D01*
X54173Y-36533D01*
X54135Y-36625D01*
X54135Y-36724D01*
X54135Y-36974D01*
X54173Y-37066D01*
X54243Y-37136D01*
X54335Y-37175D01*
X54434Y-37175D01*
X54880Y-37175D01*
X54880Y-37935D01*
X54855Y-37935D01*
X54792Y-37935D01*
X54730Y-37997D01*
X54730Y-38260D01*
X54737Y-38260D01*
X54737Y-38300D01*
X54630Y-38300D01*
X54622Y-38300D01*
X54622Y-38260D01*
X54630Y-38260D01*
X54630Y-37997D01*
X54567Y-37935D01*
X54504Y-37935D01*
X54405Y-37935D01*
X54313Y-37973D01*
X54243Y-38043D01*
X54205Y-38135D01*
X54205Y-38197D01*
X54267Y-38259D01*
X54205Y-38259D01*
X54205Y-38300D01*
X54170Y-38300D01*
X54055Y-38322D01*
X53957Y-38387D01*
X53892Y-38485D01*
X53870Y-38600D01*
X53870Y-40620D01*
X53870Y-40730D01*
X53870Y-42030D01*
X53892Y-42144D01*
X53957Y-42242D01*
X54055Y-42307D01*
X54170Y-42330D01*
X54737Y-42330D01*
X54737Y-42390D01*
X54730Y-42390D01*
X54730Y-42397D01*
X54630Y-42397D01*
X54630Y-42390D01*
X54267Y-42390D01*
X54205Y-42452D01*
X54205Y-42514D01*
X54243Y-42606D01*
X54313Y-42676D01*
X54405Y-42715D01*
X54504Y-42715D01*
X54567Y-42715D01*
X54629Y-42652D01*
X54629Y-42685D01*
X54447Y-42867D01*
X54382Y-42965D01*
X54380Y-42976D01*
X54293Y-43013D01*
X54223Y-43083D01*
X54185Y-43175D01*
X54185Y-43274D01*
X54185Y-43524D01*
X54223Y-43616D01*
X54256Y-43649D01*
X54223Y-43683D01*
X54185Y-43775D01*
X54185Y-43874D01*
X54185Y-44124D01*
X54223Y-44216D01*
X54231Y-44224D01*
X54223Y-44233D01*
X54185Y-44325D01*
X54185Y-44424D01*
X54185Y-44674D01*
X54223Y-44766D01*
X54256Y-44800D01*
X54223Y-44833D01*
X54185Y-44925D01*
X54185Y-44987D01*
X54247Y-45050D01*
X54610Y-45050D01*
X54610Y-45042D01*
X54710Y-45042D01*
X54710Y-45050D01*
X55072Y-45050D01*
X55135Y-44987D01*
X55135Y-44925D01*
X55096Y-44833D01*
X55063Y-44800D01*
X55065Y-44798D01*
X55428Y-44798D01*
X55432Y-44806D01*
X55585Y-44960D01*
X55785Y-45043D01*
X56002Y-45043D01*
X56203Y-44961D01*
X56356Y-44807D01*
X56384Y-44740D01*
X56412Y-44806D01*
X56565Y-44960D01*
X56766Y-45043D01*
X56983Y-45043D01*
X57183Y-44961D01*
X57337Y-44807D01*
X57344Y-44790D01*
X57656Y-44790D01*
X57623Y-44823D01*
X57585Y-44915D01*
X57585Y-44977D01*
X57647Y-45040D01*
X58010Y-45040D01*
X58010Y-45032D01*
X58110Y-45032D01*
X58110Y-45040D01*
X58472Y-45040D01*
X58535Y-44977D01*
X58535Y-44915D01*
X58496Y-44823D01*
X58463Y-44790D01*
X58496Y-44756D01*
X58535Y-44664D01*
X58535Y-44565D01*
X58535Y-44315D01*
X58503Y-44239D01*
X58506Y-44236D01*
X58545Y-44144D01*
X58545Y-44045D01*
X58545Y-43795D01*
X58506Y-43703D01*
X58473Y-43670D01*
X58506Y-43636D01*
X58545Y-43544D01*
X58545Y-43445D01*
X58545Y-43195D01*
X58506Y-43103D01*
X58495Y-43091D01*
X58495Y-41164D01*
X58495Y-41102D01*
X58432Y-41040D01*
X58070Y-41040D01*
X58070Y-41302D01*
X58132Y-41365D01*
X58195Y-41365D01*
X58294Y-41365D01*
X58386Y-41326D01*
X58456Y-41256D01*
X58495Y-41164D01*
X58495Y-43091D01*
X58436Y-43033D01*
X58370Y-43005D01*
X58370Y-41880D01*
X58347Y-41765D01*
X58282Y-41667D01*
X57943Y-41329D01*
X57970Y-41302D01*
X57970Y-41040D01*
X57962Y-41040D01*
X57962Y-40990D01*
X58400Y-40990D01*
X58400Y-40989D01*
X58514Y-40967D01*
X58514Y-40967D01*
X58612Y-40902D01*
X58772Y-40742D01*
X58772Y-40742D01*
X58837Y-40644D01*
X58859Y-40530D01*
X58860Y-40530D01*
X58860Y-39280D01*
X58837Y-39165D01*
X58772Y-39067D01*
X58742Y-39037D01*
X58644Y-38972D01*
X58530Y-38950D01*
X58433Y-38950D01*
X58400Y-38916D01*
X58400Y-37159D01*
X58441Y-37141D01*
X58453Y-37130D01*
X59900Y-37130D01*
X59900Y-46363D01*
X58673Y-47590D01*
X58535Y-47590D01*
X58535Y-45264D01*
X58535Y-45202D01*
X58472Y-45140D01*
X58110Y-45140D01*
X58110Y-45402D01*
X58172Y-45465D01*
X58235Y-45465D01*
X58334Y-45465D01*
X58426Y-45426D01*
X58496Y-45356D01*
X58535Y-45264D01*
X58535Y-47590D01*
X58010Y-47590D01*
X58010Y-45402D01*
X58010Y-45140D01*
X57647Y-45140D01*
X57585Y-45202D01*
X57585Y-45264D01*
X57623Y-45356D01*
X57693Y-45426D01*
X57785Y-45465D01*
X57884Y-45465D01*
X57947Y-45465D01*
X58010Y-45402D01*
X58010Y-47590D01*
X57667Y-47590D01*
X57651Y-47574D01*
X57449Y-47490D01*
X57231Y-47489D01*
X57028Y-47573D01*
X56874Y-47728D01*
X56840Y-47809D01*
X56806Y-47728D01*
X56651Y-47574D01*
X56449Y-47490D01*
X56231Y-47489D01*
X56028Y-47573D01*
X55874Y-47728D01*
X55790Y-47930D01*
X55789Y-48148D01*
X55873Y-48351D01*
X55955Y-48433D01*
X55874Y-48515D01*
X55790Y-48717D01*
X55789Y-48935D01*
X55873Y-49138D01*
X56028Y-49292D01*
X56230Y-49376D01*
X56448Y-49377D01*
X56651Y-49293D01*
X56805Y-49138D01*
X56837Y-49063D01*
X56858Y-49114D01*
X56954Y-49142D01*
X57269Y-48827D01*
X56954Y-48511D01*
X56858Y-48539D01*
X56839Y-48594D01*
X56806Y-48515D01*
X56724Y-48433D01*
X56805Y-48351D01*
X56839Y-48270D01*
X56873Y-48351D01*
X57028Y-48505D01*
X57133Y-48549D01*
X57340Y-48756D01*
X57345Y-48750D01*
X57416Y-48821D01*
X57410Y-48827D01*
X57725Y-49142D01*
X57821Y-49114D01*
X57894Y-48908D01*
X57883Y-48690D01*
X57821Y-48539D01*
X57725Y-48511D01*
X57747Y-48490D01*
X58860Y-48490D01*
X59032Y-48455D01*
X59178Y-48358D01*
X60536Y-47000D01*
X60873Y-47000D01*
X61160Y-47286D01*
X61160Y-48330D01*
X61194Y-48502D01*
X61284Y-48636D01*
X61284Y-48701D01*
X61262Y-48701D01*
X60437Y-48701D01*
X60345Y-48739D01*
X60275Y-48809D01*
X60237Y-48901D01*
X60237Y-49001D01*
X60237Y-49630D01*
X60244Y-49646D01*
X60220Y-49646D01*
X60128Y-49684D01*
X60058Y-49754D01*
X60020Y-49846D01*
X60020Y-49895D01*
X59983Y-49895D01*
X59983Y-49735D01*
X59864Y-49447D01*
X59645Y-49227D01*
X59358Y-49108D01*
X59047Y-49108D01*
X58759Y-49227D01*
X58539Y-49446D01*
X58511Y-49515D01*
X57894Y-49515D01*
X57655Y-49515D01*
X57655Y-49212D01*
X57340Y-48897D01*
X57024Y-49212D01*
X57052Y-49308D01*
X57258Y-49381D01*
X57476Y-49370D01*
X57627Y-49308D01*
X57655Y-49212D01*
X57655Y-49515D01*
X55168Y-49515D01*
X55140Y-49447D01*
X55135Y-49441D01*
X55135Y-45274D01*
X55135Y-45212D01*
X55072Y-45150D01*
X54710Y-45150D01*
X54710Y-45412D01*
X54772Y-45475D01*
X54835Y-45475D01*
X54934Y-45475D01*
X55026Y-45436D01*
X55096Y-45366D01*
X55135Y-45274D01*
X55135Y-49441D01*
X54921Y-49227D01*
X54634Y-49108D01*
X54610Y-49108D01*
X54610Y-45412D01*
X54610Y-45150D01*
X54247Y-45150D01*
X54185Y-45212D01*
X54185Y-45274D01*
X54223Y-45366D01*
X54293Y-45436D01*
X54385Y-45475D01*
X54484Y-45475D01*
X54547Y-45475D01*
X54610Y-45412D01*
X54610Y-49108D01*
X54323Y-49108D01*
X54035Y-49227D01*
X53815Y-49446D01*
X53696Y-49733D01*
X53696Y-50044D01*
X53815Y-50332D01*
X54034Y-50552D01*
X54321Y-50671D01*
X54632Y-50671D01*
X54920Y-50552D01*
X55140Y-50333D01*
X55168Y-50265D01*
X58511Y-50265D01*
X58539Y-50332D01*
X58758Y-50552D01*
X59045Y-50671D01*
X59356Y-50671D01*
X59592Y-50574D01*
X59656Y-50616D01*
X59800Y-50645D01*
X60020Y-50645D01*
X60020Y-50693D01*
X60058Y-50785D01*
X60103Y-50830D01*
X53519Y-50830D01*
X53519Y-25119D01*
X63350Y-25119D01*
X64660Y-25119D01*
X64660Y-26529D01*
M02*
